<svg width="48" height="48" viewBox="0 0 48 48" fill="none" xmlns="http://www.w3.org/2000/svg">
<g clip-path="url(#clip0_1098_15581)">
<rect width="48" height="48" rx="24" fill="#B8D0EC"/>
<path d="M44.1947 14.3564L39.729 6.62159C39.4214 6.08884 38.9148 5.7001 38.3206 5.54088C37.7264 5.38167 37.0932 5.46502 36.5605 5.7726L10.9467 20.5607C10.414 20.8683 10.0252 21.3749 9.86602 21.9691C9.7068 22.5633 9.79015 23.1964 10.0977 23.7292L31.0973 60.1015C31.4062 60.6316 31.9126 61.0176 32.5055 61.1752C33.0985 61.3328 33.7297 61.249 34.261 60.9422L59.8783 46.1521C60.1281 46.0105 61.5455 44.409 60.5233 45.5938" stroke="black" stroke-width="0.643999" stroke-linecap="round" stroke-linejoin="round"/>
<path d="M36.4569 7.47087L12.4737 21.3175C11.412 21.9306 11.0482 23.2882 11.6612 24.35L31.3407 58.4359C31.9537 59.4976 33.3114 59.8614 34.3731 59.2484L58.3563 45.4017C59.418 44.7887 59.7818 43.4311 59.1688 42.3693L39.4893 8.28341C38.8763 7.22166 37.5186 6.85787 36.4569 7.47087Z" fill="#31AAB7"/>
<path d="M34.8035 31.9552C34.0202 32.4069 33.3884 33.0807 32.9881 33.8915C32.5878 34.7023 32.437 35.6137 32.5547 36.5102C32.6725 37.4067 33.0535 38.2482 33.6496 38.9282C34.2457 39.6081 35.0301 40.0959 35.9035 40.33C36.777 40.564 37.7002 40.5337 38.5564 40.2429C39.4126 39.9521 40.1634 39.4139 40.7136 38.6964C41.2639 37.9788 41.5889 37.1142 41.6477 36.2119C41.7064 35.3095 41.4962 34.41 41.0436 33.6272C40.4376 32.5783 39.4398 31.8129 38.2697 31.4994C37.0996 31.1859 35.8528 31.3498 34.8035 31.9552ZM38.8203 38.9125C38.6671 39.001 38.485 39.025 38.3141 38.9792C38.1431 38.9334 37.9974 38.8216 37.9089 38.6683C37.8205 38.5151 37.7965 38.333 37.8423 38.162C37.8881 37.9911 37.9999 37.8454 38.1531 37.7569C38.3064 37.6684 38.4885 37.6445 38.6594 37.6903C38.8303 37.736 38.9761 37.8479 39.0646 38.0011C39.153 38.1544 39.177 38.3365 39.1312 38.5074C39.0854 38.6783 38.9736 38.824 38.8203 38.9125ZM36.9844 34.0408C37.3557 34.9703 37.7724 35.9349 38.0044 36.918C38.0575 37.152 37.6806 37.3696 37.5046 37.2066C36.9615 36.6836 36.4538 36.1251 35.9848 35.5349C35.6351 35.1066 34.9209 34.5106 34.922 33.8987C34.9166 33.3599 35.5383 32.9332 36.0369 32.9289C36.6559 32.926 36.7961 33.5808 36.9844 34.0408Z" fill="#D7E8F0"/>
<path d="M38.8202 38.9126C39.1393 38.7284 39.2486 38.3203 39.0644 38.0012C38.8802 37.6821 38.4721 37.5727 38.153 37.757C37.8339 37.9412 37.7246 38.3493 37.9088 38.6684C38.093 38.9875 38.5011 39.0968 38.8202 38.9126Z" fill="white"/>
<path d="M36.9847 34.0408C37.3559 34.9703 37.7726 35.935 38.0046 36.918C38.0578 37.152 37.6809 37.3696 37.5048 37.2066C36.9618 36.6836 36.4541 36.1252 35.9851 35.5349C35.6354 35.1066 34.9211 34.5107 34.9223 33.8987C34.9168 33.3599 35.5386 32.9332 36.0371 32.9289C36.6562 32.926 36.7963 33.5808 36.9847 34.0408Z" fill="white"/>
<path d="M22.3008 33.2546L41.6272 22.0965" stroke="white" stroke-width="0.643999" stroke-miterlimit="10"/>
<path d="M23.3984 35.156L42.7249 23.9979" stroke="white" stroke-width="0.643999" stroke-miterlimit="10"/>
<path d="M30.4717 47.4067L49.7981 36.2486" stroke="white" stroke-width="0.643999" stroke-miterlimit="10"/>
<path d="M35.9995 46.6147L46.3481 40.64" stroke="white" stroke-width="0.643999" stroke-miterlimit="10"/>
</g>
<defs>
<clipPath id="clip0_1098_15581">
<rect width="48" height="48" rx="24" fill="white"/>
</clipPath>
</defs>
</svg>
