<svg width="96" height="96" viewBox="0 0 96 96" fill="none" xmlns="http://www.w3.org/2000/svg">
<g clip-path="url(#clip0_878_16130)">
<rect width="96" height="96" rx="48" fill="#B8D0EC"/>
<g clip-path="url(#clip1_878_16130)">
<path d="M92.0498 91.5046H79.3342V92.8609C79.3342 94.5471 80.0041 96.1643 81.1964 97.3566C82.3887 98.5489 84.0058 99.2187 85.692 99.2187C87.3782 99.2187 88.9953 98.5489 90.1876 97.3566C91.38 96.1643 92.0498 94.5471 92.0498 92.8609V91.5046Z" fill="#D7E8F0"/>
<path d="M37.105 30.733L37.0842 18.1293C37.0845 16.4432 37.7542 14.8261 38.9462 13.6336C40.1382 12.4411 41.7549 11.7706 43.441 11.7695H85.6903" stroke="#CCDDE2" stroke-width="0.44154" stroke-miterlimit="10"/>
<path d="M79.3335 92.7647V91.5035V29.6899V18.1296" stroke="#CCDDE2" stroke-width="0.44154" stroke-miterlimit="10"/>
<path d="M79.3342 28.2156H92.0498V18.1295C92.0498 16.4433 91.38 14.8262 90.1876 13.6339C88.9953 12.4416 87.3782 11.7717 85.692 11.7717C84.0058 11.7717 82.3887 12.4416 81.1964 13.6339C80.0041 14.8262 79.3342 16.4433 79.3342 18.1295V29.6897" fill="#D7E8F0"/>
<path d="M79.3342 28.2156H92.0498V18.1295C92.0498 16.4433 91.38 14.8262 90.1876 13.6339C88.9953 12.4416 87.3782 11.7717 85.692 11.7717C84.0058 11.7717 82.3887 12.4416 81.1964 13.6339C80.0041 14.8262 79.3342 16.4433 79.3342 18.1295V29.6897" stroke="#CCDDE2" stroke-width="0.44154" stroke-miterlimit="10"/>
<path d="M79.3325 91.5046V92.7659C79.3328 94.4522 80.0028 96.0693 81.1953 97.2616C82.3878 98.4539 84.005 99.1237 85.6913 99.1237" stroke="#CCDDE2" stroke-width="0.44154" stroke-miterlimit="10"/>
<path d="M79.3345 91.5032H92.0501V92.7644C92.0496 94.451 91.3794 96.0683 90.1868 97.2609C88.9942 98.4535 87.3769 99.1237 85.6903 99.1242H54.9934" stroke="#CCDDE2" stroke-width="0.44154" stroke-miterlimit="10"/>
<path d="M72.2183 39.729H61.946" stroke="#CCDDE2" stroke-width="0.44154" stroke-miterlimit="10"/>
<path d="M72.2183 43.7122H61.946" stroke="#CCDDE2" stroke-width="0.44154" stroke-miterlimit="10"/>
<path d="M72.2183 47.696H61.946" stroke="#CCDDE2" stroke-width="0.44154" stroke-miterlimit="10"/>
<path d="M72.2183 51.6782H61.946" stroke="#CCDDE2" stroke-width="0.44154" stroke-miterlimit="10"/>
<path d="M72.2183 55.6621H61.946" stroke="#CCDDE2" stroke-width="0.44154" stroke-miterlimit="10"/>
<path d="M72.2183 59.645H61.946" stroke="#CCDDE2" stroke-width="0.44154" stroke-miterlimit="10"/>
<path d="M72.2183 72.9514H61.946" stroke="#CCDDE2" stroke-width="0.44154" stroke-miterlimit="10"/>
<path d="M72.2183 74.8088H61.946" stroke="#CCDDE2" stroke-width="0.44154" stroke-miterlimit="10"/>
<path d="M72.2183 76.6665H61.946" stroke="#CCDDE2" stroke-width="0.44154" stroke-miterlimit="10"/>
<path d="M72.2183 78.5232H61.946" stroke="#CCDDE2" stroke-width="0.44154" stroke-miterlimit="10"/>
<path d="M74.633 34.5071H59.3583C58.2484 34.5071 57.3486 35.4069 57.3486 36.5168V81.9063C57.3486 83.0162 58.2484 83.916 59.3583 83.916H74.633C75.743 83.916 76.6427 83.0162 76.6427 81.9063V36.5168C76.6427 35.4069 75.743 34.5071 74.633 34.5071Z" stroke="#CCDDE2" stroke-width="0.44154" stroke-miterlimit="10"/>
<path d="M61.946 30.5361H53.8191" stroke="#CCDDE2" stroke-width="0.44154" stroke-miterlimit="10"/>
<path d="M61.946 25.8577H55.1309" stroke="#CCDDE2" stroke-width="0.44154" stroke-miterlimit="10"/>
<path d="M61.946 28.1965H54.1785" stroke="#CCDDE2" stroke-width="0.44154" stroke-miterlimit="10"/>
<path d="M61.9461 23.5168H52.752" stroke="#CCDDE2" stroke-width="0.44154" stroke-miterlimit="10"/>
<path d="M69.3513 26.3503C70.0462 26.3503 70.6096 25.787 70.6096 25.092C70.6096 24.3971 70.0462 23.8337 69.3513 23.8337C68.6564 23.8337 68.093 24.3971 68.093 25.092C68.093 25.787 68.6564 26.3503 69.3513 26.3503Z" fill="#D7E8F0"/>
<path d="M66.1633 30.2203C66.1781 29.3844 66.5204 28.5877 67.1168 28.0018C67.7131 27.4159 68.5156 27.0876 69.3516 27.0876C70.1876 27.0876 70.9902 27.4159 71.5865 28.0018C72.1828 28.5877 72.5252 29.3844 72.5399 30.2203H66.1633Z" fill="#D7E8F0"/>
<path d="M72.7263 22.7441H65.9774C65.4755 22.7441 65.0686 23.151 65.0686 23.653V30.4018C65.0686 30.9037 65.4755 31.3106 65.9774 31.3106H72.7263C73.2282 31.3106 73.6351 30.9037 73.6351 30.4018V23.653C73.6351 23.151 73.2282 22.7441 72.7263 22.7441Z" stroke="#CCDDE2" stroke-width="0.44154" stroke-miterlimit="10"/>
<path d="M69.6624 87.378L70.5949 89.2659C70.6198 89.3162 70.6565 89.3598 70.7018 89.3929C70.7472 89.426 70.7998 89.4476 70.8553 89.456L72.9432 89.759C73.0078 89.7678 73.0686 89.7947 73.1186 89.8366C73.1686 89.8785 73.2057 89.9336 73.2258 89.9956C73.2459 90.0577 73.248 90.1241 73.232 90.1873C73.216 90.2505 73.1825 90.3079 73.1353 90.353L71.6275 91.8231C71.5873 91.8624 71.5573 91.9108 71.54 91.9643C71.5228 92.0178 71.5188 92.0747 71.5285 92.13L71.8839 94.209C71.8949 94.2728 71.8878 94.3383 71.8634 94.3982C71.8391 94.4581 71.7984 94.51 71.7461 94.5481C71.6937 94.5861 71.6318 94.6087 71.5673 94.6133C71.5028 94.618 71.4382 94.6045 71.381 94.5743L69.5168 93.5952C69.4671 93.5689 69.4117 93.5551 69.3555 93.5551C69.2992 93.5551 69.2438 93.5689 69.1941 93.5952L67.3309 94.5743C67.2736 94.6043 67.2091 94.6177 67.1446 94.6131C67.08 94.6084 67.0181 94.5858 66.9657 94.5478C66.9134 94.5099 66.8727 94.458 66.8481 94.3982C66.8236 94.3383 66.8163 94.2728 66.827 94.209L67.1834 92.13C67.193 92.0747 67.189 92.0178 67.1718 91.9643C67.1545 91.9109 67.1245 91.8624 67.0844 91.8231L65.5717 90.348C65.5245 90.303 65.491 90.2456 65.475 90.1824C65.459 90.1192 65.4611 90.0527 65.4812 89.9907C65.5012 89.9286 65.5384 89.8735 65.5884 89.8317C65.6384 89.7898 65.6991 89.7629 65.7637 89.754L67.8427 89.4511C67.8984 89.4428 67.9512 89.4211 67.9967 89.3881C68.0422 89.355 68.0791 89.3114 68.1041 89.261L69.0406 87.378C69.0692 87.32 69.1135 87.2711 69.1684 87.2369C69.2234 87.2027 69.2868 87.1846 69.3515 87.1846C69.4162 87.1846 69.4796 87.2027 69.5346 87.2369C69.5895 87.2711 69.6338 87.32 69.6624 87.378Z" fill="#D7E8F0"/>
<path d="M43.3154 92.123H61.0345" stroke="#CCDDE2" stroke-width="0.44154" stroke-miterlimit="10"/>
<path d="M43.3154 94.6077H61.0345" stroke="#CCDDE2" stroke-width="0.44154" stroke-miterlimit="10"/>
<path d="M37.204 31.3044C36.6694 34.0467 35.4853 46.1742 34.423 57.7671C34.3881 57.7939 34.3513 57.8184 34.3132 57.8404C34.2359 57.8889 34.1587 57.9394 34.0785 57.982C34.0785 57.982 34.0726 57.982 34.0686 57.9889C34.0667 57.9882 34.0646 57.9882 34.0627 57.9889L33.9181 58.0691L33.8597 58.0988C33.7984 58.1305 33.7409 58.1592 33.6796 58.1849L33.6607 58.1948C33.6122 58.2176 33.5617 58.2404 33.5093 58.2592L33.4321 58.2948C33.3707 58.3176 33.3063 58.3433 33.2449 58.3651L33.0806 58.4235C33.0533 58.4303 33.0265 58.4389 33.0004 58.4492C32.9489 58.4651 32.9014 58.4809 32.846 58.4938C32.8272 58.5007 32.8074 58.5037 32.7886 58.5106C32.7202 58.5294 32.65 58.5463 32.5787 58.5621C32.5074 58.5779 32.45 58.5908 32.3807 58.6037C32.3715 58.6073 32.3618 58.6096 32.352 58.6106C32.3454 58.6121 32.3387 58.6121 32.3322 58.6106C32.2619 58.6235 32.1906 58.6364 32.1233 58.6463C32.1104 58.6463 32.0975 58.6463 32.0817 58.6522C31.9975 58.6651 31.9144 58.675 31.8302 58.6809C31.7461 58.6869 31.656 58.6977 31.5659 58.7007C31.4758 58.7037 31.3857 58.7067 31.2956 58.7067C30.872 58.7086 30.4496 58.6624 30.0364 58.569C29.0255 58.336 28.0976 57.8312 27.3528 57.1092C26.6079 56.3872 26.0745 55.4755 25.81 54.4724C25.7883 54.3734 25.7655 54.2744 25.7457 54.1754C25.668 53.8016 25.6292 53.4207 25.6299 53.0389C25.6304 53.3724 25.6016 53.7054 25.5437 54.0339C25.518 54.1814 25.4853 54.3239 25.4447 54.4685C25.1284 55.6825 24.4183 56.7573 23.4256 57.5245C22.4329 58.2917 21.2137 58.7079 19.9591 58.7079C18.7046 58.7079 17.4854 58.2917 16.4927 57.5245C15.5 56.7573 14.7899 55.6825 14.4736 54.4685C14.4148 54.2442 14.3709 54.0163 14.3419 53.7864C14.3092 53.5385 14.293 53.2888 14.2934 53.0389C14.2922 53.2951 14.275 53.5511 14.2419 53.8052C14.2109 54.0286 14.1669 54.2501 14.1102 54.4685C13.8024 55.6418 13.1269 56.6858 12.1827 57.4474C11.2385 58.209 10.0752 58.6482 8.86322 58.7007C8.78303 58.7007 8.70284 58.7067 8.62265 58.7067C7.12171 58.7051 5.68273 58.108 4.62159 57.0465C3.56045 55.985 2.96387 54.5458 2.96282 53.0448V53.0359H2.94995V47.6028C2.94956 46.9818 3.07159 46.3668 3.30907 45.7929C3.54655 45.2191 3.89482 44.6977 4.33395 44.2586C4.77309 43.8194 5.29448 43.4712 5.86831 43.2337C6.44214 42.9962 7.05716 42.8742 7.67819 42.8746H30.3007C30.5895 42.8746 30.8665 42.7598 31.0707 42.5556C31.275 42.3514 31.3897 42.0744 31.3897 41.7856C31.3897 41.4968 31.275 41.2198 31.0707 41.0155C30.8665 40.8113 30.5895 40.6966 30.3007 40.6966H20.9947C20.483 40.6963 19.9923 40.4933 19.6299 40.1321C19.2675 39.7708 19.063 39.2807 19.0612 38.769V33.233C19.0623 32.7218 19.2658 32.2319 19.6272 31.8704C19.9887 31.509 20.4786 31.3055 20.9897 31.3044H37.204Z" stroke="#CCDDE2" stroke-width="0.44154" stroke-miterlimit="10"/>
<path d="M65.4981 99.1028L8.53446 99.2207C8.02382 99.2194 7.53446 99.016 7.17329 98.655C6.81211 98.294 6.6085 97.8048 6.60693 97.2941V58.3396C7.25232 58.5864 7.93755 58.7126 8.62851 58.7118C8.7087 58.7118 8.7879 58.7118 8.86809 58.7059C10.344 58.6471 11.738 58.0119 12.7509 56.9368" stroke="#CCDDE2" stroke-width="0.44154" stroke-miterlimit="10"/>
<path d="M26.4753 56.0203C26.8709 56.6602 27.3896 57.2152 28.0014 57.653C28.6132 58.0908 29.306 58.4027 30.0393 58.5705" stroke="#CCDDE2" stroke-width="0.44154" stroke-miterlimit="10"/>
<path d="M33.4557 91.3157H22.3291" stroke="#CCDDE2" stroke-width="0.44154" stroke-miterlimit="10"/>
<path d="M10.3286 91.2556C9.91207 91.1506 9.54241 90.9097 9.27812 90.571C9.01383 90.2323 8.87 89.8151 8.86938 89.3855V58.7074C10.3449 58.6457 11.7379 58.0097 12.7512 56.9353" stroke="#CCDDE2" stroke-width="0.44154" stroke-miterlimit="10"/>
<path d="M26.4753 56.0203C26.8709 56.6602 27.3896 57.2152 28.0014 57.653C28.6132 58.0908 29.306 58.4027 30.0393 58.5705" stroke="#CCDDE2" stroke-width="0.44154" stroke-miterlimit="10"/>
<path d="M15.622 78.6314C15.2176 78.2703 14.8939 77.8279 14.6722 77.3332C14.4504 76.8385 14.3355 76.3025 14.335 75.7604V66.3554C14.3384 65.3324 14.7462 64.3523 15.4696 63.629C16.1929 62.9056 17.173 62.4978 18.196 62.4944H27.0881C28.1111 62.4978 29.0912 62.9056 29.8145 63.629C30.5379 64.3523 30.9457 65.3324 30.9491 66.3554V75.7604C30.9457 76.7833 30.5379 77.7634 29.8145 78.4868C29.0912 79.2101 28.1111 79.618 27.0881 79.6214H21.7233" stroke="#CCDDE2" stroke-width="0.44154" stroke-miterlimit="10"/>
<path d="M54.9419 67.5928C55.223 66.9166 55.4943 66.382 55.6547 66.0811C55.6941 66.0076 55.7031 65.9217 55.6798 65.8417C55.6565 65.7617 55.6026 65.6941 55.5299 65.6534L53.8291 64.9366C53.763 64.8993 53.6883 64.8799 53.6123 64.8804C53.5364 64.8809 53.4619 64.9013 53.3963 64.9396C53.3307 64.9778 53.2763 65.0326 53.2385 65.0984C53.2006 65.1643 53.1807 65.2389 53.1807 65.3148V65.3148C53.1807 66.7998 52.755 68.1987 51.27 68.1987C49.785 68.1987 49.3583 66.7998 49.3583 65.3148V65.2504C49.3586 65.1773 49.3404 65.1052 49.3054 65.0409C49.2705 64.9766 49.2198 64.9222 49.1582 64.8827C49.0966 64.8432 49.026 64.8199 48.953 64.815C48.88 64.81 48.8069 64.8236 48.7405 64.8544L47.005 65.4989C46.9622 65.5186 46.9242 65.5476 46.8939 65.5838C46.8636 65.6199 46.8416 65.6623 46.8297 65.708C46.8178 65.7536 46.8161 65.8014 46.8249 65.8477C46.8336 65.8941 46.8526 65.938 46.8803 65.9761L46.9041 66.0088C47.8353 67.3094 48.4065 68.8328 48.56 70.425C48.7135 72.0172 48.4438 73.6217 47.7782 75.0762L47.1654 76.4226C47.1222 76.5178 47.1035 76.6223 47.1112 76.7266C47.1188 76.8309 47.1525 76.9316 47.2091 77.0194C47.2658 77.1073 47.3436 77.1796 47.4354 77.2296C47.5272 77.2796 47.6301 77.3058 47.7347 77.3057H55.2834C55.3897 77.3056 55.4941 77.2784 55.5869 77.2267C55.6798 77.175 55.7578 77.1005 55.8138 77.0102C55.8698 76.9199 55.9019 76.8169 55.9069 76.7108C55.912 76.6046 55.8899 76.499 55.8428 76.4038L55.2022 75.1108C54.6243 73.949 54.302 72.6769 54.2571 71.38C54.2122 70.0832 54.4457 68.7918 54.9419 67.5928V67.5928Z" stroke="#CCDDE2" stroke-width="0.44154" stroke-miterlimit="10"/>
<path d="M48.582 71.8816H54.2914" stroke="#CCDDE2" stroke-width="0.44154" stroke-miterlimit="10"/>
<path d="M49.8691 71.8823C49.8959 72.8545 49.879 75.3572 49.0771 77.3016" stroke="#CCDDE2" stroke-width="0.44154" stroke-miterlimit="10"/>
<path d="M53.7894 77.3016C52.9885 75.3572 52.9727 72.8545 52.9974 71.8823" stroke="#CCDDE2" stroke-width="0.44154" stroke-miterlimit="10"/>
<path d="M51.4373 77.3016V71.8823" stroke="#CCDDE2" stroke-width="0.44154" stroke-miterlimit="10"/>
<path d="M28.0348 69.3812L26.1885 70.4494L25.6786 69.8198L26.0954 76.428C26.1016 76.5404 26.0848 76.6528 26.046 76.7585C26.0073 76.8642 25.9474 76.9608 25.87 77.0425C25.7927 77.1243 25.6994 77.1894 25.596 77.2338C25.4927 77.2783 25.3813 77.3012 25.2687 77.3012H19.7366C19.6235 77.3011 19.5115 77.2779 19.4077 77.2329C19.3038 77.1879 19.2103 77.122 19.133 77.0395C19.0556 76.9569 18.9959 76.8593 18.9578 76.7528C18.9196 76.6462 18.9037 76.533 18.911 76.4201L19.406 69.6227L18.9011 70.2514L17.2507 69.1832C17.2507 69.1703 17.2507 69.1584 17.2507 69.1466C17.321 67.7091 18.7575 65.8142 20.197 65.8142H21.2196C21.2493 65.8716 21.2754 65.9308 21.2979 65.9914C21.7523 67.223 23.6739 67.1794 24.06 65.9449C24.0738 65.8993 24.0887 65.8548 24.1045 65.8142H24.751C26.3637 65.8142 27.7685 67.7437 28.0259 69.3346C28.0308 69.3525 28.0328 69.3673 28.0348 69.3812Z" stroke="#CCDDE2" stroke-width="0.44154" stroke-miterlimit="10"/>
<path d="M23.7972 37.6628C22.9715 37.6628 22.5171 37.0431 22.5171 36.3045C22.5171 35.5303 23.023 34.9136 23.8407 34.9136C24.6981 34.9136 25.1327 35.5501 25.1327 36.261C25.1327 37.1183 24.6189 37.6628 23.8011 37.6628H23.7972ZM23.8328 37.0985C24.1763 37.0985 24.3773 36.7659 24.3773 36.2847C24.3773 35.8264 24.1724 35.4789 23.8249 35.4789C23.4774 35.4789 23.2715 35.8264 23.2715 36.2887C23.2715 36.751 23.4813 37.0985 23.8249 37.0985H23.8328Z" fill="#D7E8F0"/>
<path d="M25.511 37.3219V35.4805C25.511 35.4118 25.5245 35.3437 25.5509 35.2802C25.5772 35.2167 25.6158 35.1591 25.6644 35.1105C25.7131 35.062 25.7708 35.0235 25.8344 34.9973C25.8979 34.9711 25.966 34.9576 26.0347 34.9578C26.1306 34.9577 26.2247 34.9841 26.3067 35.0341C26.3886 35.084 26.4551 35.1556 26.499 35.2409L26.7752 35.7755C26.9357 36.0766 27.0756 36.3881 27.194 36.7081H27.2049C27.1659 36.3365 27.1477 35.963 27.1504 35.5894V35.2558C27.1504 35.177 27.1817 35.1014 27.2374 35.0457C27.2931 34.99 27.3687 34.9588 27.4474 34.9588H27.5019C27.5806 34.9588 27.6562 34.99 27.7119 35.0457C27.7676 35.1014 27.7989 35.177 27.7989 35.2558V37.3219C27.7989 37.4007 27.7676 37.4762 27.7119 37.5319C27.6562 37.5876 27.5806 37.6189 27.5019 37.6189H27.2346C27.1797 37.619 27.1258 37.6039 27.079 37.5752C27.0321 37.5466 26.9941 37.5055 26.9693 37.4565L26.598 36.7338C26.4515 36.4527 26.2782 36.0933 26.1515 35.7735H26.1357C26.1555 36.1329 26.1634 36.5319 26.1634 36.9615V37.3189C26.1634 37.3977 26.1321 37.4732 26.0764 37.5289C26.0207 37.5846 25.9452 37.6159 25.8664 37.6159H25.811C25.772 37.6163 25.7333 37.609 25.6971 37.5944C25.6609 37.5799 25.6279 37.5583 25.6001 37.531C25.5722 37.5037 25.55 37.4712 25.5347 37.4353C25.5194 37.3994 25.5114 37.3609 25.511 37.3219Z" fill="#D7E8F0"/>
<path d="M28.5912 34.9578H28.709C28.7878 34.9578 28.8633 34.9891 28.919 35.0448C28.9747 35.1005 29.006 35.176 29.006 35.2548V36.7249C29.006 36.8037 29.0373 36.8792 29.093 36.9349C29.1487 36.9906 29.2242 37.0219 29.303 37.0219H29.7297C29.8085 37.0219 29.884 37.0532 29.9397 37.1089C29.9954 37.1646 30.0267 37.2401 30.0267 37.3189C30.0267 37.3977 29.9954 37.4732 29.9397 37.5289C29.884 37.5846 29.8085 37.6159 29.7297 37.6159H28.5912C28.5124 37.6159 28.4369 37.5846 28.3812 37.5289C28.3255 37.4732 28.2942 37.3977 28.2942 37.3189V35.2558C28.2941 35.2167 28.3016 35.1779 28.3165 35.1418C28.3314 35.1056 28.3532 35.0728 28.3808 35.0451C28.4084 35.0174 28.4412 34.9955 28.4773 34.9805C28.5134 34.9655 28.5521 34.9578 28.5912 34.9578Z" fill="#D7E8F0"/>
<path d="M31.0979 35.3152V37.2625C31.0979 37.3575 31.0601 37.4487 30.9929 37.5159C30.9257 37.5831 30.8345 37.6209 30.7395 37.6209C30.6446 37.6206 30.5537 37.5827 30.4867 37.5155C30.4197 37.4484 30.3821 37.3574 30.3821 37.2625V35.3152C30.3821 35.2682 30.3913 35.2217 30.4093 35.1784C30.4272 35.135 30.4536 35.0956 30.4868 35.0624C30.5199 35.0293 30.5593 35.0029 30.6027 34.985C30.6461 34.967 30.6925 34.9578 30.7395 34.9578C30.8343 34.9578 30.9254 34.9954 30.9925 35.0624C31.0597 35.1294 31.0976 35.2203 31.0979 35.3152Z" fill="#D7E8F0"/>
<path d="M31.5867 37.2942V35.4241C31.5867 35.3626 31.5988 35.3017 31.6224 35.2449C31.6461 35.1882 31.6807 35.1366 31.7243 35.0933C31.7679 35.05 31.8197 35.0157 31.8766 34.9924C31.9335 34.9692 31.9944 34.9574 32.0559 34.9578H32.148C32.2335 34.9578 32.3174 34.9813 32.3904 35.0259C32.4634 35.0704 32.5227 35.1342 32.5618 35.2102L32.8539 35.7755C33.0139 36.0768 33.1538 36.3883 33.2726 36.7081H33.2845C33.2452 36.3365 33.2267 35.963 33.2291 35.5894V35.2835C33.2291 35.2406 33.2375 35.1982 33.254 35.1586C33.2704 35.119 33.2945 35.0831 33.3248 35.0528C33.3552 35.0226 33.3912 34.9986 33.4308 34.9823C33.4705 34.966 33.5129 34.9576 33.5558 34.9578C33.5986 34.9578 33.6409 34.9662 33.6804 34.9826C33.7199 34.9989 33.7558 35.0229 33.7861 35.0532C33.8163 35.0834 33.8403 35.1193 33.8567 35.1588C33.8731 35.1984 33.8815 35.2407 33.8815 35.2835V37.1546C33.8815 37.2783 33.8324 37.3969 33.7449 37.4843C33.6575 37.5717 33.5389 37.6209 33.4152 37.6209C33.3294 37.6209 33.2453 37.5972 33.1722 37.5525C33.099 37.5078 33.0395 37.4437 33.0004 37.3674L32.6767 36.7358C32.5301 36.4547 32.3559 36.0953 32.2302 35.7755H32.2143C32.2341 36.1349 32.242 36.5339 32.242 36.9635V37.2932C32.242 37.3798 32.2076 37.4629 32.1464 37.5242C32.0851 37.5855 32.002 37.6199 31.9153 37.6199C31.8724 37.6201 31.8297 37.6119 31.7899 37.5957C31.7501 37.5794 31.7139 37.5555 31.6834 37.5252C31.6529 37.495 31.6286 37.459 31.612 37.4193C31.5954 37.3797 31.5868 37.3372 31.5867 37.2942Z" fill="#D7E8F0"/>
<path d="M35.7546 36.5455H35.3319C35.2997 36.5455 35.2678 36.5519 35.2381 36.5642C35.2083 36.5766 35.1813 36.5947 35.1586 36.6175C35.1359 36.6403 35.1179 36.6674 35.1057 36.6972C35.0934 36.7269 35.0872 36.7589 35.0874 36.791C35.0874 36.8559 35.1131 36.9181 35.159 36.964C35.2048 37.0098 35.267 37.0356 35.3319 37.0356H35.8694C35.9459 37.0356 36.0191 37.0659 36.0732 37.12C36.1272 37.174 36.1575 37.2473 36.1575 37.3237V37.3316C36.1577 37.3695 36.1503 37.4071 36.1359 37.4421C36.1215 37.4772 36.1003 37.5091 36.0735 37.5359C36.0467 37.5628 36.0149 37.5841 35.9799 37.5986C35.9449 37.6132 35.9074 37.6207 35.8694 37.6207H34.6171C34.5849 37.6207 34.5529 37.6143 34.5231 37.602C34.4934 37.5896 34.4663 37.5716 34.4435 37.5488C34.4207 37.526 34.4026 37.4989 34.3903 37.4691C34.3779 37.4393 34.3716 37.4074 34.3716 37.3751V35.1635C34.3716 35.0984 34.3974 35.0359 34.4435 34.9899C34.4895 34.9438 34.552 34.918 34.6171 34.918H35.818C35.8558 34.918 35.8933 34.9254 35.9282 34.9399C35.9632 34.9544 35.9949 34.9756 36.0217 35.0023C36.0484 35.0291 36.0697 35.0609 36.0841 35.0958C36.0986 35.1308 36.1061 35.1682 36.1061 35.2061V35.215C36.1058 35.2912 36.0753 35.3642 36.0213 35.418C35.9673 35.4719 35.8942 35.5021 35.818 35.5021H35.323C35.2613 35.5021 35.2021 35.5266 35.1585 35.5702C35.1148 35.6138 35.0903 35.673 35.0903 35.7347C35.0903 35.7964 35.1148 35.8556 35.1585 35.8992C35.2021 35.9429 35.2613 35.9674 35.323 35.9674H35.7576C35.7955 35.9674 35.833 35.9749 35.8681 35.9894C35.9031 36.0039 35.9349 36.0252 35.9616 36.0521C35.9884 36.079 36.0096 36.1108 36.024 36.1459C36.0384 36.181 36.0458 36.2185 36.0457 36.2564C36.0458 36.2946 36.0384 36.3324 36.0237 36.3677C36.0091 36.403 35.9877 36.435 35.9606 36.4619C35.9335 36.4888 35.9014 36.51 35.866 36.5244C35.8306 36.5387 35.7928 36.5459 35.7546 36.5455Z" fill="#D7E8F0"/>
<path d="M37.303 37.2366C37.3124 37.1976 37.3296 37.1609 37.3536 37.1287C37.3776 37.0965 37.4078 37.0695 37.4425 37.0493C37.4772 37.0292 37.5156 37.0162 37.5555 37.0113C37.5953 37.0064 37.6357 37.0096 37.6743 37.0208C37.8033 37.0561 37.9365 37.0744 38.0703 37.0752C38.3158 37.0752 38.4336 36.9921 38.4336 36.8574C38.4336 36.7228 38.3158 36.6594 38.0148 36.5535C37.5654 36.3921 37.2644 36.1466 37.2644 35.7516C37.2644 35.2813 37.6604 34.918 38.3356 34.918C38.4813 34.917 38.6266 34.9316 38.7692 34.9616C38.8073 34.9704 38.8433 34.9869 38.8749 35.01C38.9065 35.0332 38.9331 35.0624 38.9531 35.0961C38.973 35.1298 38.986 35.1671 38.9912 35.206C38.9963 35.2448 38.9935 35.2842 38.983 35.3219C38.9647 35.3955 38.9183 35.4589 38.8536 35.4986C38.789 35.5382 38.7114 35.5508 38.6375 35.5338C38.5359 35.5104 38.4319 35.4988 38.3277 35.4991C38.1099 35.4991 37.9921 35.5774 37.9921 35.6971C37.9921 35.8318 38.1336 35.8833 38.4692 36.009C38.9474 36.1872 39.1622 36.4406 39.1622 36.8119C39.1622 37.2693 38.8058 37.6603 38.0277 37.6603C37.8527 37.6596 37.6785 37.6373 37.5089 37.594C37.4367 37.5727 37.3753 37.5248 37.337 37.4599C37.2988 37.395 37.2866 37.318 37.303 37.2445V37.2366Z" fill="#D7E8F0"/>
<path d="M39.7683 35.5581H39.6891C39.6103 35.5581 39.5348 35.5268 39.4791 35.4711C39.4234 35.4154 39.3921 35.3399 39.3921 35.2611C39.3921 35.1823 39.4234 35.1068 39.4791 35.0511C39.5348 34.9954 39.6103 34.9641 39.6891 34.9641H41.1741C41.2529 34.9641 41.3284 34.9954 41.3841 35.0511C41.4398 35.1068 41.4711 35.1823 41.4711 35.2611C41.4711 35.3399 41.4398 35.4154 41.3841 35.4711C41.3284 35.5268 41.2529 35.5581 41.1741 35.5581H41.083C41.0042 35.5581 40.9287 35.5894 40.873 35.6451C40.8173 35.7008 40.786 35.7763 40.786 35.8551V37.3163C40.786 37.3951 40.7547 37.4707 40.699 37.5264C40.6433 37.5821 40.5678 37.6133 40.489 37.6133H40.3722C40.2934 37.6133 40.2179 37.5821 40.1622 37.5264C40.1065 37.4707 40.0752 37.3951 40.0752 37.3163V35.8581C40.0756 35.818 40.0679 35.7782 40.0525 35.7412C40.0372 35.7041 40.0145 35.6706 39.9858 35.6425C39.9571 35.6145 39.9231 35.5926 39.8857 35.5781C39.8483 35.5636 39.8084 35.5568 39.7683 35.5581Z" fill="#D7E8F0"/>
<path d="M42.8528 37.6628C42.0272 37.6628 41.5728 37.0431 41.5728 36.3045C41.5728 35.5303 42.0786 34.9136 42.8964 34.9136C43.7537 34.9136 44.1883 35.5501 44.1883 36.261C44.1883 37.1183 43.6745 37.6628 42.8568 37.6628H42.8528ZM42.8885 37.0985C43.232 37.0985 43.434 36.7659 43.434 36.2847C43.434 35.8264 43.228 35.4789 42.8805 35.4789C42.5331 35.4789 42.3271 35.8264 42.3271 36.2887C42.3271 36.751 42.537 37.0985 42.8805 37.0985H42.8885Z" fill="#D7E8F0"/>
<path d="M44.5676 35.2248C44.5673 35.1612 44.5906 35.0998 44.633 35.0524C44.6755 35.005 44.734 34.9751 44.7973 34.9684C44.9745 34.9506 45.1933 34.9377 45.4289 34.9377C45.8358 34.9377 46.1279 34.9932 46.3298 35.1466C46.4164 35.2149 46.4853 35.3029 46.5306 35.4034C46.5759 35.5039 46.5964 35.6138 46.5902 35.7238C46.5859 35.8639 46.5405 35.9997 46.4598 36.1143C46.379 36.2288 46.2663 36.3172 46.1358 36.3683V36.3802C46.31 36.4584 46.409 36.6287 46.4754 36.8574C46.5041 36.9564 46.5338 37.0682 46.5615 37.1771C46.5753 37.2294 46.5769 37.2842 46.5662 37.3372C46.5555 37.3902 46.5327 37.44 46.4998 37.4829C46.4668 37.5257 46.4244 37.5604 46.3759 37.5843C46.3274 37.6082 46.274 37.6206 46.2199 37.6206H46.213C46.137 37.621 46.0629 37.5967 46.0018 37.5513C45.9408 37.506 45.8961 37.4421 45.8744 37.3692C45.8447 37.2702 45.8121 37.1504 45.7754 37.0039C45.7041 36.6881 45.6052 36.6207 45.3844 36.6207H45.2695V37.2662C45.2698 37.3584 45.2341 37.4471 45.1699 37.5133C45.1057 37.5796 45.0182 37.6181 44.926 37.6206C44.8795 37.6206 44.8335 37.6115 44.7905 37.5936C44.7476 37.5758 44.7086 37.5497 44.6757 37.5168C44.6429 37.4839 44.6169 37.4448 44.5992 37.4018C44.5815 37.3588 44.5724 37.3127 44.5726 37.2662L44.5676 35.2248ZM45.2745 36.1069H45.4606C45.7289 36.1069 45.8833 35.9772 45.8833 35.7792C45.8833 35.5812 45.7527 35.4674 45.516 35.4674C45.4352 35.4648 45.3543 35.4701 45.2745 35.4832V36.1069Z" fill="#D7E8F0"/>
<path d="M48.3909 36.5456H47.9652C47.9329 36.5456 47.901 36.5519 47.8712 36.5643C47.8414 36.5766 47.8144 36.5947 47.7916 36.6175C47.7688 36.6403 47.7507 36.6673 47.7384 36.6971C47.726 36.7269 47.7197 36.7588 47.7197 36.7911C47.7199 36.856 47.7459 36.9182 47.7919 36.9641C47.8379 37.0099 47.9002 37.0356 47.9652 37.0356H48.5018C48.5777 37.0364 48.6502 37.0671 48.7036 37.121C48.7569 37.175 48.7869 37.2478 48.7869 37.3237V37.3316C48.7869 37.3696 48.7794 37.4072 48.7649 37.4423C48.7504 37.4773 48.7291 37.5092 48.7022 37.536C48.6754 37.5629 48.6435 37.5842 48.6084 37.5987C48.5734 37.6132 48.5358 37.6207 48.4978 37.6207H47.2494C47.2172 37.6207 47.1853 37.6144 47.1556 37.602C47.1259 37.5897 47.0989 37.5716 47.0762 37.5487C47.0534 37.5259 47.0354 37.4989 47.0232 37.4691C47.011 37.4393 47.0048 37.4074 47.0049 37.3752V35.2378C47.0048 35.1978 47.0125 35.1582 47.0277 35.1212C47.043 35.0842 47.0653 35.0506 47.0936 35.0222C47.1218 34.9939 47.1553 34.9714 47.1923 34.9561C47.2292 34.9408 47.2688 34.9329 47.3088 34.9329H48.4463C48.523 34.9329 48.5965 34.9633 48.6507 35.0175C48.7049 35.0717 48.7354 35.1453 48.7354 35.2219V35.2299C48.7354 35.2678 48.7279 35.3053 48.7134 35.3403C48.6988 35.3754 48.6775 35.4072 48.6507 35.4339C48.6238 35.4607 48.5919 35.4819 48.5569 35.4963C48.5218 35.5107 48.4842 35.5181 48.4463 35.518H47.9454C47.8855 35.518 47.8281 35.5417 47.7858 35.5841C47.7434 35.6264 47.7197 35.6838 47.7197 35.7437C47.7197 35.7733 47.7255 35.8026 47.7369 35.8299C47.7482 35.8572 47.7649 35.882 47.7858 35.9029C47.8068 35.9238 47.8317 35.9403 47.8591 35.9516C47.8865 35.9628 47.9158 35.9685 47.9454 35.9684H48.3909C48.4674 35.9687 48.5407 35.9992 48.5947 36.0534C48.6487 36.1076 48.679 36.181 48.679 36.2575C48.679 36.3339 48.6486 36.4072 48.5946 36.4612C48.5406 36.5152 48.4673 36.5456 48.3909 36.5456Z" fill="#D7E8F0"/>
<path d="M16.2765 83.3813C16.5864 83.1299 16.9467 82.8982 17.1962 82.62C17.8951 81.8379 17.6259 80.838 18.0743 79.9826C18.6198 78.9362 20.3365 78.2056 22.0225 78.2996C21.8628 78.7933 21.7533 79.3017 21.6958 79.8173C21.6463 80.2757 21.766 80.7865 21.6344 81.23C21.4195 81.9448 20.2741 82.3775 20.1345 83.111C20.0118 83.7595 20.7701 84.3654 20.6444 85.0247C20.5117 85.7326 19.4237 86.1236 19.0237 86.7493C18.697 87.2582 18.8505 87.8383 18.6812 88.3818C18.4763 89.0352 17.7655 89.6134 16.8339 89.8846L16.7418 89.9114C16.3995 89.6182 16.1058 89.2727 15.8716 88.8877" stroke="#CCDDE2" stroke-width="0.44154" stroke-miterlimit="10"/>
<path d="M20.9926 79.1233C18.478 81.6884 17.2949 87.0968 16.8346 89.8866C16.797 90.1222 16.7633 90.338 16.7356 90.532" stroke="#CCDDE2" stroke-width="0.44154" stroke-miterlimit="10"/>
<path d="M21.2246 92.1047L20.0673 98.5734C20.0351 98.755 19.94 98.9195 19.7986 99.0379C19.6572 99.1563 19.4785 99.2211 19.2941 99.2209H13.2462C13.0601 99.2208 12.88 99.1547 12.7381 99.0343C12.5961 98.9139 12.5015 98.7471 12.471 98.5635L11.4048 92.1047H21.2246Z" stroke="#CCDDE2" stroke-width="0.44154" stroke-miterlimit="10"/>
<path d="M22.3241 91.3824C22.3079 91.579 22.2184 91.7624 22.0734 91.8961C21.9283 92.0297 21.7383 92.104 21.541 92.1041H11.1093C10.914 92.104 10.7256 92.0311 10.581 91.8997C10.4364 91.7683 10.3459 91.5878 10.3272 91.3933V91.3933C10.3169 91.2843 10.3294 91.1744 10.364 91.0706C10.3986 90.9667 10.4545 90.8712 10.5282 90.7903C10.6018 90.7093 10.6915 90.6446 10.7916 90.6002C10.8917 90.5559 10.9999 90.533 11.1093 90.533H21.541C21.6495 90.533 21.7569 90.5555 21.8562 90.5991C21.9556 90.6427 22.0449 90.7064 22.1185 90.7862C22.1921 90.866 22.2483 90.9602 22.2837 91.0628C22.3191 91.1654 22.3328 91.2742 22.3241 91.3824V91.3824Z" stroke="#CCDDE2" stroke-width="0.44154" stroke-miterlimit="10"/>
<path d="M13.3758 81.8756C14.2994 84.6744 14.8311 87.7849 15.1023 89.7649C15.1308 89.7765 15.1599 89.7864 15.1895 89.7946C15.4564 89.5233 15.6861 89.2177 15.8726 88.8858C16.1024 88.5015 16.2893 88.0932 16.4299 87.6681C16.6279 87.0345 16.2795 86.3811 16.1963 85.7376C16.0973 84.9565 16.3943 84.1348 16.2794 83.3765C16.2794 83.3537 16.2715 83.328 16.2646 83.3012C16.2646 83.2903 16.2646 83.2745 16.2567 83.2597C16.2184 83.0661 16.1456 82.881 16.0419 82.7132C15.729 82.2004 15.1212 81.8341 14.7549 81.344C14.0836 80.4391 14.34 79.2818 13.9104 78.2899C13.782 77.9984 13.6004 77.7335 13.3748 77.5087C12.6204 76.7326 11.3611 76.2534 10.1167 76.3396C10.2721 76.9152 10.3781 77.5031 10.4335 78.0968C10.478 78.6294 10.3652 79.2214 10.4899 79.7343C10.6968 80.5639 11.7987 81.0648 11.9304 81.9123C12.0512 82.6627 11.3235 83.3686 11.4403 84.1299C11.572 84.9516 12.6125 85.405 12.9976 86.1287C13.3104 86.7167 13.1639 87.3959 13.3292 88.0216C13.3412 88.0716 13.3565 88.1209 13.3748 88.1691C13.3748 88.1691 13.6807 89.3412 15.1014 89.764" stroke="#CCDDE2" stroke-width="0.44154" stroke-miterlimit="10"/>
<path d="M15.2003 90.53C15.1746 90.3003 15.1409 90.0478 15.1013 89.7686C14.8301 87.7886 14.2984 84.6781 13.3748 81.8793C12.7897 80.1033 12.0472 78.4519 11.1086 77.2976" stroke="#CCDDE2" stroke-width="0.44154" stroke-miterlimit="10"/>
<path d="M14.7568 81.3465C14.7568 81.3465 14.9222 78.7646 16.3151 77.9805C17.708 77.1965 17.6783 81.597 17.6783 81.597" stroke="#CCDDE2" stroke-width="0.44154" stroke-miterlimit="10"/>
<path d="M16.2764 83.3813C16.2764 83.3813 15.9913 81.9042 16.4903 80.4519" stroke="#CCDDE2" stroke-width="0.44154" stroke-miterlimit="10"/>
<path d="M31.9212 45.52H8.14143C7.29395 45.52 6.60693 46.207 6.60693 47.0545V47.6475C6.60693 48.495 7.29395 49.182 8.14143 49.182H31.9212C32.7687 49.182 33.4557 48.495 33.4557 47.6475V47.0545C33.4557 46.207 32.7687 45.52 31.9212 45.52Z" stroke="#CCDDE2" stroke-width="0.44154" stroke-miterlimit="10"/>
<path d="M47.2139 26.2585C47.2139 26.2585 43.3331 26.3001 40.8532 30.0275C38.3732 33.7548 37.4337 38.2564 37.5921 43.7192L37.3159 55.1656C37.3159 55.1656 41.4313 55.7051 42.8193 53.8261C42.8193 53.8261 43.1282 52.2698 45.4438 50.9402L47.2139 26.2585Z" fill="#31AAB7"/>
<path d="M44.4913 79.0452L45.8506 80.2332V80.9153L45.4546 81.0509C45.4546 81.0509 43.5736 81.244 43.7231 80.9024C43.8726 80.5609 44.4913 79.0452 44.4913 79.0452Z" fill="#2E2E2E"/>
<path d="M39.3562 90.7977L35.6932 99.1028H26.3872C26.2126 99.1076 26.0389 99.0774 25.8762 99.0139C25.7135 98.9504 25.5652 98.8549 25.44 98.7332C25.3148 98.6114 25.2153 98.4658 25.1474 98.3049C25.0794 98.144 25.0444 97.9711 25.0444 97.7965C25.0444 97.6219 25.0794 97.449 25.1474 97.2881C25.2153 97.1272 25.3148 96.9816 25.44 96.8598C25.5652 96.738 25.7135 96.6426 25.8762 96.5791C26.0389 96.5156 26.2126 96.4854 26.3872 96.4902C27.758 96.4907 29.0862 96.014 30.1438 95.142C31.2015 94.2701 31.9227 93.0572 32.1836 91.7115L32.3618 90.7977C32.3727 90.7442 39.3562 90.7977 39.3562 90.7977Z" fill="black"/>
<path d="M64.5676 90.4469L59.8463 98.461C59.7634 98.6168 59.6498 98.7543 59.5123 98.865C59.3749 98.9758 59.2164 99.0575 59.0465 99.1053C58.8766 99.1532 58.6987 99.1661 58.5237 99.1433C58.3486 99.1205 58.18 99.0624 58.028 98.9727C57.876 98.8829 57.7438 98.7633 57.6393 98.621C57.5348 98.4788 57.4602 98.3168 57.42 98.1449C57.3798 97.973 57.3749 97.7948 57.4055 97.6209C57.4361 97.4471 57.5016 97.2812 57.598 97.1334C58.294 95.9529 58.5579 94.5673 58.3446 93.2136C58.1314 91.86 57.4541 90.6226 56.4288 89.7133C56.1011 89.4233 55.8348 89.1877 55.6843 89.056L60.564 84.8594L64.5676 90.4469Z" fill="black"/>
<path d="M65.5328 83.8999H45.8318V56.8263H45.8268C45.5853 52.7198 43.9181 52.1733 43.9181 52.1733L44.8091 51.4694C42.2797 39.7538 44.5121 31.1744 46.8881 26.2581C47.5849 24.7954 48.4252 23.4056 49.3968 22.109C49.4077 22.0942 49.4195 22.0823 49.4284 22.0684C49.5215 21.9464 49.6504 21.8566 49.7971 21.8116C49.9437 21.7666 50.1008 21.7687 50.2463 21.8175C50.3917 21.8663 50.5182 21.9594 50.6081 22.0838C50.6979 22.2082 50.7465 22.3575 50.7471 22.511L50.759 25.7384C54.7992 25.571 57.1703 30.1696 58.1444 33.4861C59.179 37.0145 59.1532 40.8745 58.3969 44.4236C58.105 45.8122 57.6456 47.1602 57.0287 48.4381L65.5328 83.8999Z" fill="#2E2E2E"/>
<path d="M42.8194 22.4675L38.4307 27.8017L40.0692 27.7927L37.3764 30.733C36.621 30.9716 32.365 81.0488 32.365 81.0488H34.2589L39.2762 55.2286C38.6233 55.3084 37.962 55.286 37.316 55.1623L37.6001 40.9865C37.7981 36.4374 39.6256 29.2183 44.1866 26.9562L44.2034 26.9473C44.3133 24.7227 44.8905 23.2655 44.8905 23.2655C43.7134 23.5278 42.8194 22.4675 42.8194 22.4675Z" fill="#2E2E2E"/>
<path d="M39.2762 55.2285L32.365 90.7972L32.1868 91.711C31.9251 93.056 31.2035 94.268 30.1459 95.1391C29.0883 96.0103 27.7606 96.4864 26.3904 96.4858V96.4858C26.2158 96.481 26.042 96.5112 25.8793 96.5747C25.7167 96.6382 25.5683 96.7336 25.4432 96.8554C25.318 96.9772 25.2185 97.1228 25.1506 97.2837C25.0826 97.4446 25.0476 97.6174 25.0476 97.7921C25.0476 97.9667 25.0826 98.1396 25.1506 98.3005C25.2185 98.4613 25.318 98.607 25.4432 98.7288C25.5683 98.8505 25.7167 98.946 25.8793 99.0095C26.042 99.073 26.2158 99.1032 26.3904 99.0984H35.6964L39.3594 90.7933L45.828 76.1343" stroke="black" stroke-width="0.44154" stroke-miterlimit="10"/>
<path d="M45.8269 56.8279V83.8994H65.5338L57.0278 48.4446" stroke="black" stroke-width="0.44154" stroke-miterlimit="10"/>
<path d="M50.7563 25.7388L46.9349 29.1048L50.7563 29.0246L50.8662 42.5985C50.8747 43.7538 50.6304 44.897 50.1504 45.948C49.6703 46.9989 48.9661 47.9321 48.0872 48.682L44.9549 51.355C41.3424 35.0616 46.7794 25.5427 49.4267 22.0678C49.5196 21.9456 49.6485 21.8556 49.7953 21.8104C49.9421 21.7653 50.0993 21.7674 50.2448 21.8164C50.3903 21.8654 50.5168 21.9588 50.6064 22.0835C50.6961 22.2082 50.7443 22.3578 50.7444 22.5114L50.7563 25.7388ZM50.7563 25.7388C54.7974 25.5715 57.1685 30.17 58.1427 33.4865C59.1772 37.0149 59.1505 40.8749 58.3951 44.424C57.9328 46.5872 57.0873 48.7058 55.8082 50.5214C54.6133 52.2114 53.0303 53.5647 51.5215 54.9705C50.9869 55.4655 50.4325 55.9387 49.8603 56.3931L45.8251 59.5225" stroke="black" stroke-width="0.44154" stroke-miterlimit="10"/>
<path d="M49.8484 19.8818C49.6957 20.0975 49.4932 20.2731 49.2581 20.3938C49.023 20.5144 48.7623 20.5765 48.498 20.5748C48.2694 20.578 48.0408 20.5654 47.8139 20.5372C47.5496 20.5026 47.4061 20.4303 47.5872 20.2986C47.6445 20.2559 47.6981 20.2085 47.7476 20.157C48.0673 19.8273 48.2908 19.4165 48.3941 18.969C48.5069 18.4691 48.3941 17.979 48.004 17.7108C47.9107 17.6469 47.8078 17.5984 47.6991 17.5672C47.5234 17.5131 47.342 17.4799 47.1585 17.4682C47.0665 17.4623 46.9714 17.4593 46.8774 17.4593C46.7784 16.8564 46.5527 16.008 46.0923 15.6545C45.98 15.5682 45.8463 15.514 45.7056 15.4978C45.5649 15.4816 45.4224 15.5039 45.2934 15.5625C44.6004 15.8268 43.5718 16.0307 43.0233 15.9248C42.9894 15.8903 42.9673 15.8459 42.96 15.7981C43.0364 15.607 43.1247 15.4208 43.2243 15.2407C43.331 15.0557 43.4501 14.8781 43.5807 14.7091C44.5638 13.4567 46.2824 12.8677 47.8377 13.1607C48.0859 13.2062 48.3288 13.2772 48.5624 13.3726C49.2772 13.7547 49.7781 14.3626 50.1028 15.0972C50.9948 17.5573 50.3998 19.0918 49.8484 19.8818Z" fill="#31AAB7"/>
<path d="M49.854 83.9004L55.6792 89.0613C55.8316 89.1929 56.096 89.4286 56.4236 89.7186C57.4485 90.6269 58.1259 91.8631 58.3401 93.2157C58.5543 94.5682 58.2919 95.9532 57.5978 97.1337C57.5108 97.2817 57.4538 97.4453 57.4301 97.6153C57.4063 97.7852 57.4163 97.9582 57.4594 98.1243C57.5026 98.2905 57.578 98.4465 57.6814 98.5834C57.7848 98.7204 57.9141 98.8357 58.0621 98.9226C58.21 99.0096 58.3737 99.0666 58.5436 99.0903C58.7136 99.1141 58.8866 99.1041 59.0527 99.061C59.2188 99.0179 59.3748 98.9425 59.5118 98.8391C59.6488 98.7357 59.764 98.6063 59.851 98.4583L64.5674 90.4473L60.5589 84.8627L59.8659 83.9034" stroke="black" stroke-width="0.44154" stroke-miterlimit="10"/>
<path d="M45.8247 80.3373L44.4912 79.1553" stroke="black" stroke-width="0.44154" stroke-miterlimit="10"/>
<path d="M42.8202 22.4668L38.4295 27.8029L40.068 27.793L37.3771 30.7323C37.3326 30.7452 37.2781 30.9442 37.2039 31.3045C36.6693 34.0468 35.4853 46.1743 34.423 57.7672C33.329 69.6908 32.3628 81.0491 32.3628 81.0491H34.2586" stroke="black" stroke-width="0.44154" stroke-miterlimit="10"/>
<path d="M45.8248 81.0491H43.6587" stroke="black" stroke-width="0.44154" stroke-miterlimit="10"/>
<path d="M45.8247 56.8267C44.1932 56.7891 43.42 56.108 43.0745 55.3269C42.5894 54.22 42.9686 52.9212 43.917 52.1737L44.9575 51.355" stroke="black" stroke-width="0.44154" stroke-miterlimit="10"/>
<path d="M42.8193 54.0478C42.8193 54.0478 40.0691 55.715 37.3159 55.1626L37.6 40.9868C37.8386 35.6269 40.3265 26.5605 46.8902 26.2585" stroke="black" stroke-width="0.44154" stroke-miterlimit="10"/>
<path d="M46.1556 22.7725C46.1556 22.7725 42.3134 25.1812 42.0966 19.6491C42.0313 17.9562 42.1055 15.9504 43.2034 14.5565C44.1865 13.3032 45.9052 12.7141 47.4604 13.0071C48.7474 13.2517 49.5672 14.0417 50.0295 15.0861" stroke="black" stroke-width="0.44154" stroke-miterlimit="10"/>
<path d="M45.825 56.8674C45.8265 56.8539 45.8265 56.8403 45.825 56.8268C45.5844 52.7203 43.9172 52.1738 43.9172 52.1738" stroke="black" stroke-width="0.29403" stroke-miterlimit="10"/>
<path d="M44.7549 23.2949L44.1807 26.9559" stroke="black" stroke-width="0.44154" stroke-miterlimit="10"/>
<path d="M42.847 15.0879C41.8124 16.2838 44.0281 16.0106 45.223 15.5532C46.2546 15.1572 46.6595 16.5798 46.807 17.4619" stroke="black" stroke-width="0.44154" stroke-miterlimit="10"/>
<path d="M49.3948 20.2632V22.1095" stroke="black" stroke-width="0.44154" stroke-miterlimit="10"/>
<path d="M43.3945 20.0087C43.7291 20.0087 44.0003 19.3895 44.0003 18.6257C44.0003 17.8619 43.7291 17.2427 43.3945 17.2427C43.0598 17.2427 42.7886 17.8619 42.7886 18.6257C42.7886 19.3895 43.0598 20.0087 43.3945 20.0087Z" stroke="black" stroke-width="0.29403" stroke-miterlimit="10"/>
<path d="M41.665 20.0087C41.9996 20.0087 42.2708 19.3895 42.2708 18.6257C42.2708 17.8619 41.9996 17.2427 41.665 17.2427C41.3303 17.2427 41.0591 17.8619 41.0591 18.6257C41.0591 19.3895 41.3303 20.0087 41.665 20.0087Z" stroke="black" stroke-width="0.29403" stroke-miterlimit="10"/>
<path d="M43.3945 20.0087C43.7291 20.0087 44.0003 19.3895 44.0003 18.6257C44.0003 17.8619 43.7291 17.2427 43.3945 17.2427C43.0598 17.2427 42.7886 17.8619 42.7886 18.6257C42.7886 19.3895 43.0598 20.0087 43.3945 20.0087Z" fill="black"/>
<path d="M41.665 20.0087C41.9996 20.0087 42.2708 19.3895 42.2708 18.6257C42.2708 17.8619 41.9996 17.2427 41.665 17.2427C41.3303 17.2427 41.0591 17.8619 41.0591 18.6257C41.0591 19.3895 41.3303 20.0087 41.665 20.0087Z" fill="black"/>
<path d="M43.9409 18.0294C44.5432 17.83 45.1589 17.6735 45.7833 17.5611C46.3773 17.4621 47.0426 17.376 47.6267 17.5552C48.2623 17.7532 48.4603 18.3472 48.3197 18.958C48.2184 19.4086 47.9963 19.8231 47.6772 20.1569C47.6271 20.2091 47.5728 20.2572 47.5148 20.3005C47.202 20.5301 47.8544 20.5767 48.4256 20.5767C48.69 20.5783 48.9508 20.5162 49.1861 20.3955C49.4213 20.2749 49.624 20.0993 49.777 19.8837C50.3284 19.0917 50.9234 17.5591 50.0294 15.0901" stroke="black" stroke-width="0.44154" stroke-miterlimit="10"/>
<path d="M47.3901 17.4978C47.2014 17.5907 47.0449 17.7382 46.941 17.921C46.837 18.1039 46.7903 18.3138 46.807 18.5234" stroke="black" stroke-width="0.44154" stroke-miterlimit="10"/>
<path d="M88.1571 -30.3948C87.2166 -28.9019 86.0247 -27.598 84.4941 -26.6863C83.5946 -26.1513 82.6048 -25.7852 81.5736 -25.6062C79.2432 -25.1973 76.789 -25.7131 74.6318 -26.7942C73.9239 -27.1478 73.2479 -27.5618 72.6112 -28.0317C72.1225 -28.3945 71.6554 -28.7856 71.2123 -29.2028C71.0143 -29.3919 70.8213 -29.586 70.6351 -29.7879C70.1016 -30.3606 69.6288 -30.987 69.2244 -31.657C68.6607 -32.5758 68.2629 -33.5864 68.0493 -34.6429L88.1571 -30.3948ZM91.5924 -0.435415V-43.0203H13.6794V-0.626484L39.1838 -0.502734L40.945 -0.494815L52.231 -0.437393L91.5924 -0.435415ZM13.6814 13.781H13.8586L13.6814 13.5662V13.781Z" stroke="#CCDDE2" stroke-width="0.57123" stroke-miterlimit="10"/>
</g>
</g>
<defs>
<clipPath id="clip0_878_16130">
<rect width="96" height="96" rx="48" fill="white"/>
</clipPath>
<clipPath id="clip1_878_16130">
<rect width="99" height="99" fill="white" transform="translate(-2 6)"/>
</clipPath>
</defs>
</svg>
