<svg width="104" height="40" viewBox="0 0 104 40" fill="none" xmlns="http://www.w3.org/2000/svg">
<g clip-path="url(#clip0_284:11729)">
<path d="M14.6546 4.7196L0.669251 18.6468C-0.0826215 19.3956 -0.0826215 20.6049 0.669251 21.3537L14.6546 35.2809C15.4064 36.0296 16.6208 36.0296 17.3727 35.2809L23.2365 29.4414C23.9099 28.7709 23.9099 27.6837 23.2365 27.0131C22.5632 26.3425 21.4715 26.3425 20.7981 27.0131L16.3528 31.44C16.1656 31.6263 15.8816 31.6263 15.6945 31.44L4.5262 20.3181C4.33906 20.1317 4.33906 19.8489 4.5262 19.6625L15.6945 8.54063C15.8816 8.35427 16.1656 8.35427 16.3528 8.54063L20.7981 12.9675C21.4715 13.6381 22.5632 13.6381 23.2365 12.9675C23.9099 12.2969 23.9099 11.2097 23.2365 10.5392L17.3733 4.70034C16.6184 3.96779 15.4035 3.97372 14.6546 4.7196Z" fill="url(#paint0_linear_284:11729)"/>
<path d="M14.6546 4.7196L0.669251 18.6468C-0.0826215 19.3956 -0.0826215 20.6049 0.669251 21.3537L14.6546 35.2809C15.4064 36.0296 16.6208 36.0296 17.3727 35.2809L23.2365 29.4414C23.9099 28.7709 23.9099 27.6837 23.2365 27.0131C22.5632 26.3425 21.4715 26.3425 20.7981 27.0131L16.3528 31.44C16.1656 31.6263 15.8816 31.6263 15.6945 31.44L4.5262 20.3181C4.33906 20.1317 4.33906 19.8489 4.5262 19.6625L15.6945 8.54063C16.1604 8.14026 16.9207 7.32932 18.0372 7.13965C18.867 6.99869 19.7741 7.30894 20.7586 8.07038C20.1004 7.41489 18.972 6.29154 17.3733 4.70034C16.6184 3.96779 15.4035 3.97372 14.6546 4.7196Z" fill="#0078CE"/>
<path d="M24.5897 25.7174C25.2631 26.388 26.3548 26.388 27.0282 25.7174L31.3536 21.4099C32.1055 20.6612 32.1055 19.4518 31.3537 18.7032L26.9905 14.3735C26.3156 13.7038 25.2235 13.7047 24.5498 14.3757C23.8764 15.0462 23.8764 16.1334 24.5498 16.804L27.4967 19.7387C27.6838 19.925 27.6838 20.2079 27.4967 20.3942L24.5897 23.2891C23.9164 23.9597 23.9164 25.0469 24.5897 25.7174Z" fill="#31AAB7"/>
<path d="M16.083 23.8298C18.1685 23.8298 19.8591 22.1462 19.8591 20.0694C19.8591 17.9926 18.1685 16.3091 16.083 16.3091C13.9976 16.3091 12.307 17.9926 12.307 20.0694C12.307 22.1462 13.9976 23.8298 16.083 23.8298Z" fill="#31AAB7"/>
</g>
<path d="M50.5137 16.256V18H42.1137V6.8H50.2897V8.544H44.1937V11.456H49.6017V13.168H44.1937V16.256H50.5137ZM64.7696 19.12C64.3962 19.5573 63.9589 19.888 63.4576 20.112C62.9669 20.336 62.4282 20.448 61.8416 20.448C61.0736 20.448 60.3696 20.272 59.7296 19.92C59.0896 19.5787 58.3589 18.9813 57.5376 18.128C56.5029 18.0427 55.5749 17.744 54.7536 17.232C53.9322 16.7093 53.2922 16.032 52.8336 15.2C52.3749 14.3573 52.1456 13.424 52.1456 12.4C52.1456 11.312 52.4069 10.3307 52.9296 9.456C53.4522 8.57067 54.1722 7.88267 55.0896 7.392C56.0069 6.89067 57.0362 6.64 58.1776 6.64C59.3189 6.64 60.3482 6.89067 61.2656 7.392C62.1829 7.88267 62.9029 8.56533 63.4256 9.44C63.9482 10.3147 64.2096 11.3013 64.2096 12.4C64.2096 13.2853 64.0336 14.1067 63.6816 14.864C63.3296 15.6107 62.8389 16.2507 62.2096 16.784C61.5802 17.3067 60.8496 17.6853 60.0176 17.92C60.3269 18.2507 60.6309 18.4907 60.9296 18.64C61.2282 18.7893 61.5482 18.864 61.8896 18.864C62.6256 18.864 63.2656 18.5653 63.8096 17.968L64.7696 19.12ZM54.2416 12.4C54.2416 13.1467 54.4122 13.824 54.7536 14.432C55.0949 15.0293 55.5642 15.4987 56.1616 15.84C56.7589 16.1707 57.4309 16.336 58.1776 16.336C58.9242 16.336 59.5962 16.1707 60.1936 15.84C60.7909 15.4987 61.2602 15.0293 61.6016 14.432C61.9429 13.824 62.1136 13.1467 62.1136 12.4C62.1136 11.6533 61.9429 10.9813 61.6016 10.384C61.2602 9.776 60.7909 9.30667 60.1936 8.976C59.5962 8.63467 58.9242 8.464 58.1776 8.464C57.4309 8.464 56.7589 8.63467 56.1616 8.976C55.5642 9.30667 55.0949 9.776 54.7536 10.384C54.4122 10.9813 54.2416 11.6533 54.2416 12.4ZM73.6821 15.408H68.0821L66.9781 18H64.8341L69.8741 6.8H71.9221L76.9781 18H74.8021L73.6821 15.408ZM72.9941 13.776L70.8821 8.88L68.7861 13.776H72.9941ZM85.8904 18L83.6024 14.72C83.5064 14.7307 83.3624 14.736 83.1704 14.736H80.6424V18H78.5624V6.8H83.1704C84.1411 6.8 84.9838 6.96 85.6984 7.28C86.4238 7.6 86.9784 8.05867 87.3624 8.656C87.7464 9.25333 87.9384 9.96267 87.9384 10.784C87.9384 11.6267 87.7304 12.352 87.3144 12.96C86.9091 13.568 86.3224 14.0213 85.5544 14.32L88.1304 18H85.8904ZM85.8424 10.784C85.8424 10.0693 85.6078 9.52 85.1384 9.136C84.6691 8.752 83.9811 8.56 83.0744 8.56H80.6424V13.024H83.0744C83.9811 13.024 84.6691 12.832 85.1384 12.448C85.6078 12.0533 85.8424 11.4987 85.8424 10.784ZM95.6576 18.16C94.5162 18.16 93.4869 17.9147 92.5696 17.424C91.6522 16.9227 90.9322 16.2347 90.4096 15.36C89.8869 14.4747 89.6256 13.488 89.6256 12.4C89.6256 11.312 89.8869 10.3307 90.4096 9.456C90.9322 8.57067 91.6522 7.88267 92.5696 7.392C93.4869 6.89067 94.5162 6.64 95.6576 6.64C96.7989 6.64 97.8282 6.89067 98.7456 7.392C99.6629 7.88267 100.383 8.56533 100.906 9.44C101.428 10.3147 101.69 11.3013 101.69 12.4C101.69 13.4987 101.428 14.4853 100.906 15.36C100.383 16.2347 99.6629 16.9227 98.7456 17.424C97.8282 17.9147 96.7989 18.16 95.6576 18.16ZM95.6576 16.336C96.4042 16.336 97.0762 16.1707 97.6736 15.84C98.2709 15.4987 98.7402 15.0293 99.0816 14.432C99.4229 13.824 99.5936 13.1467 99.5936 12.4C99.5936 11.6533 99.4229 10.9813 99.0816 10.384C98.7402 9.776 98.2709 9.30667 97.6736 8.976C97.0762 8.63467 96.4042 8.464 95.6576 8.464C94.9109 8.464 94.2389 8.63467 93.6416 8.976C93.0442 9.30667 92.5749 9.776 92.2336 10.384C91.8922 10.9813 91.7216 11.6533 91.7216 12.4C91.7216 13.1467 91.8922 13.824 92.2336 14.432C92.5749 15.0293 93.0442 15.4987 93.6416 15.84C94.2389 16.1707 94.9109 16.336 95.6576 16.336Z" fill="#31AAB7"/>
<path d="M45.2846 31.2H45.8526V33.336C45.5913 33.5653 45.2819 33.7413 44.9246 33.864C44.5673 33.9867 44.1913 34.048 43.7966 34.048C43.2366 34.048 42.7326 33.9253 42.2846 33.68C41.8366 33.4347 41.4846 33.096 41.2286 32.664C40.9726 32.2267 40.8446 31.7387 40.8446 31.2C40.8446 30.6613 40.9726 30.176 41.2286 29.744C41.4846 29.3067 41.8366 28.9653 42.2846 28.72C42.7326 28.4747 43.2393 28.352 43.8046 28.352C44.2313 28.352 44.6233 28.4213 44.9806 28.56C45.3379 28.6933 45.6393 28.8933 45.8846 29.16L45.5166 29.536C45.0739 29.0987 44.5113 28.88 43.8286 28.88C43.3753 28.88 42.9646 28.9813 42.5966 29.184C42.2339 29.3813 41.9486 29.6587 41.7406 30.016C41.5326 30.368 41.4286 30.7627 41.4286 31.2C41.4286 31.6373 41.5326 32.032 41.7406 32.384C41.9486 32.736 42.2339 33.0133 42.5966 33.216C42.9593 33.4187 43.3673 33.52 43.8206 33.52C44.3966 33.52 44.8846 33.376 45.2846 33.088V31.2ZM50.4241 34.048C49.6988 34.048 49.1334 33.84 48.7281 33.424C48.3228 33.008 48.1201 32.4027 48.1201 31.608V28.4H48.7121V31.584C48.7121 32.2347 48.8588 32.72 49.1521 33.04C49.4454 33.36 49.8694 33.52 50.4241 33.52C50.9841 33.52 51.4108 33.36 51.7041 33.04C51.9974 32.72 52.1441 32.2347 52.1441 31.584V28.4H52.7201V31.608C52.7201 32.4027 52.5174 33.008 52.1121 33.424C51.7121 33.84 51.1494 34.048 50.4241 34.048ZM58.5388 32.504H55.4188L54.7468 34H54.1308L56.6908 28.4H57.2748L59.8348 34H59.2108L58.5388 32.504ZM58.3228 32.024L56.9788 29.016L55.6348 32.024H58.3228ZM65.2252 34L63.9452 32.2C63.8012 32.216 63.6519 32.224 63.4972 32.224H61.9932V34H61.4012V28.4H63.4972C64.2119 28.4 64.7719 28.5707 65.1772 28.912C65.5826 29.2533 65.7852 29.7227 65.7852 30.32C65.7852 30.7573 65.6732 31.128 65.4492 31.432C65.2306 31.7307 64.9159 31.9467 64.5052 32.08L65.8732 34H65.2252ZM63.4812 31.72C64.0359 31.72 64.4599 31.5973 64.7532 31.352C65.0466 31.1067 65.1932 30.7627 65.1932 30.32C65.1932 29.8667 65.0466 29.52 64.7532 29.28C64.4599 29.0347 64.0359 28.912 63.4812 28.912H61.9932V31.72H63.4812ZM71.3345 32.504H68.2145L67.5425 34H66.9265L69.4865 28.4H70.0705L72.6305 34H72.0065L71.3345 32.504ZM71.1185 32.024L69.7745 29.016L68.4305 32.024H71.1185ZM78.8768 28.4V34H78.3888L74.7888 29.456V34H74.1968V28.4H74.6848L78.2928 32.944V28.4H78.8768ZM82.4327 28.912H80.4647V28.4H84.9927V28.912H83.0247V34H82.4327V28.912ZM90.5384 33.488V34H86.5784V28.4H90.4184V28.912H87.1704V30.904H90.0664V31.408H87.1704V33.488H90.5384ZM96.53 33.488V34H92.57V28.4H96.41V28.912H93.162V30.904H96.058V31.408H93.162V33.488H96.53ZM100.106 34.048C99.6895 34.048 99.2895 33.9813 98.9055 33.848C98.5269 33.7147 98.2335 33.5387 98.0255 33.32L98.2575 32.864C98.4602 33.0667 98.7295 33.232 99.0655 33.36C99.4015 33.4827 99.7482 33.544 100.106 33.544C100.607 33.544 100.983 33.4533 101.234 33.272C101.484 33.0853 101.61 32.8453 101.61 32.552C101.61 32.328 101.54 32.1493 101.402 32.016C101.268 31.8827 101.103 31.7813 100.906 31.712C100.708 31.6373 100.434 31.5573 100.082 31.472C99.6602 31.3653 99.3242 31.264 99.0735 31.168C98.8229 31.0667 98.6069 30.9147 98.4255 30.712C98.2495 30.5093 98.1615 30.2347 98.1615 29.888C98.1615 29.6053 98.2362 29.3493 98.3855 29.12C98.5349 28.8853 98.7642 28.6987 99.0735 28.56C99.3829 28.4213 99.7669 28.352 100.226 28.352C100.546 28.352 100.858 28.3973 101.162 28.488C101.471 28.5733 101.738 28.6933 101.962 28.848L101.762 29.32C101.527 29.1653 101.276 29.0507 101.01 28.976C100.743 28.896 100.482 28.856 100.226 28.856C99.7349 28.856 99.3642 28.952 99.1135 29.144C98.8682 29.3307 98.7455 29.5733 98.7455 29.872C98.7455 30.096 98.8122 30.2773 98.9455 30.416C99.0842 30.5493 99.2549 30.6533 99.4575 30.728C99.6655 30.7973 99.9429 30.8747 100.29 30.96C100.7 31.0613 101.031 31.1627 101.282 31.264C101.538 31.36 101.754 31.5093 101.93 31.712C102.106 31.9093 102.194 32.1787 102.194 32.52C102.194 32.8027 102.116 33.0613 101.962 33.296C101.812 33.5253 101.58 33.7093 101.266 33.848C100.951 33.9813 100.564 34.048 100.106 34.048Z" fill="#0078CE"/>
<defs>
<linearGradient id="paint0_linear_284:11729" x1="23.3863" y1="37.5396" x2="11.9235" y2="35.8425" gradientUnits="userSpaceOnUse">
<stop stop-color="#0078CE"/>
<stop offset="1" stop-color="#0078CE" stop-opacity="0.6"/>
</linearGradient>
<clipPath id="clip0_284:11729">
<rect width="32" height="31.8933" fill="white" transform="translate(0 4.05322)"/>
</clipPath>
</defs>
</svg>
