<svg width="267" height="224" viewBox="0 0 267 224" fill="none" xmlns="http://www.w3.org/2000/svg">
<path d="M114.871 5.85875C114.857 5.83302 114.844 5.80636 114.833 5.77896L114.851 5.76123C114.86 5.7932 114.867 5.82579 114.871 5.85875Z" fill="#31AAB7"/>
<path d="M114.942 6.21298C114.914 6.11621 114.895 6.0174 114.883 5.91748C114.931 6.00811 114.951 6.11082 114.942 6.21298Z" fill="#31AAB7"/>
<path d="M128.216 107.963C128.142 108.131 128.08 108.297 128.006 108.471C122.551 121.754 118.745 137.646 117.862 156.664C102.717 119.567 77.594 101.609 55.2158 92.9868C55.6177 80.5906 57.3405 59.0339 64.3763 45.7896C64.3763 45.7896 76.2909 48.5761 91.2875 60.3252C103.119 69.595 116.887 84.4616 128.216 107.963Z" fill="#31AAB7"/>
<path d="M130.451 107.762L129.939 107.647C130.013 107.47 130.078 107.301 130.149 107.13C130.25 107.337 130.353 107.57 130.451 107.762Z" fill="#31AAB7"/>
<path d="M130.451 107.762L129.939 107.647C130.013 107.47 130.078 107.301 130.149 107.13C130.25 107.337 130.353 107.57 130.451 107.762Z" fill="#31AAB7"/>
<path d="M120.658 192.914C120.513 192.914 120.362 192.914 120.22 192.914C63.7147 192.914 16.9075 150.093 8.52119 94.1489C7.95679 89.3737 7.87109 86.5221 7.87109 86.5221C7.87109 86.5221 28.2606 84.4536 51.9006 93.7589C72.8663 102.012 96.394 119.196 110.575 154.691V154.718C110.661 154.93 110.746 155.14 110.823 155.362C115.061 166.103 118.435 178.511 120.64 192.834C120.649 192.861 120.658 192.887 120.658 192.914Z" fill="#31AAB7"/>
<path d="M252.192 88.2363C246.794 151.6 195.391 201.354 132.716 201.608C132.751 198.73 133.653 166.204 153.286 136.716C162.061 123.409 173.85 112.359 187.697 104.462C188.09 104.235 188.471 104.019 188.879 103.803C189.36 103.528 189.854 103.265 190.356 103.002C190.483 102.929 190.619 102.861 190.758 102.787C191.24 102.533 191.721 102.278 192.215 102.033C192.469 101.903 192.723 101.77 192.989 101.649C193.515 101.377 194.053 101.111 194.591 100.857C195.128 100.603 195.601 100.378 196.112 100.145L196.293 100.059C196.677 99.879 197.058 99.7106 197.448 99.5422C197.933 99.3146 198.414 99.1078 198.905 98.9009C200.335 98.2804 201.81 97.6894 203.314 97.1279L203.834 96.9299C204.469 96.6847 205.107 96.4512 205.755 96.2237C218.757 91.6139 234.108 88.6855 252.192 88.2363Z" fill="#31AAB7"/>
<path d="M166.891 58.8392C154.087 68.5375 139.664 83.8237 130.149 107.13C118.828 83.1648 105.099 67.9997 93.291 58.5467C100.265 45.5447 116.071 19.1181 130.45 6.75732C130.45 6.75732 152.22 28.2609 166.891 58.8392Z" fill="#31AAB7"/>
<path d="M204.464 93.7491C203.831 93.9707 203.205 94.2012 202.579 94.4405L202.07 94.6356C200.593 95.1881 199.151 95.7703 197.747 96.379C197.265 96.5829 196.793 96.7838 196.32 97.0055C195.936 97.1739 195.56 97.3394 195.185 97.5137L195.005 97.5965C194.506 97.827 194.006 98.0574 193.527 98.2998C193.049 98.5421 192.472 98.8051 191.952 99.074C191.695 99.1922 191.444 99.3222 191.196 99.4522C190.711 99.6916 190.238 99.9398 189.766 100.191C189.633 100.265 189.497 100.327 189.373 100.401C188.891 100.661 188.409 100.918 187.934 101.187C187.541 101.4 187.165 101.609 186.781 101.831C173.194 109.577 161.623 120.416 153.008 133.47C133.754 162.394 132.867 194.302 132.832 197.124L132.787 197.041C130.482 182.065 126.957 169.093 122.525 157.864L122.873 156.72L122.268 157.19C122.268 157.19 122.268 157.19 122.268 157.172C123.133 138.148 126.857 122.241 132.199 108.964L132.699 109.074L132.403 108.456C141.738 85.5933 155.887 70.5996 168.454 61.0874C183.256 49.888 195.874 46.2622 195.874 46.2622C202.605 54.5835 204.142 80.0379 204.464 93.7491Z" fill="#31AAB7"/>
<path d="M119.224 159.977V159.947C119.224 159.947 119.224 159.965 119.224 159.977Z" stroke="#CCDDE2" stroke-width="1.17313" stroke-miterlimit="10"/>
<path d="M130.146 107.419C130.069 107.6 130.001 107.777 129.924 107.966C124.165 122.286 120.149 139.44 119.212 159.956C103.226 119.937 76.6986 100.561 53.0615 91.2614C53.4841 77.887 55.3044 54.6341 62.7391 40.3438C62.7391 40.3438 75.3186 43.349 91.1544 56.0259C103.648 66.0257 118.184 82.0654 130.146 107.419Z" stroke="#CCDDE2" stroke-width="1.17313" stroke-miterlimit="10"/>
<path d="M130.465 108.087L129.924 107.966C130.001 107.777 130.069 107.6 130.145 107.419C130.252 107.638 130.352 107.866 130.465 108.087Z" stroke="#CCDDE2" stroke-width="1.17313" stroke-miterlimit="10"/>
<path d="M119.224 159.977V159.947C119.224 159.947 119.224 159.965 119.224 159.977Z" stroke="#CCDDE2" stroke-width="1.17313" stroke-miterlimit="10"/>
<path d="M130.465 108.087L129.924 107.966C130.001 107.777 130.069 107.6 130.145 107.419C130.252 107.638 130.352 107.866 130.465 108.087Z" stroke="#CCDDE2" stroke-width="1.17313" stroke-miterlimit="10"/>
<path opacity="0.9" d="M32.6927 155.778C31.6496 154.505 30.6242 153.202 29.6373 151.878C16.3513 134.202 7.59939 113.54 4.14744 91.6991C3.28753 86.3476 3.42051 83.103 3.42051 83.103C3.42051 83.103 26.3956 80.7745 53.0645 91.2618C76.7045 100.564 103.223 119.925 119.212 159.957V159.989C119.31 160.229 119.41 160.468 119.49 160.716C124.277 172.832 128.077 186.815 130.565 202.973C130.565 203.002 130.565 203.032 130.565 203.064C130.397 203.064 130.237 203.064 130.069 203.064C97.0999 203.017 67.0328 189.867 44.362 168.384C41.998 166.147 39.6961 163.81 37.4976 161.39" stroke="#CCDDE2" stroke-width="1.17313" stroke-miterlimit="10"/>
<path d="M119.224 159.977V159.947C119.224 159.947 119.224 159.965 119.224 159.977Z" stroke="#CCDDE2" stroke-width="1.17313" stroke-miterlimit="10"/>
<path opacity="0.9" d="M257.009 83.1108C251.297 150.145 196.925 202.771 130.618 203.04C130.657 199.996 131.611 165.588 152.376 134.392C161.662 120.316 174.136 108.627 188.784 100.273C189.201 100.034 189.606 99.8066 190.028 99.5791C190.54 99.2836 191.06 99.0117 191.58 98.731C191.713 98.6512 191.858 98.5832 192.002 98.5034C192.514 98.2345 193.025 97.9656 193.545 97.7085C193.814 97.5667 194.083 97.413 194.363 97.2978C194.922 97.0023 195.489 96.7334 196.06 96.4645C196.63 96.1956 197.126 95.9562 197.667 95.708L197.859 95.6164C198.264 95.4273 198.669 95.25 199.083 95.0697C199.594 94.8304 200.102 94.6117 200.622 94.393C202.135 93.737 203.695 93.1106 205.285 92.5136L205.835 92.3038C206.508 92.0468 207.182 91.7956 207.868 91.5592C221.641 86.6716 237.882 83.5866 257.009 83.1108Z" stroke="#CCDDE2" stroke-width="1.17313" stroke-miterlimit="10"/>
<path d="M169.013 56.3367C155.47 66.5935 140.21 82.7633 130.146 107.42C118.184 82.0659 103.648 66.0261 91.1543 56.0264C98.5418 42.265 115.255 14.3166 130.456 1.24072C130.465 1.24072 153.475 23.9883 169.013 56.3367Z" stroke="#CCDDE2" stroke-width="1.17313" stroke-miterlimit="10"/>
<path d="M41.483 129.567C41.486 129.547 41.486 129.527 41.483 129.508C41.483 129.487 41.483 129.467 41.483 129.428C41.4783 129.395 41.4783 129.361 41.483 129.328C41.4913 129.399 41.5052 129.469 41.5244 129.537C41.5199 129.545 41.514 129.552 41.5068 129.557C41.4997 129.562 41.4916 129.565 41.483 129.567Z" fill="white"/>
<path d="M41.5936 148.671C41.1375 150.142 40.5552 151.571 39.8531 152.941C39.6521 153.328 39.4541 153.706 39.2355 154.085C38.4889 155.486 37.5729 156.79 36.508 157.968C36.3189 157.905 36.1298 157.826 35.9613 157.758C35.9229 157.758 35.8904 157.728 35.8608 157.716C32.4183 156.215 29.8326 153.399 29.0644 150.234C28.3788 147.448 28.9964 144.434 27.6725 141.818C26.0414 138.598 21.6443 136.582 21.0947 132.942C20.5983 129.537 23.6626 126.414 23.1632 123.081C22.5959 119.307 17.9595 117.07 17.1025 113.388C16.5558 111.101 17.0434 108.462 16.8454 106.104C16.6166 103.469 16.1699 100.856 15.5098 98.2943C15.8289 98.2736 16.148 98.2647 16.4672 98.2529C22.9682 98.1435 29.4012 101.799 31.5111 106.949C33.2132 111.11 32.3474 115.915 34.605 119.816C34.7417 120.067 34.8947 120.31 35.063 120.542C35.3592 120.954 35.6778 121.348 36.0175 121.724L36.7355 122.472C36.8537 122.59 36.9837 122.7 37.1019 122.83C37.2201 122.96 37.3502 123.069 37.4713 123.199C38.5942 124.272 39.7408 125.356 40.4854 126.642C40.5542 126.753 40.6144 126.87 40.6657 126.99C40.7354 127.107 40.7947 127.23 40.843 127.357C40.9072 127.486 40.9644 127.62 41.0144 127.756C41.0735 127.903 41.1237 128.051 41.171 128.214C41.2419 128.453 41.3128 128.681 41.3601 128.92C41.3601 128.979 41.3601 129.029 41.3808 129.079C41.4015 129.13 41.3808 129.118 41.3808 129.139C41.3851 129.158 41.3851 129.178 41.3808 129.198C41.3851 129.232 41.392 129.265 41.4015 129.298V129.319C41.4026 129.356 41.4085 129.393 41.4192 129.428C41.4192 129.467 41.4192 129.487 41.4192 129.508C41.4222 129.528 41.4222 129.547 41.4192 129.567V129.588L40.6539 140.693C41.1444 143.379 42.3707 146.056 41.5936 148.671Z" fill="white"/>
<path d="M47.3726 121.716C47.872 119.307 47.9105 116.781 49.0452 114.482C51.155 110.244 57.3192 107.168 63.7818 106.97H63.9C64.491 106.97 65.082 106.97 65.673 107C65.0044 109.203 64.5482 111.465 64.3107 113.755C64.092 115.794 64.6062 118.075 64.0418 120.034C63.1346 123.217 58.3091 125.149 57.724 128.403C57.2039 131.287 60.3983 133.985 59.8723 136.919C59.3049 140.063 54.7276 141.804 53.0374 144.602C51.6722 146.863 52.3104 149.457 51.6042 151.857C50.7768 154.593 48.0582 157.031 44.4797 158.313C44.2492 158.393 44.0424 158.473 43.8119 158.544C43.6907 158.573 43.5518 158.624 43.4336 158.653C43.3923 158.624 43.3538 158.582 43.3036 158.544C42.1482 157.56 40.8539 155.899 39.7812 154.111L39.861 152.977C40.5632 151.606 41.1455 150.177 41.6015 148.707C42.3787 146.091 41.1524 143.414 40.715 140.728L41.4804 129.623L41.7197 129.425C41.8071 129.361 41.8901 129.291 41.9679 129.215C43.1499 128.261 44.4265 127.345 45.3396 126.26C46.4743 124.928 47.0033 123.465 47.3401 121.931" fill="white"/>
<path d="M47.3438 121.876C47.3438 121.826 47.3644 121.778 47.3733 121.716L47.3438 121.876Z" fill="white"/>
<path d="M47.3747 121.707C47.3747 121.77 47.354 121.817 47.3451 121.867C47.0082 123.401 46.4793 124.863 45.3446 126.196C44.4315 127.281 43.1579 128.197 41.9729 129.151C41.895 129.227 41.8121 129.297 41.7247 129.361L41.4853 129.568C41.4894 129.555 41.4894 129.542 41.4853 129.529C41.4762 129.495 41.4654 129.462 41.4528 129.429C41.4482 129.396 41.4482 129.362 41.4528 129.328V129.308C41.4433 129.275 41.4364 129.241 41.4321 129.207C41.4365 129.188 41.4365 129.168 41.4321 129.148C41.4366 129.139 41.4389 129.129 41.4389 129.119C41.4389 129.108 41.4366 129.098 41.4321 129.089C41.4247 129.035 41.4139 128.982 41.3996 128.93C41.3524 128.69 41.2814 128.463 41.2105 128.223C41.1632 128.073 41.113 127.913 41.0539 127.765C41.004 127.629 40.9467 127.496 40.8825 127.366C40.8406 127.237 40.7809 127.113 40.7052 127C40.654 126.879 40.5937 126.763 40.525 126.651C39.7803 125.366 38.6338 124.287 37.5109 123.209C37.3897 123.079 37.2626 122.949 37.1415 122.839C37.0203 122.73 36.8933 122.6 36.7751 122.482L36.057 121.734C35.7174 121.358 35.3987 120.963 35.1025 120.552C35.1025 120.552 35.7645 109.048 41.6449 105.567C47.1974 102.252 47.3747 119.766 47.3747 121.707Z" fill="white"/>
<path d="M47.3438 121.876C47.3438 121.826 47.3644 121.778 47.3733 121.716L47.3438 121.876Z" fill="white"/>
<path d="M41.4752 129.528V129.575C41.4782 129.556 41.4782 129.536 41.4752 129.516C41.4752 129.496 41.4752 129.475 41.4752 129.436C41.4705 129.403 41.4705 129.369 41.4752 129.336C41.4707 129.4 41.4707 129.464 41.4752 129.528Z" fill="white"/>
<path d="M61.3774 110.652C50.7778 122.059 45.7957 146.112 43.8542 158.523C43.6947 159.572 43.5587 160.53 43.4287 161.393" fill="white"/>
<path d="M62.3553 168.38L57.4795 197.15C57.3641 197.936 56.9746 198.656 56.3798 199.183C55.785 199.709 55.0233 200.009 54.229 200.028H28.7392C27.9382 200.008 27.1708 199.702 26.575 199.167C25.9792 198.631 25.594 197.9 25.4887 197.106L20.9912 168.38H62.3553Z" fill="white"/>
<path d="M66.9855 165.171C66.9411 166.023 66.5768 166.827 65.9654 167.422C65.354 168.017 64.5406 168.359 63.6878 168.38H19.7262C18.8818 168.36 18.0756 168.025 17.4659 167.44C16.8562 166.856 16.4872 166.064 16.4314 165.221C16.2452 163.171 17.773 161.38 19.7262 161.38H63.6878C65.6203 161.395 67.1421 163.123 66.9855 165.171Z" fill="white"/>
<path d="M41.5042 129.588C41.5035 129.524 41.4925 129.46 41.4717 129.399L41.5042 129.588Z" fill="white"/>
<path d="M19.7197 102.521C29.8938 115.736 34.6809 143.596 36.5632 157.977C36.7228 159.224 36.8587 160.368 36.9799 161.391" fill="white"/>
<path d="M42.3989 116.562C41.1253 120.483 41.0632 124.443 41.2169 126.951C41.2575 127.761 41.3434 128.568 41.474 129.369" fill="white"/>
<path d="M41.483 129.567C41.486 129.547 41.486 129.527 41.483 129.508C41.483 129.487 41.483 129.467 41.483 129.428C41.4783 129.395 41.4783 129.361 41.483 129.328C41.4913 129.399 41.5052 129.469 41.5244 129.537C41.5199 129.545 41.514 129.552 41.5068 129.557C41.4997 129.562 41.4916 129.565 41.483 129.567Z" stroke="#CCDDE2" stroke-width="1.17313" stroke-miterlimit="10"/>
<path d="M41.5936 148.671C41.1375 150.142 40.5552 151.571 39.8531 152.941C39.6521 153.328 39.4541 153.706 39.2355 154.085C38.4889 155.486 37.5729 156.79 36.508 157.968C36.3189 157.905 36.1298 157.826 35.9613 157.758C35.9229 157.758 35.8904 157.728 35.8608 157.716C32.4183 156.215 29.8326 153.399 29.0643 150.234C28.3788 147.448 28.9964 144.434 27.6725 141.818C26.0414 138.598 21.6443 136.582 21.0947 132.942C20.5983 129.537 23.6626 126.414 23.1632 123.081C22.5959 119.307 17.9595 117.07 17.1025 113.388C16.5558 111.101 17.0434 108.462 16.8454 106.104C16.6166 103.469 16.1699 100.856 15.5098 98.2943C15.8289 98.2736 16.148 98.2647 16.4672 98.2529C22.9682 98.1435 29.4012 101.799 31.5111 106.949C33.2132 111.11 32.3474 115.915 34.605 119.816C34.7417 120.067 34.8947 120.31 35.063 120.542C35.3592 120.954 35.6778 121.348 36.0175 121.724L36.7355 122.472C36.8537 122.59 36.9837 122.7 37.1019 122.83C37.2201 122.96 37.3502 123.069 37.4713 123.199C38.5942 124.272 39.7408 125.356 40.4854 126.642C40.5542 126.753 40.6144 126.87 40.6657 126.99C40.7354 127.107 40.7947 127.23 40.843 127.357C40.9072 127.486 40.9644 127.62 41.0144 127.756C41.0735 127.903 41.1237 128.051 41.171 128.214C41.2419 128.453 41.3128 128.681 41.3601 128.92C41.3601 128.979 41.3601 129.029 41.3808 129.079C41.4015 129.13 41.3808 129.118 41.3808 129.139C41.3851 129.158 41.3851 129.178 41.3808 129.198C41.3851 129.232 41.392 129.265 41.4015 129.298V129.319C41.4026 129.356 41.4085 129.393 41.4192 129.428V129.428C41.4192 129.467 41.4192 129.487 41.4192 129.508C41.4222 129.528 41.4222 129.547 41.4192 129.567V129.588L40.6539 140.693C41.1444 143.379 42.3707 146.056 41.5936 148.671Z" stroke="#CCDDE2" stroke-width="1.17313" stroke-miterlimit="10"/>
<path d="M47.3726 121.716C47.872 119.307 47.9105 116.781 49.0452 114.482C51.155 110.244 57.3192 107.168 63.7818 106.97H63.9C64.491 106.97 65.082 106.97 65.673 107C65.0044 109.203 64.5482 111.465 64.3107 113.755C64.092 115.794 64.6062 118.075 64.0418 120.034C63.1346 123.217 58.3091 125.149 57.724 128.403C57.2039 131.287 60.3983 133.985 59.8723 136.919C59.3049 140.063 54.7276 141.804 53.0374 144.602C51.6722 146.863 52.3104 149.457 51.6042 151.857C50.7768 154.593 48.0582 157.031 44.4797 158.313C44.2492 158.393 44.0424 158.473 43.8119 158.544C43.6907 158.573 43.5518 158.624 43.4336 158.653C43.3923 158.624 43.3538 158.582 43.3036 158.544C42.1482 157.56 40.8539 155.899 39.7812 154.111L39.861 152.977C40.5632 151.606 41.1455 150.177 41.6015 148.707C42.3787 146.091 41.1524 143.414 40.715 140.728L41.4804 129.623L41.7197 129.425C41.8071 129.361 41.8901 129.291 41.9679 129.215C43.1499 128.261 44.4265 127.345 45.3396 126.26C46.4743 124.928 47.0033 123.465 47.3401 121.931" stroke="#CCDDE2" stroke-width="1.17313" stroke-miterlimit="10"/>
<path d="M47.3438 121.876C47.3438 121.826 47.3644 121.778 47.3733 121.716" stroke="#CCDDE2" stroke-width="1.17313" stroke-miterlimit="10"/>
<path d="M47.3747 121.707C47.3747 121.77 47.354 121.817 47.3451 121.867C47.0082 123.401 46.4793 124.863 45.3446 126.196C44.4315 127.281 43.1579 128.197 41.9729 129.151C41.895 129.227 41.8121 129.297 41.7247 129.361L41.4853 129.568C41.4894 129.555 41.4894 129.542 41.4853 129.529C41.4762 129.495 41.4654 129.462 41.4528 129.429V129.429C41.4482 129.396 41.4482 129.362 41.4528 129.328V129.308C41.4433 129.275 41.4364 129.241 41.4321 129.207C41.4365 129.188 41.4365 129.168 41.4321 129.148C41.4366 129.139 41.4389 129.129 41.4389 129.119C41.4389 129.108 41.4366 129.098 41.4321 129.089C41.4247 129.035 41.4139 128.982 41.3996 128.93C41.3524 128.69 41.2814 128.463 41.2105 128.223C41.1632 128.073 41.113 127.913 41.0539 127.765C41.004 127.629 40.9467 127.496 40.8825 127.366C40.8406 127.237 40.7809 127.113 40.7052 127C40.654 126.879 40.5937 126.763 40.525 126.651C39.7803 125.366 38.6338 124.287 37.5109 123.209C37.3897 123.079 37.2626 122.949 37.1415 122.839C37.0203 122.73 36.8933 122.6 36.7751 122.482L36.057 121.734C35.7174 121.358 35.3987 120.963 35.1025 120.552C35.1025 120.552 35.7645 109.048 41.6449 105.567C47.1974 102.252 47.3747 119.766 47.3747 121.707Z" stroke="#CCDDE2" stroke-width="1.17313" stroke-miterlimit="10"/>
<path d="M47.3438 121.876C47.3438 121.826 47.3644 121.778 47.3733 121.716" stroke="#CCDDE2" stroke-width="1.17313" stroke-miterlimit="10"/>
<path d="M41.4752 129.528V129.575C41.4782 129.556 41.4782 129.536 41.4752 129.516C41.4752 129.496 41.4752 129.475 41.4752 129.436C41.4705 129.403 41.4705 129.369 41.4752 129.336C41.4707 129.4 41.4707 129.464 41.4752 129.528V129.528Z" stroke="#CCDDE2" stroke-width="1.17313" stroke-miterlimit="10"/>
<path d="M61.3774 110.652C50.7778 122.059 45.7957 146.112 43.8542 158.523C43.6947 159.572 43.5587 160.53 43.4287 161.393" stroke="#CCDDE2" stroke-width="1.17313" stroke-miterlimit="10"/>
<path d="M62.3553 168.38L57.4796 197.15C57.3641 197.936 56.9746 198.656 56.3798 199.183C55.785 199.709 55.0233 200.009 54.2291 200.028H28.7392C27.9382 200.008 27.1708 199.702 26.575 199.167C25.9792 198.631 25.594 197.9 25.4887 197.106L20.9912 168.38H62.3553Z" stroke="#CCDDE2" stroke-width="1.17313" stroke-miterlimit="10"/>
<path d="M66.9855 165.171C66.9411 166.023 66.5768 166.827 65.9654 167.422C65.354 168.017 64.5406 168.359 63.6878 168.38H19.7262C18.8818 168.36 18.0756 168.025 17.4659 167.44C16.8562 166.856 16.4872 166.064 16.4314 165.221V165.221C16.2452 163.171 17.773 161.38 19.7262 161.38H63.6878C65.6203 161.395 67.1421 163.123 66.9855 165.171Z" stroke="#CCDDE2" stroke-width="1.17313" stroke-miterlimit="10"/>
<path d="M41.5042 129.588C41.5035 129.524 41.4925 129.46 41.4717 129.399L41.5042 129.588Z" stroke="#CCDDE2" stroke-width="1.17313" stroke-miterlimit="10"/>
<path d="M19.7197 102.521C29.8938 115.736 34.6809 143.596 36.5632 157.977C36.7228 159.225 36.8587 160.368 36.9799 161.391" stroke="#CCDDE2" stroke-width="1.17313" stroke-miterlimit="10"/>
<path d="M42.3989 116.562C41.1253 120.483 41.0632 124.443 41.2169 126.951C41.2575 127.761 41.3434 128.568 41.474 129.369" stroke="#CCDDE2" stroke-width="1.17313" stroke-miterlimit="10"/>
<path d="M207.868 91.5603C207.182 91.7967 206.508 92.0479 205.835 92.305L205.285 92.5148C203.695 93.1058 202.135 93.7382 200.622 94.3942C200.102 94.6129 199.594 94.8315 199.083 95.0709C198.669 95.2511 198.264 95.4284 197.859 95.6176L197.667 95.7092C197.126 95.9574 196.588 96.2056 196.06 96.4656C195.531 96.7257 194.922 97.0123 194.363 97.299C194.068 97.429 193.814 97.5679 193.545 97.7097C193.025 97.9668 192.514 98.2357 192.002 98.5046C191.858 98.5844 191.707 98.6524 191.58 98.7321C191.06 99.0129 190.54 99.2906 190.028 99.5802C189.606 99.8078 189.201 100.035 188.784 100.275C174.136 108.629 161.662 120.317 152.376 134.393C131.611 165.589 130.657 199.994 130.618 203.041L130.568 202.952C128.083 186.803 124.28 172.811 119.501 160.696L119.877 159.463L119.224 159.972C119.224 159.972 119.224 159.972 119.224 159.951C120.16 139.434 124.176 122.281 129.936 107.961L130.476 108.082C130.37 107.86 130.264 107.633 130.157 107.414C140.222 82.7574 155.481 66.5876 169.024 56.3308C184.981 44.2508 198.595 40.3384 198.595 40.3384C205.864 49.3216 207.519 76.7735 207.868 91.5603Z" stroke="#CCDDE2" stroke-width="1.17313" stroke-miterlimit="10"/>
<path d="M208.834 197.698C206.714 197.272 204.638 196.764 202.605 196.173C194.266 193.735 184.579 189.575 181.258 180.828C180.427 178.568 180.165 176.138 180.495 173.753C180.825 171.368 181.738 169.101 183.152 167.152C184.65 165.074 186.757 163.512 189.18 162.681C194.455 160.976 200.291 163.633 204.204 167.563C208.116 171.493 210.634 176.552 213.698 181.174C210.926 174.968 208.113 168.582 207.732 161.798C207.436 156.508 208.872 150.772 212.519 146.798C215.876 143.14 223.724 140.276 228.346 142.957C231.395 144.73 232.613 148.5 233.136 151.987C234.572 161.529 232.728 171.224 230.893 180.698C232.125 175.633 233.449 170.521 235.961 165.952C238.473 161.384 242.323 157.347 247.255 155.654C250.709 154.472 254.811 154.599 257.704 156.836C260.402 158.905 261.607 162.43 261.98 165.816C262.6 171.496 261.265 177.255 258.966 182.483C250.387 201.994 226.597 201.244 208.834 197.698Z" fill="white"/>
<path d="M228.188 188.037C228.188 188.037 241.412 191.71 246.081 173.33L228.188 188.037Z" fill="white"/>
<path d="M222.307 156.665C218.631 164.998 222.307 190 222.307 190V156.665Z" fill="white"/>
<path d="M210.051 187.47C209.499 187.376 204.194 186.634 199.673 184.557C196.172 182.949 193.137 180.538 193.137 177.01" fill="white"/>
<path d="M200.735 177.012C200.735 177.012 195.566 183.037 199.674 184.559L200.735 177.012Z" fill="white"/>
<path d="M197.303 190.041C198.039 189.019 201.865 191.07 204.365 186.244L197.303 190.041Z" fill="white"/>
<path d="M220.672 167.696C219.366 166.715 215.944 167.696 215.441 159.85L220.672 167.696Z" fill="white"/>
<path d="M221.243 175.047C221.243 175.047 226.964 172.979 226.964 168.502L221.243 175.047Z" fill="white"/>
<path d="M233.538 188.144C233.538 188.144 236.523 180.441 237.749 177.01L233.538 188.144Z" fill="white"/>
<path d="M242.806 180.783C242.806 180.783 246.083 183.381 250.004 179.214L242.806 180.783Z" fill="white"/>
<path d="M242.804 177.012C242.804 177.012 240.689 176.093 241.67 170.807L242.804 177.012Z" fill="white"/>
<path d="M208.834 197.698C206.695 197.402 204.635 196.767 202.605 196.173C194.266 193.735 184.579 189.575 181.258 180.828C180.427 178.568 180.165 176.138 180.495 173.753C180.825 171.368 181.738 169.101 183.152 167.152C184.65 165.074 186.757 163.512 189.18 162.681C194.455 160.976 200.291 163.633 204.204 167.563C208.116 171.493 210.634 176.552 213.698 181.174C210.926 174.968 208.113 168.582 207.732 161.798C207.436 156.508 208.872 150.772 212.519 146.798C215.876 143.14 223.724 140.276 228.346 142.957C231.395 144.73 232.613 148.5 233.136 151.987C234.572 161.529 232.728 171.224 230.893 180.698C232.125 175.633 233.449 170.521 235.961 165.952C238.473 161.384 242.323 157.347 247.255 155.654C250.709 154.472 254.811 154.599 257.704 156.836C260.402 158.905 261.607 162.43 261.98 165.816C262.6 171.496 261.344 177.294 258.966 182.483C250.248 201.48 226.274 200.044 208.834 197.698Z" stroke="#CCDDE2" stroke-width="1.17313" stroke-miterlimit="10"/>
<path d="M228.188 188.037C228.188 188.037 241.412 191.71 246.081 173.33" stroke="#CCDDE2" stroke-width="1.17313" stroke-miterlimit="10"/>
<path d="M222.307 156.665C218.631 164.998 222.307 190 222.307 190" stroke="#CCDDE2" stroke-width="1.17313" stroke-miterlimit="10"/>
<path d="M210.051 187.47C209.499 187.376 204.194 186.634 199.673 184.557C196.172 182.949 193.137 180.538 193.137 177.01" stroke="#CCDDE2" stroke-width="1.17313" stroke-miterlimit="10"/>
<path d="M200.735 177.012C200.735 177.012 195.566 183.037 199.674 184.559" stroke="#CCDDE2" stroke-width="1.17313" stroke-miterlimit="10"/>
<path d="M197.303 190.041C198.039 189.019 201.865 191.07 204.365 186.244" stroke="#CCDDE2" stroke-width="1.17313" stroke-miterlimit="10"/>
<path d="M220.672 167.696C219.366 166.715 215.944 167.696 215.441 159.85" stroke="#CCDDE2" stroke-width="1.17313" stroke-miterlimit="10"/>
<path d="M221.243 175.047C221.243 175.047 226.964 172.979 226.964 168.502" stroke="#CCDDE2" stroke-width="1.17313" stroke-miterlimit="10"/>
<path d="M233.538 188.144C233.538 188.144 236.523 180.441 237.749 177.01" stroke="#CCDDE2" stroke-width="1.17313" stroke-miterlimit="10"/>
<path d="M242.806 180.783C242.806 180.783 246.083 183.381 250.004 179.214" stroke="#CCDDE2" stroke-width="1.17313" stroke-miterlimit="10"/>
<path d="M242.804 177.012C242.804 177.012 240.689 176.093 241.67 170.807" stroke="#CCDDE2" stroke-width="1.17313" stroke-miterlimit="10"/>
<path d="M243.707 131.042C246.349 133.319 248.707 135.905 250.731 138.746C254.451 143.831 256.556 149.918 256.771 156.216" stroke="#CCDDE2" stroke-width="1.17313" stroke-miterlimit="10"/>
<path d="M151.548 26.8631C156.867 23.6599 162.413 20.8142 168.312 18.8048C183.019 13.7813 199.416 14.8953 211.067 25.9204C221.168 35.4681 225.943 49.6521 226.918 63.2451C226.918 63.443 226.951 63.6528 226.959 63.8626C227.406 70.866 227.039 78.5992 226.989 86.3384" stroke="#CCDDE2" stroke-width="1.17313" stroke-miterlimit="10"/>
<path d="M35.6096 85.9099C36.9423 77.4025 35.3141 69.4003 34.4276 60.6447C32.1463 37.8321 39.4008 10.5367 65.6797 7.12371C79.9582 5.26206 91.5477 10.5958 101.202 20.826C103.371 23.1221 105.54 25.82 107.836 28.4263" stroke="#CCDDE2" stroke-width="1.17313" stroke-miterlimit="10"/>
<path d="M25.3619 161.25C25.3619 161.25 5.45996 152.486 7.45162 136.017C8.00716 131.369 10.1968 127.211 12.9627 123.391" stroke="#CCDDE2" stroke-width="1.17313" stroke-miterlimit="10"/>
<path d="M205.114 172.231C204.357 171.685 203.569 171.167 202.75 170.676C194.576 165.839 183.439 163.963 174.101 163.401C173.53 163.36 172.969 163.33 172.414 163.307C171.678 163.274 170.957 163.082 170.304 162.742C169.626 162.4 169.037 161.906 168.584 161.297C168.126 159.497 167.575 157.722 166.935 155.978L165.623 150.068C165.134 148.359 164.75 146.621 164.473 144.864C163.114 135.979 162.109 124.936 161.755 120.802C161.797 120.82 161.842 120.833 161.888 120.84L165.945 122.14C165.96 122.139 165.975 122.139 165.989 122.14L167.428 122.563C173.007 124.147 178.861 125.335 184.674 125.462C190.152 125.577 196.163 124.679 200.844 121.647C201.238 121.399 201.62 121.133 201.99 120.849C205.601 118.13 208.11 113.958 209.531 109.723C212.147 101.891 212.711 93.5193 211.171 85.4068C210.734 83.173 210.121 80.9774 209.336 78.8408C207.268 73.1524 204.28 67.8216 201.715 62.2928C201.124 61.0044 200.279 59.654 200.176 58.2237C200.052 56.5187 200.926 54.8787 201.201 53.2209C201.521 51.2289 201.67 49.2131 201.644 47.1957C201.641 44.8026 201.182 42.4321 200.294 40.2101C199.529 38.3425 198.169 35.2102 195.755 35.3254C194.981 32.8492 193.687 29.9828 191.408 29.6607C190.817 29.5701 190.214 29.7167 189.73 30.0685C189.563 29.8289 189.382 29.5991 189.189 29.38C188.238 28.3103 186.438 27.3469 184.993 27.9025C182.127 29.0372 183.439 32.9821 184.86 35.9755C184.128 35.8181 183.378 35.7683 182.632 35.8278C180.962 35.9755 179.03 36.6493 178.383 38.2568C178.031 39.1433 178.155 40.742 179.053 41.2443C180.194 41.8678 181.595 41.4541 182.735 42.0392C184.009 42.6952 184.508 44.4534 184.322 45.7832C184.286 46.3045 184.078 46.7991 183.731 47.1898C181.716 49.2051 180.333 43.6438 179.568 42.7277C178.527 41.4778 177.003 41.7053 175.918 42.7602C173.776 44.8287 174.707 48.9953 175.605 51.4952C176.58 54.2315 177.848 57.1097 179.872 59.2403C183.238 62.7715 183.607 68.4008 184.496 72.9544C184.863 74.8367 185.215 76.7368 185.498 78.6339C186.06 82.3159 186.385 86.0214 186.089 89.7388C186.014 90.7592 185.73 91.7532 185.252 92.6582C184.775 93.5633 184.116 94.3599 183.316 94.9982C182.517 95.6364 181.594 96.1024 180.605 96.3669C179.617 96.6314 178.585 96.6888 177.573 96.5353C175.165 96.1689 172.346 95.7316 169.343 95.2617C169.343 95.2617 169.367 95.2381 169.382 95.2322C165.289 93.8404 161.669 93.669 158.067 93.4799C147.905 91.9078 138.78 90.4303 138.78 90.4303C138.572 90.3919 138.384 90.2824 138.248 90.1207C138.112 89.959 138.037 89.755 138.035 89.5438L137.911 78.2616C138.605 79.1126 140.112 79.2308 141.034 78.7373C141.401 78.5505 141.702 78.2572 141.899 77.8959C142.096 77.5347 142.178 77.1224 142.137 76.7132C142.734 76.7083 143.322 76.5571 143.848 76.2729C144.003 76.1858 144.153 76.087 144.294 75.9774C144.585 75.7159 144.821 75.3975 144.985 75.0418C145.149 74.6861 145.239 74.3005 145.248 73.9089C145.261 73.6926 145.25 73.4756 145.216 73.2617C145.216 73.1819 145.192 73.1051 145.177 73.0194C145.145 72.8539 145.106 72.6914 145.059 72.5171C145.035 72.4166 145.006 72.3161 144.973 72.2216C144.897 71.9261 144.811 71.6306 144.746 71.3351C144.78 71.3395 144.815 71.3395 144.849 71.3351C145.141 71.3186 145.431 71.2771 145.715 71.211C145.986 71.1464 146.25 71.0574 146.504 70.945C146.647 70.8818 146.786 70.8108 146.921 70.7323C146.944 70.7241 146.965 70.711 146.983 70.6938C147.211 70.5536 147.428 70.3945 147.63 70.2181C147.698 70.1619 147.764 70.1017 147.825 70.0378C147.94 69.9295 148.05 69.8151 148.153 69.695C148.285 69.5404 148.408 69.3786 148.522 69.2104C148.578 69.139 148.627 69.0629 148.67 68.9829C149.08 68.325 149.38 67.6042 149.557 66.8494C149.571 66.7785 149.589 66.7075 149.604 66.6396C150.195 63.8264 149.308 60.6143 146.838 59.5653C146.344 59.3555 144.595 59.1516 144.595 58.4099C144.596 58.3569 144.604 58.3042 144.619 58.2533C144.616 58.2426 144.616 58.2314 144.619 58.2208C144.665 58.1106 144.733 58.0103 144.817 57.9253C144.855 57.878 144.908 57.8307 144.956 57.7834C145.059 57.6918 145.174 57.6061 145.284 57.5175C145.396 57.4434 145.503 57.3625 145.606 57.2752C145.649 57.239 145.691 57.2005 145.73 57.1599C145.807 57.0742 145.886 56.9886 145.957 56.9029C146.028 56.8183 146.093 56.7295 146.152 56.6369C146.214 56.5423 146.277 56.4478 146.333 56.3414C146.394 56.2482 146.447 56.1493 146.489 56.0459C146.578 55.8706 146.652 55.6876 146.708 55.4992C146.808 55.1896 146.87 54.8692 146.894 54.5448C146.894 54.4295 146.894 54.3113 146.894 54.1931C146.894 51.5986 144.778 48.9125 142.104 48.6289C141.672 48.5816 141.234 48.6331 140.825 48.7796C140.623 48.8492 140.426 48.9301 140.234 49.0219L139.938 49.1608C139.737 49.2553 139.533 49.3558 139.323 49.4563C139.147 49.5405 138.955 49.5887 138.759 49.5981C138.714 49.5965 138.67 49.5906 138.626 49.5804L138.54 49.5567C138.478 49.5431 138.422 49.5112 138.378 49.4651C138.326 49.4273 138.283 49.379 138.251 49.3233C138.224 49.2691 138.205 49.2114 138.195 49.1519C138.193 49.1483 138.191 49.1442 138.191 49.1401C138.191 49.1359 138.193 49.1318 138.195 49.1283C138.18 49.0593 138.173 48.9889 138.174 48.9184C138.174 48.7724 138.194 48.627 138.236 48.487C138.319 48.1818 138.361 47.8667 138.36 47.5503C138.36 47.4356 138.352 47.3211 138.336 47.2075C138.321 47.0497 138.298 46.8928 138.266 46.7377C137.976 45.5945 137.289 44.5919 136.327 43.9097C133.617 41.9949 128.538 41.986 127.137 45.535C127.107 45.5882 127.093 45.6443 127.069 45.6975C126.889 45.4877 126.709 45.269 126.528 45.0503C126.404 44.9701 126.273 44.899 126.138 44.8376C124.262 44.0191 121.576 44.3707 120.208 45.9723C119.073 47.3021 118.7 49.3558 119.708 50.8628C119.143 50.1329 118.377 49.5844 117.504 49.2849C117.608 49.5772 117.747 49.8559 117.917 50.1152C117.837 50.0063 117.751 49.9018 117.66 49.802C117.589 49.7222 117.518 49.6513 117.448 49.5833C117.377 49.5154 117.276 49.4178 117.19 49.3469C117.105 49.276 117.01 49.1992 116.919 49.1283C115.16 47.8399 112.572 47.7069 110.932 49.3174C109.649 50.5762 109.383 52.3167 109.838 54.004C110.293 55.6913 111.384 56.8644 112.202 58.3183C109.428 59.0157 107.208 62.0918 108.083 64.9759C108.266 65.5725 108.586 66.1179 109.017 66.5685C109.449 67.0191 109.98 67.3622 110.568 67.5704C110.779 67.6232 110.993 67.6598 111.21 67.6797C111.282 67.6872 111.352 67.7094 111.415 67.745C111.478 67.7807 111.534 67.829 111.577 67.8869C111.621 67.9449 111.653 68.0112 111.67 68.0818C111.687 68.1524 111.689 68.2258 111.676 68.2973C111.632 68.4913 111.61 68.6894 111.608 68.8883C111.61 69.3644 111.735 69.832 111.97 70.2461C112.205 70.6601 112.542 71.0067 112.95 71.2523C113.011 71.2861 113.064 71.332 113.106 71.387C113.148 71.4421 113.178 71.5052 113.195 71.5724C113.212 71.6397 113.215 71.7097 113.204 71.7781C113.193 71.8466 113.168 71.912 113.13 71.9704C112.72 72.5547 112.478 73.2411 112.433 73.9539C112.387 74.6667 112.54 75.3782 112.873 76.0099C113.786 77.839 116.023 79.4259 118.133 78.7994C118.812 78.5936 119.399 78.1606 119.797 77.5731C119.839 77.5286 119.876 77.479 119.906 77.4253C119.914 77.4076 119.925 77.3916 119.939 77.378C120.242 76.9244 120.444 76.4102 120.53 75.871C121.049 76.6952 121.631 77.4785 122.27 78.2143L122.654 78.6428L121.487 85.8412L121.316 87.1384C121.252 87.5872 121.029 87.9982 120.687 88.2956C120.345 88.5931 119.907 88.7572 119.454 88.7578C119.197 88.7578 118.931 88.7578 118.674 88.7578C118.151 88.7578 117.634 88.7725 117.12 88.7873C115.556 88.8257 113.999 88.8966 112.445 88.9912C111.263 89.068 110.107 89.1537 108.946 89.2571C108.355 89.3044 107.788 89.3576 107.203 89.4197C106.617 89.4817 106.038 89.5379 105.459 89.5999C104.327 89.727 103.187 89.857 102.052 90.0077C100.684 90.188 99.3245 90.3741 97.9564 90.5692C95.817 90.8824 93.6834 91.2252 91.5411 91.5946C89.4548 91.9551 87.3775 92.3304 85.2912 92.7115C82.3599 93.2523 79.399 93.7044 76.4262 94.189C75.6457 94.3151 74.8472 94.2732 74.0841 94.066C73.321 93.8589 72.6109 93.4913 72.0012 92.9879C71.3914 92.4845 70.8961 91.8567 70.5484 91.1466C70.2006 90.4365 70.0083 89.6604 69.9843 88.87C69.6504 79.1185 75.1733 61.3324 75.1733 61.3324C75.3004 59.9495 76.9463 58.9684 77.9097 58.1824C80.6667 56.0045 82.2949 52.1039 83.2464 48.8209C83.9201 46.4776 84.5584 43.1326 82.5756 41.2118C81.4882 40.1569 79.9634 39.9293 78.9262 41.1793C78.1608 42.1013 76.7779 47.6567 74.7596 45.6413C74.4126 45.2507 74.2048 44.7561 74.1686 44.2348C73.9943 42.908 74.4641 41.1497 75.7525 40.4908C76.8931 39.8998 78.2938 40.3194 79.4344 39.6959C80.3209 39.1935 80.4569 37.586 80.1052 36.7084C79.4581 35.1009 77.5285 34.4271 75.8559 34.2794C75.11 34.2199 74.3594 34.2696 73.6279 34.4271C75.0492 31.4337 76.3642 27.4888 73.4949 26.357C72.0499 25.7867 70.2444 26.7471 69.2988 27.8168C69.1066 28.0359 68.927 28.2658 68.761 28.5053C68.2755 28.1545 67.6718 28.008 67.0796 28.0975C64.7895 28.4196 63.5099 31.286 62.7357 33.7652C60.3451 33.647 58.9917 36.7202 58.2175 38.5848C57.3402 40.7326 56.8741 43.026 56.8435 45.3458C56.7696 47.8137 56.9438 50.2826 57.3635 52.7156C57.5586 53.7646 57.9102 54.7634 58.1614 55.7888C58.4362 56.9058 58.1378 58.0139 57.7329 59.063C56.1461 63.0788 53.9091 66.8376 52.2307 70.8239C50.4108 75.0426 48.9517 79.408 47.8691 83.8731C45.7829 92.6879 45.3544 102.035 47.7923 110.826C52.4021 127.439 75.7584 121.984 89.1387 117.327C94.7325 115.382 98.5947 113.568 98.5947 113.568C98.5947 113.568 98.6242 114.856 98.6242 117.037V117.333C98.6094 120.288 98.3523 143.863 94.3808 161.173L94.2479 161.401C94.2804 161.377 94.3424 161.377 94.3808 161.587C94.1627 162.059 93.8134 162.459 93.3743 162.739C92.9353 163.019 92.4251 163.167 91.9045 163.165C82.3953 163.126 42.3521 164.477 49.9435 190.351C51.3649 195.212 55.0764 198.329 60.286 200.173C64.423 201.651 69.5086 202.292 75.1408 202.339H75.1792C64.1689 204.425 61.6069 220.805 73.8909 223.281C78.6189 224.233 82.3628 221.171 86.6121 219.865C89.0407 219.147 91.5692 218.826 94.1001 218.914C95.7518 218.953 97.3987 219.107 99.029 219.375C116.88 222.297 134.995 223.282 153.058 222.312C165.271 221.641 177.721 220.108 189.31 216.021C198.045 212.936 207.631 207.537 211.934 199.177C213.458 196.235 214.246 192.967 214.23 189.653C214.218 181.778 210.577 176.176 205.114 172.231Z" fill="white"/>
<path d="M20.8446 199.731L20.3984 199.309" stroke="#CCDDE2" stroke-width="1.17313" stroke-miterlimit="10"/>
<path d="M166.945 155.548L165.63 149.623C165.141 147.914 164.758 146.176 164.483 144.419C163.124 135.534 162.119 124.494 161.761 120.36L165.999 121.71L164.521 118.421C164.521 118.421 159.655 102.042 169.391 94.8286C162.349 92.4321 156.708 93.6644 150.119 92.1484C147.58 91.5574 144.9 91.0403 141.939 90.5557L139.797 90.1804C139.711 96.0018 135.66 97.3227 132.327 97.955C124.121 99.5271 118.438 93.5403 118.675 88.3276C109.564 88.4311 100.56 89.6337 91.5447 91.1644C92.709 94.5804 95.1616 104.817 88.2617 116.92L89.1482 116.891C94.742 114.943 98.6042 113.132 98.6042 113.132C98.6042 113.132 98.6367 114.42 98.6367 116.601V116.897C98.622 119.834 98.3649 143.427 94.3933 160.734C94.0978 161.298 94.3283 160.604 94.3933 161.23C94.1523 161.711 93.9868 162.227 93.9028 162.758L94.0949 161.993C93.0252 163.526 95.7024 165.385 99.5705 166.322C109.683 168.792 165.423 173.118 168.57 162.758C168.755 162.14 168.761 161.482 168.587 160.861C168.13 159.063 167.582 157.29 166.945 155.548Z" fill="#353642"/>
<path d="M94.0975 218.468C91.5695 218.383 89.0442 218.706 86.6184 219.423C82.3662 220.726 78.6163 223.79 73.8942 222.836C61.6103 220.359 64.1752 203.98 75.1855 201.893C76.2405 201.87 77.2954 201.864 78.3415 201.864H78.4124C83.4832 201.864 88.4239 201.997 92.4782 200.596C92.097 200.948 82.2184 209.709 94.0975 218.468Z" fill="#31AAB7"/>
<path d="M139.789 90.1681V90.1829C139.703 96.0042 135.652 97.3251 132.318 97.9575C124.112 99.5295 118.43 93.5427 118.666 88.3301" stroke="black" stroke-width="1.17313" stroke-miterlimit="10"/>
<path d="M75.1943 201.894C64.184 203.98 61.6191 220.36 73.903 222.836C78.631 223.79 82.375 220.726 86.6272 219.423C89.0549 218.705 91.5822 218.383 94.1122 218.468C95.7603 218.514 97.4032 218.673 99.0294 218.944C116.88 221.873 134.995 222.864 153.059 221.899C165.272 221.225 177.718 219.695 189.308 215.608C198.046 212.52 207.629 207.121 211.931 198.764C213.457 195.822 214.245 192.552 214.227 189.237C214.227 181.354 210.578 175.751 205.126 171.803C204.366 171.256 203.577 170.742 202.762 170.249C194.588 165.411 183.454 163.535 174.116 162.973C173.546 162.935 172.981 162.902 172.429 162.879C171.693 162.849 170.972 162.657 170.319 162.317C169.64 161.977 169.051 161.482 168.599 160.872C168.159 160.295 167.849 159.628 167.692 158.919L166.95 155.55L165.635 149.626L164.483 144.419C163.123 135.533 162.119 124.493 161.761 120.359" stroke="black" stroke-width="1.17313" stroke-miterlimit="10"/>
<path d="M177.977 193.947C174.334 202.277 165.324 199.426 155.425 193.43C149.281 189.71 144.039 189.181 140.945 189.293C145.307 188.903 149.119 187.559 150.192 182.627C151.057 178.62 148.8 174.944 144.893 173.762C154.284 173.348 163.92 174.057 171.562 179.967C171.568 179.967 181.627 185.608 177.977 193.947Z" fill="#31AAB7"/>
<path d="M144.832 70.8693C144.798 70.8737 144.764 70.8737 144.731 70.8693C144.823 71.3303 144.997 71.8238 145.112 72.3143C145.205 72.6851 145.245 73.0671 145.231 73.449C145.106 75.2368 143.839 76.206 142.119 76.2533C142.163 76.6636 142.081 77.0774 141.885 77.4403C141.688 77.8032 141.387 78.0982 141.02 78.2864C140.098 78.771 138.588 78.6616 137.893 77.8076C137.072 76.8177 137.48 75.5884 137.979 74.504C138.159 74.1228 138.339 73.7623 138.487 73.4342C138.667 73.0265 138.824 72.6216 138.963 72.2079C139.455 70.677 139.836 69.1128 140.104 67.5272C140.431 65.9256 140.647 64.3034 140.751 62.6721C140.641 62.2762 140.712 61.7029 140.556 61.2892C140.328 60.6507 139.917 60.0935 139.374 59.6876C138.251 58.8602 136.756 58.9134 135.562 58.1805C134.481 57.5074 133.628 56.5239 133.115 55.3585C133.015 55.1162 132.92 54.803 132.778 54.5311C132.715 54.3835 132.619 54.2521 132.497 54.147C131.96 53.6948 131.646 54.4927 131.315 54.803C130.976 55.1163 130.574 55.3537 130.136 55.4994C129.698 55.6452 129.233 55.6958 128.774 55.6481C128.427 55.6023 128.089 55.5026 127.772 55.3526C127.54 55.2263 127.323 55.0736 127.125 54.8975C126.891 54.6692 126.618 54.4842 126.319 54.3509C125.757 54.1411 125.728 55.0689 125.648 55.391C125.594 55.6694 125.479 55.932 125.309 56.1593C125.14 56.3865 124.921 56.5724 124.67 56.703C124.366 56.8523 124.033 56.932 123.694 56.9365C123.3 56.9524 122.906 56.8994 122.53 56.7799C122.167 56.6721 121.822 56.5118 121.505 56.3041C121.448 56.2658 121.382 56.2443 121.313 56.2418C121.245 56.2394 121.177 56.2562 121.117 56.2904C121.058 56.3246 121.009 56.3747 120.977 56.4351C120.945 56.4955 120.93 56.5637 120.935 56.6321C121.044 59.6876 118.186 60.7514 117.013 61.0646C116.619 66.1074 117.851 71.1438 120.53 75.4348C120.431 76.0557 120.178 76.6419 119.794 77.1398C117.864 77.6244 115.636 77.0984 114.8 75.4348C113.913 73.6618 114.035 71.2062 115.412 69.9414C114.457 69.7937 114.191 68.3842 114.738 67.5568C114.785 67.477 114.806 67.4297 114.776 67.3529C114.658 67.0308 113.254 66.7619 112.87 66.6437C112.322 66.448 111.827 66.1271 111.425 65.7064C111.023 65.2857 110.724 64.7769 110.554 64.2206C109.741 61.5404 111.804 58.6799 114.38 58.0328C113.615 56.6794 112.607 55.5861 112.179 54.0229C111.75 52.4597 111.993 50.8344 113.187 49.6524C113.672 49.1906 114.265 48.8573 114.913 48.6829C115.56 48.5085 116.24 48.4984 116.892 48.6536C117.272 48.9299 117.609 49.2616 117.891 49.6376C117.717 49.3811 117.578 49.1029 117.477 48.8102C118.352 49.1071 119.119 49.6561 119.682 50.3882C118.674 48.8812 119.049 46.8245 120.181 45.4947C121.549 43.8931 124.238 43.5415 126.112 44.363C126.247 44.424 126.379 44.4941 126.505 44.5728C126.682 44.7944 126.862 45.0131 127.042 45.2229C127.062 45.1662 127.086 45.1109 127.113 45.0574C127.494 45.4484 127.854 45.8586 128.192 46.2867C129.409 42.8234 134.247 42.8145 136.803 44.62C137.405 45.0496 137.898 45.6143 138.242 46.2689C138.372 46.8442 138.36 47.4423 138.209 48.0124C138.053 48.5591 138.177 48.9728 138.529 49.091C138.793 49.1553 139.072 49.1195 139.312 48.9905C140.248 48.5679 141.023 48.0508 142.11 48.169C145.656 48.5443 148.242 53.1541 146.141 56.1623C146.016 56.3491 145.875 56.5242 145.718 56.6853C145.423 56.9808 144.758 57.3265 144.61 57.7491C144.606 57.7596 144.606 57.7712 144.61 57.7816C144.344 58.6681 146.306 58.8661 146.829 59.0936C151.463 61.0469 150.485 70.5738 144.832 70.8693Z" fill="#31AAB7"/>
<path d="M64.2787 46.8416C63.1765 44.4953 63.9832 41.2064 65.2391 38.7213C66.1995 36.7916 65.4341 33.6978 62.9815 33.352C60.4343 33.0092 59.01 36.2213 58.2151 38.1598C57.3361 40.3082 56.869 42.6027 56.8381 44.9238C56.7728 47.3923 56.954 49.8611 57.3788 52.2936C57.5738 53.3396 57.9255 54.3414 58.1737 55.3638C58.4485 56.4808 58.1501 57.5919 57.7452 58.638C56.1584 62.6538 53.9244 66.4126 52.243 70.3989C50.4258 74.6183 48.9678 78.9836 47.8844 83.4481C45.7982 92.2629 45.3667 101.61 47.8046 110.401C52.4144 127.014 75.7737 121.559 89.151 116.902C94.7448 114.954 98.607 113.143 98.607 113.143C98.607 113.143 98.6395 114.431 98.6395 116.612C98.6395 116.713 98.6395 116.816 98.6395 116.908C98.6572 125.675 98.3056 147.705 94.5291 160.792C94.3656 161.357 94.0223 161.852 93.5513 162.204C93.0803 162.555 92.5075 162.744 91.9198 162.74C82.4106 162.701 42.3704 164.052 49.9588 189.911C52.5238 198.646 62.4555 201.787 75.1443 201.896H75.2004C76.2317 201.896 77.2867 201.896 78.3564 201.867H78.4273C83.1408 201.703 87.8415 201.278 92.5079 200.593C109.038 198.265 126.626 193.294 137.988 189.713C138.643 189.54 139.313 189.428 139.989 189.379C140.27 189.346 140.58 189.323 140.928 189.308H140.958C144.046 189.184 149.288 189.713 155.438 193.445C165.337 199.441 174.35 202.292 177.99 193.962C181.631 185.632 171.569 179.967 171.569 179.967C163.927 174.057 154.291 173.357 144.9 173.762C142.001 173.889 139.117 174.131 136.331 174.353C125.178 175.241 114.024 176.128 102.868 177.012L88.2527 178.194" stroke="black" stroke-width="1.17313" stroke-miterlimit="10"/>
<path d="M68.2534 45.2764C68.2534 45.2764 66.6606 42.0584 68.6316 37.026C69.4442 34.9575 70.381 32.4546 69.9968 30.1881C69.8766 29.349 69.4307 28.591 68.7557 28.0783C68.2705 27.727 67.6662 27.5815 67.0743 27.6734C64.7871 27.9926 63.5047 30.8619 62.7305 33.3382" stroke="black" stroke-width="1.17313" stroke-miterlimit="10"/>
<path d="M71.581 43.408C71.581 43.408 70.068 40.8461 72.1306 36.907C72.4763 36.251 73.0614 35.202 73.6081 34.0082C75.0324 31.0148 76.3444 27.0698 73.4751 25.9351C72.0301 25.3648 70.2246 26.3252 69.279 27.3978C69.0868 27.6159 68.9073 27.8448 68.7412 28.0834" stroke="black" stroke-width="1.17313" stroke-miterlimit="10"/>
<path d="M73.6157 33.9908C74.3471 33.8319 75.0979 33.7821 75.8438 33.8431C77.5163 33.9908 79.446 34.6616 80.0961 36.2721C80.4477 37.1586 80.3206 38.7572 79.4223 39.2566C78.2817 39.8831 76.884 39.4694 75.7433 40.0545C74.4697 40.7105 73.9703 42.4687 74.1565 43.7985C74.1926 44.3198 74.4005 44.8144 74.7475 45.2051C76.7628 47.2204 78.1458 41.6591 78.9111 40.743C79.9513 39.493 81.4731 39.7176 82.5605 40.7726C84.5463 42.6933 83.9051 46.0354 83.2284 48.3817C82.2798 51.6647 80.6516 55.5653 77.9094 57.7402C76.9283 58.5144 75.2971 59.5132 75.173 60.8961C75.173 60.8961 69.6501 78.6704 69.9811 88.4308C70.0051 89.2208 70.1973 89.9967 70.5449 90.7066C70.8925 91.4164 71.3875 92.044 71.9969 92.5474C72.6063 93.0508 73.316 93.4184 74.0788 93.6257C74.8415 93.8331 75.6397 93.8754 76.42 93.7498C79.375 93.2681 82.3478 92.816 85.285 92.2723C87.3713 91.8911 89.4486 91.5158 91.5349 91.1553C100.811 89.5773 110.072 88.351 119.448 88.3096C119.901 88.3104 120.339 88.1472 120.681 87.8501C121.024 87.553 121.247 87.1421 121.309 86.6933L121.487 85.4078L122.654 78.1947" stroke="black" stroke-width="1.17313" stroke-miterlimit="10"/>
<path d="M194.208 48.4051C195.31 46.0588 194.503 42.7699 193.247 40.2847C192.278 38.3551 193.052 35.2612 195.505 34.9155C195.591 34.9155 195.676 34.9007 195.756 34.9007C198.17 34.7825 199.53 37.9178 200.295 39.7853C201.185 42.0071 201.644 44.3777 201.648 46.771C201.671 48.7884 201.522 50.8041 201.202 52.7962C200.93 54.451 200.053 56.094 200.18 57.7961C200.28 59.2263 201.125 60.5797 201.719 61.868C204.281 67.385 207.281 72.7129 209.337 78.416C210.121 80.5518 210.735 82.7464 211.172 84.9791C212.717 93.0894 212.157 101.46 209.547 109.293C208.123 113.53 205.617 117.703 202.006 120.421C201.632 120.703 201.248 120.969 200.856 121.219C196.176 124.251 190.165 125.149 184.69 125.031C178.874 124.907 173.023 123.719 167.441 122.132C166.466 121.853 165.495 121.557 164.528 121.246C163.511 120.924 162.503 120.596 161.496 120.253C160.441 119.887 159.386 119.517 158.34 119.127" stroke="black" stroke-width="1.17313" stroke-miterlimit="10"/>
<path d="M195.756 34.9006C194.981 32.4244 193.687 29.5551 191.412 29.2359C190.82 29.144 190.216 29.2895 189.73 29.6408C189.055 30.1535 188.609 30.9115 188.489 31.7506C188.105 34.0171 189.042 36.517 189.854 38.5885C191.825 43.612 190.23 46.8418 190.23 46.8418" stroke="black" stroke-width="1.17313" stroke-miterlimit="10"/>
<path d="M189.73 29.641C189.565 29.3987 189.379 29.1742 189.192 28.9525C188.238 27.8828 186.441 26.9224 184.993 27.4928C182.127 28.6245 183.439 32.5724 184.863 35.5658C185.425 36.7478 186.01 37.8087 186.341 38.4647C188.409 42.4096 186.888 44.9657 186.888 44.9657" stroke="black" stroke-width="1.17313" stroke-miterlimit="10"/>
<path d="M184.864 35.5658C184.133 35.4074 183.382 35.3566 182.636 35.4151C180.964 35.5659 179.034 36.2366 178.384 37.8471C178.032 38.7336 178.159 40.3323 179.058 40.8317C180.198 41.4581 181.596 41.0415 182.737 41.6295C184.01 42.2855 184.51 44.0437 184.323 45.3735C184.287 45.8948 184.079 46.3894 183.732 46.7801C181.717 48.7954 180.334 43.2341 179.569 42.318C178.529 41.0651 177.007 41.2926 175.919 42.3476C173.777 44.4161 174.708 48.5826 175.606 51.0855C176.584 53.8189 177.849 56.7 179.873 58.8276C183.242 62.3736 183.608 67.9881 184.501 72.5418C184.867 74.4271 185.219 76.3242 185.499 78.2242C186.061 81.9032 186.386 85.6117 186.09 89.3291C186.015 90.3497 185.73 91.3437 185.253 92.2487C184.775 93.1538 184.116 93.9504 183.316 94.5886C182.516 95.2268 181.593 95.6927 180.604 95.9572C179.616 96.2217 178.583 96.2791 177.571 96.1256C164.356 94.1015 138.781 89.991 138.781 89.991C138.572 89.955 138.382 89.8463 138.244 89.6842C138.107 89.5222 138.031 89.3169 138.03 89.1045L137.906 77.8194" stroke="black" stroke-width="1.17313" stroke-miterlimit="10"/>
<path d="M117.002 61.0557C116.461 66.8681 118.479 73.4401 122.262 77.7721C129.318 85.8422 135.264 77.7721 135.264 77.7721" stroke="black" stroke-width="1.17313" stroke-miterlimit="10"/>
<path d="M140.828 62.857C140.621 62.4728 140.743 61.7784 140.565 61.2908C140.336 60.6521 139.925 60.0943 139.383 59.6862C138.255 58.8618 136.762 58.912 135.571 58.1851C134.49 57.5085 133.636 56.5236 133.119 55.3572C132.953 54.9848 132.823 54.4175 132.507 54.1486C131.966 53.6965 131.653 54.4914 131.325 54.8046C130.857 55.2408 130.269 55.5264 129.637 55.6244C129.004 55.7224 128.357 55.6282 127.779 55.3542C127.247 55.0912 126.878 54.5623 126.322 54.3525C125.767 54.1427 125.731 55.0676 125.648 55.3926C125.596 55.6707 125.481 55.9334 125.312 56.161C125.144 56.3887 124.927 56.5755 124.676 56.7076C123.698 57.1893 122.363 56.8731 121.511 56.3028C121.454 56.2634 121.387 56.2411 121.318 56.2383C121.249 56.2355 121.18 56.2524 121.12 56.2871C121.06 56.3217 121.011 56.3727 120.979 56.4341C120.947 56.4954 120.933 56.5646 120.938 56.6337C121.071 60.4752 116.521 61.1637 116.521 61.1637" stroke="black" stroke-width="1.17313" stroke-miterlimit="10"/>
<path d="M123.423 69.5095C125.698 69.5095 127.542 67.6653 127.542 65.3903C127.542 63.1153 125.698 61.271 123.423 61.271C121.148 61.271 119.304 63.1153 119.304 65.3903C119.304 67.6653 121.148 69.5095 123.423 69.5095Z" stroke="black" stroke-width="1.17313" stroke-miterlimit="10"/>
<path d="M134.099 69.1433C136.374 69.1433 138.218 67.2991 138.218 65.0241C138.218 62.749 136.374 60.9048 134.099 60.9048C131.824 60.9048 129.979 62.749 129.979 65.0241C129.979 67.2991 131.824 69.1433 134.099 69.1433Z" stroke="black" stroke-width="1.17313" stroke-miterlimit="10"/>
<path d="M121.7 65.8037C121.7 65.8037 123.361 67.7097 125.069 65.8037" stroke="black" stroke-width="1.17313" stroke-miterlimit="10"/>
<path d="M132.421 65.8037C132.421 65.8037 134.082 67.7097 135.793 65.8037" stroke="black" stroke-width="1.17313" stroke-miterlimit="10"/>
<path d="M129.256 74.8906C130.057 74.8906 130.706 74.241 130.706 73.4397C130.706 72.6384 130.057 71.9888 129.256 71.9888C128.454 71.9888 127.805 72.6384 127.805 73.4397C127.805 74.241 128.454 74.8906 129.256 74.8906Z" stroke="black" stroke-width="1.17313" stroke-miterlimit="10"/>
<path d="M127.542 65.3904C127.542 65.3904 128.476 63.8686 129.98 65.024" stroke="black" stroke-width="1.17313" stroke-miterlimit="10"/>
<path d="M125.647 59.2764C125.647 59.2764 121.372 56.0082 117.787 59.0902" stroke="black" stroke-width="1.17313" stroke-miterlimit="10"/>
<path d="M138.16 57.5629C138.16 57.5629 133.081 55.7899 130.628 59.8234" stroke="black" stroke-width="1.17313" stroke-miterlimit="10"/>
<path d="M120.395 75.2921C120.385 75.977 120.16 76.6414 119.751 77.1914C119.343 77.7413 118.772 78.1489 118.119 78.3565C116.009 78.98 113.775 77.3961 112.859 75.567C112.525 74.9348 112.373 74.2225 112.419 73.509C112.465 72.7956 112.707 72.1087 113.119 71.5245C113.156 71.4661 113.181 71.4007 113.191 71.3324C113.202 71.2642 113.199 71.1945 113.182 71.1276C113.164 71.0606 113.134 70.9979 113.092 70.9432C113.049 70.8885 112.997 70.843 112.936 70.8094C112.526 70.5627 112.187 70.2138 111.952 69.7969C111.717 69.38 111.594 68.9093 111.595 68.4306C111.596 68.2319 111.617 68.0338 111.66 67.8396C111.673 67.7678 111.671 67.694 111.655 67.6229C111.638 67.5517 111.607 67.4848 111.563 67.4265C111.519 67.3681 111.463 67.3195 111.4 67.2838C111.336 67.2481 111.265 67.226 111.193 67.2191C110.978 67.1995 110.764 67.1639 110.554 67.1127C109.966 66.9041 109.436 66.5608 109.004 66.1103C108.572 65.6598 108.252 65.1146 108.069 64.5182C107.183 61.6341 109.414 58.555 112.189 57.8606C111.361 56.4067 110.265 55.2336 109.825 53.5463C109.384 51.859 109.638 50.1155 110.918 48.8567C112.913 46.9035 116.296 47.5122 117.904 49.6546C116.819 48.0293 117.224 45.8131 118.444 44.3888C119.922 42.6689 122.803 42.2937 124.821 43.1683C125.782 43.5909 126.399 44.4656 127.055 45.2368C128.367 41.5254 133.556 41.5017 136.316 43.4461C137.752 44.4715 138.68 46.3302 138.222 48.0264C137.98 48.8863 138.426 49.4004 139.324 49.0045C140.223 48.6085 141.035 48.0648 142.123 48.183C145.887 48.5819 148.562 53.7384 145.731 56.6993C145.435 57.0125 144.77 57.3405 144.623 57.7631C144.301 58.6496 146.301 58.8801 146.833 59.1076C151.508 61.0697 150.482 70.6971 144.764 70.8922C144.936 71.7107 145.326 72.6179 145.264 73.463C145.14 75.2508 143.872 76.22 142.152 76.2762C142.194 76.685 142.112 77.0971 141.916 77.4583C141.72 77.8196 141.419 78.1131 141.053 78.3003C140.131 78.7909 138.621 78.6756 137.927 77.8216C136.816 76.4801 137.956 74.7218 138.518 73.4394C139.345 71.5629 139.753 69.5388 140.128 67.5294C140.472 65.8644 140.693 64.1765 140.79 62.4793V62.4084" stroke="black" stroke-width="1.17313" stroke-miterlimit="10"/>
<path d="M0.333008 199.73H60.3875" stroke="black" stroke-width="1.17313" stroke-miterlimit="10"/>
<path d="M211.504 199.73H266.284" stroke="black" stroke-width="1.17313" stroke-miterlimit="10"/>
</svg>
