<svg width="491" height="800" viewBox="0 0 491 800" fill="none" xmlns="http://www.w3.org/2000/svg">
<g clip-path="url(#clip0_131:12053)">
<rect width="491" height="800" fill="#0078CE"/>
<g opacity="0.02" clip-path="url(#clip1_131:12053)">
<path fill-rule="evenodd" clip-rule="evenodd" d="M101.837 64.0912C101.729 35.8488 58.6546 4.08937 40.255 -12.2845C3.87418 -44.6698 -33.964 -74.576 -71.4514 -104.96C-108.939 -135.344 -146.527 -165.645 -182.274 -199.002C-205.484 -220.656 -232.756 -245.044 -248.498 -275.963C-282.031 -341.854 -176.303 -332.069 -148.916 -333.51C-79.2444 -337.192 0.669197 -335.512 65.9752 -369.824C104.96 -390.308 120.506 -424.662 112.133 -474.731C109.434 -491.014 101.445 -509.752 108.213 -525.615C115.439 -542.557 132.064 -552.333 145.862 -558.89C196.189 -582.775 254.053 -585.542 307.302 -588.54C364.72 -591.835 422.679 -590.871 479.693 -591.127C503.868 -591.234 529.116 -601.834 552.137 -610.449C582.317 -621.741 612.14 -634.425 642.07 -646.689C707.916 -673.605 775.766 -701.955 845.431 -708.791C889.058 -713.074 936.74 -707.284 970.631 -670.031C987.648 -651.326 996.554 -623.52 1006.39 -598.819C1018.3 -568.979 1029.74 -538.851 1042.41 -509.48C1083.26 -414.885 1141.56 -322.449 1236.21 -317.803C1250.52 -317.103 1264.59 -319.385 1278.84 -319.813C1287.91 -320.077 1295.99 -317.4 1299.36 -305.811C1307.84 -276.745 1281.18 -230.861 1270.25 -207.799C1246.32 -157.318 1219.33 -109.103 1194.05 -59.6352C1177.32 -26.9204 1148.37 17.7864 1148.07 57.535C1147.8 92.9513 1186.39 118.55 1207.4 135.994C1227.09 152.327 1262.76 175.183 1264.92 208.408C1265.97 224.519 1257.27 237.87 1248.18 248.231C1232.25 266.351 1213.89 279.134 1199.56 299.807C1176.06 333.724 1156.43 380.391 1159.62 426.095C1161.83 457.764 1176.64 478.503 1195.47 498.328C1203.38 506.663 1209.81 512.56 1210.22 526.092C1210.9 547.581 1204 570.322 1198.32 590.245C1178 661.547 1149.13 730.494 1117.03 794.869C1100.98 827.04 1083.65 859.113 1062.37 886.556C1048.44 904.577 1029.65 926.025 1008.4 926C983.788 926 957.751 915.161 933.832 907.056C889.159 891.91 845.026 874.399 801.068 856.436C699.41 814.875 598.708 769.949 498.963 721.656C428.704 687.582 356.954 653.459 290.9 608.159C278.017 599.264 265.858 588.891 254.586 577.182C242.542 564.886 227.597 559.384 212.443 555.282C118.387 529.823 15.3443 549.368 -79.1028 561.624C-103.076 564.729 -127.048 567.851 -151.089 570.025C-171.755 571.895 -196.497 577.257 -216.583 569.201C-256.162 553.347 -221.563 494.91 -206.935 471.098C-155.434 387.261 -88.9874 316.329 -27.399 243.915C1.88374 209.43 31.3891 175.035 59.0796 138.597C73.4983 119.654 101.931 88.8496 101.837 64.0912Z" stroke="white" stroke-width="5"/>
<path fill-rule="evenodd" clip-rule="evenodd" d="M119.584 59.3302C103.799 29.4455 76.1028 7.3571 53.1129 -13.4305C20.029 -43.3564 -14.0946 -71.6192 -47.7051 -100.697C-79.4858 -128.194 -111.334 -156.004 -140.765 -187.231C-158.712 -206.273 -181.229 -229.045 -189.729 -257.209C-208.169 -318.255 -108.971 -308.993 -84.4822 -310.59C-23.6011 -314.542 45.4226 -315.447 101.746 -347.588C136.916 -367.659 151.365 -400.944 143.864 -447.154C141.271 -463.142 136.599 -476.792 142.514 -492.697C149.353 -511.106 165.085 -522.582 179.507 -530.683C224.683 -556.065 278.083 -561.457 327.054 -565.944C377.645 -570.579 430.357 -573.847 479.321 -570.455C498.901 -569.105 521.439 -576.77 540.816 -582.648C570.632 -591.704 600.145 -602.151 629.812 -611.866C690.106 -631.624 751.966 -650.658 814.69 -652.823C859.975 -654.388 907.19 -645.908 944.865 -613.134C983.047 -579.898 999.987 -528.378 1021.16 -479.402C1057.73 -394.728 1107.12 -291.778 1191.72 -273.889C1204.55 -271.172 1216.88 -272.645 1229.69 -271.979C1236.28 -271.641 1243.78 -270.571 1247.12 -262.643C1255.8 -242.061 1232.03 -204.429 1224.03 -188.664C1201.92 -145.096 1177.07 -103.661 1153.9 -60.9332C1135.5 -27.0062 1112.18 10.6914 1105.07 50.9081C1096.43 99.7116 1152.85 134.437 1172.7 168.8C1207.1 228.389 1141.92 262.34 1109.79 290.752C1072.89 323.37 1042.44 382.875 1075.51 433.342C1088.17 452.639 1103.74 464.141 1109.39 489.324C1118.22 528.71 1111.54 573.718 1104.37 612.65C1093.57 671.177 1076.47 729.069 1053.23 781.964C1036.58 819.835 1008.96 879.217 968.51 874.763C941.28 871.791 913.597 860.932 887.083 851.333C847.382 836.967 808.181 820.592 769.19 803.583C679.181 764.428 590.165 721.256 502.898 673.77C443.354 641.358 277.26 508.902 264.762 504.176C227.499 490.098 185.131 492.576 146.713 494.758C95.6088 497.656 44.7609 505.164 -6.04651 512.121C-30.2315 515.414 -54.5379 519.44 -78.8512 521.061C-96.1561 522.214 -118.883 523.202 -134.041 510.927C-163.627 486.978 -130.665 432.181 -117.033 408.998C-75.2728 337.925 -22.4466 276.377 27.0847 213.446C51.3912 182.549 76.0691 151.701 98.134 118.326C107.033 104.849 129.341 77.7879 119.584 59.3302Z" stroke="white" stroke-width="5"/>
<path fill-rule="evenodd" clip-rule="evenodd" d="M141.423 44.0034C98.3126 -15.7992 38.811 -60.2765 -12.5425 -110.222C-38.3171 -135.297 -64.2538 -161.057 -86.4843 -190.925C-98.0484 -206.456 -112.488 -226.097 -114.716 -247.747C-120.67 -305.663 -31.2626 -297.832 -4.50232 -300.031C47.236 -304.296 105.684 -307.533 152.623 -337.088C181.3 -355.156 195.423 -384.81 190.063 -423.786C187.687 -441.08 183.987 -455.771 190.063 -472.752C196.22 -489.955 209.046 -502.093 222.035 -511.193C259.36 -537.364 305.745 -545.73 347.769 -551.964C397.067 -559.225 446.736 -562.06 496.375 -560.446C539.85 -559.055 583.116 -574.709 625.565 -585.028C681.799 -598.69 739.053 -610.622 796.597 -608.819C842.044 -607.386 887.848 -596.129 926.699 -566.211C966.178 -535.741 989.913 -490.136 1011.31 -440.923C1043.66 -366.528 1083.98 -266.835 1154.95 -238.581C1165.27 -234.463 1174.89 -234.011 1185.54 -233.294C1190.71 -232.948 1197.39 -232.841 1199.95 -226.261C1206.12 -210.417 1183.31 -179.701 1176.94 -168.995C1156.62 -134.82 1134.6 -102.184 1113.77 -68.4621C1094.33 -36.9796 1073.15 -4.17136 1061.07 32.7215C1041.85 91.4783 1103.3 125.835 1101.58 181.825C1100.51 216.585 1073.23 241.512 1051.62 258.756C1025.02 279.961 986.727 293.903 973.414 332.599C963.497 361.422 979.058 378.197 991.041 400.069C1011.35 437.126 1012.73 487.36 1010.62 530.256C1007.77 588.222 996.637 647.045 977.688 700.326C969.101 724.479 958.583 749.604 943.097 768.363C928.589 785.945 914.858 790.45 895.469 786.851C836.116 775.816 776.189 745.058 719.273 717.586C647.762 683.065 577.236 644.953 508.816 602.074C462.161 572.831 414.454 541.892 373.503 501.491C362.83 490.959 351.9 479.512 344.096 465.62C338.196 455.178 335.692 446.556 325.748 440.593C296.274 422.929 255.276 427.549 223.696 429.386C173.199 432.309 122.946 440.091 72.7607 447.099C43.4757 451.217 -11.6919 464.17 -35.0768 433.1C-55.2617 406.27 -30.9048 360.524 -18.463 336.89C13.0093 277.12 53.494 224.663 91.0555 170.65C108.27 145.895 126.16 120.951 140.377 93.43C144.009 86.4138 149.828 77.1164 150.827 68.5932C151.948 58.8265 146.716 51.3738 141.423 44.0034Z" stroke="white" stroke-width="5"/>
<path fill-rule="evenodd" clip-rule="evenodd" d="M145.13 57.9252C105.294 5.04865 57.3017 -38.3915 14.5356 -87.8726C-4.63955 -110.058 -24.0037 -133.332 -38.6146 -160.397C-46.4738 -174.951 -54.8191 -193.271 -52.6517 -211.361C-46.4333 -263.282 27.1009 -258.592 56.809 -261.633C100.952 -266.1 151.665 -270.6 190.698 -298.596C216.267 -316.933 225.854 -344.014 221.081 -378.941C215.956 -416.406 227.414 -443.602 253.49 -464.502C286.182 -490.685 327.449 -501.358 365.408 -508.94C411.141 -518.031 457.453 -522.061 503.78 -520.98C548.835 -519.926 592.485 -529.139 637.243 -535.131C696.585 -543.067 757.831 -546.982 816.504 -530.714C867.589 -516.547 913.731 -485.328 948.32 -437.051C984.449 -386.663 1002.33 -323.18 1031.67 -267.435C1049.97 -232.665 1075.48 -186.67 1109.68 -173.154C1121.08 -168.646 1141.86 -174.728 1132.75 -152.551C1127.55 -139.867 1117.8 -128.742 1110.11 -118.374C1097.67 -101.619 1084.82 -85.326 1072.18 -68.8021C1045.22 -33.5786 1016.36 2.39488 996.157 44.1044C970.703 96.6183 1008.54 137.034 1003.93 190.281C1001.45 218.936 985.124 241.806 967.853 259.772C956.679 271.409 944.451 281.488 931.967 290.892C918.93 300.715 903.502 308.199 892.132 320.898C875.927 338.972 882.963 360.366 886.001 383.731C891.349 424.791 892.523 466.5 889.498 507.911C885.798 558.67 877.122 610.879 858.845 657.006C851.735 674.964 842.728 694.001 829.353 706.042C815.978 718.082 802.143 717.258 786.817 713.632C741.356 702.918 695.991 677.988 652.867 654.36C598.893 624.782 545.979 591.726 495.448 554.121C460.568 528.16 425.573 500.115 396.392 464.916C387.905 454.672 379.83 443.703 373.301 431.456C368.818 423.058 366.414 412.221 359.919 405.908C339.596 386.203 298.794 392.087 274.96 393.233C227.394 395.516 180.577 406.37 133.071 409.007C107.144 410.449 66.5383 414.075 47.4982 387.134C29.5923 361.809 45.8102 321.92 56.5118 297.518C77.5438 249.537 105.8 206.789 131.126 162.187C141.538 143.833 152.948 124.631 159.693 103.673C165.689 84.998 155.338 71.4822 145.13 57.9252Z" stroke="white" stroke-width="5"/>
<path fill-rule="evenodd" clip-rule="evenodd" d="M154.927 58.79C123.219 12.2602 84.9944 -29.0438 53.057 -76.3307C34.3628 -104.023 2.16895 -150.578 16.6265 -189.619C32.4872 -232.519 87.7739 -233.688 119.732 -237.144C157.768 -241.259 202.435 -246.88 234.987 -273.667C245.282 -282.135 254.052 -293.344 257.769 -308.108C261.75 -323.908 257.398 -337.734 256.832 -353.551C255.644 -386.733 271.876 -413.372 293.357 -431.666C323.715 -457.531 361.677 -469.76 397.534 -478.286C438.158 -487.902 479.457 -492.643 520.838 -492.441C560.385 -492.276 599.514 -493.346 639.102 -494.581C690.874 -496.227 743.374 -493.568 793.595 -476.788C843.066 -460.247 888.044 -429.246 923.375 -383.646C957.842 -339.149 981.097 -284.76 1001.46 -229.359C1013.02 -197.914 1032.54 -150.923 1060.11 -135.04C1072.37 -127.971 1084.4 -128.457 1071.36 -110.072C1054.95 -86.9222 1032.83 -68.3481 1013.82 -48.5479C986.393 -19.9749 958.281 9.15767 935.262 43.1292C920.561 64.8223 914.011 85.8735 915.023 113.961C915.805 135.358 919.354 156.532 917.559 178.011C913.356 228.426 880.819 262.998 852.052 295.192C833.547 315.897 816.647 331.69 807.121 361.143C795.855 395.954 791.125 433.827 783.596 469.971C775.325 509.662 765.772 550.949 747.719 585.909C731.649 617.033 712.105 630.99 682.853 622.604C637.227 609.536 592.255 577.342 551.75 547.559C510.523 517.258 470.004 483.187 435.84 441.538C417.396 419.046 404.807 392.638 388.427 368.476C367.823 338.142 321.212 349.63 293.512 352.198C247.528 356.461 102.839 388.358 116.19 285.045C121.762 241.922 143.708 202.124 159.758 164.071C166.41 148.278 176.037 129.325 177.541 111.229C179.181 91.5189 164.46 72.7967 154.927 58.79Z" stroke="white" stroke-width="5"/>
<path fill-rule="evenodd" clip-rule="evenodd" d="M171.669 62.7411C147.438 20.5756 118.44 -19.2596 97.6483 -64.8009C84.1606 -94.2945 70.9157 -133.702 88.3148 -164.908C107.953 -200.124 151.255 -208.333 183.073 -212.82C215.854 -217.44 254.989 -221.326 281.782 -248.028C290.306 -256.534 297.333 -268.004 298.642 -281.738C299.903 -294.912 296.342 -308.086 297.522 -321.499C300.166 -351.618 315.13 -376.435 334.424 -394.434C391.498 -447.682 476.443 -459.523 545.304 -460.914C579.772 -461.606 615.245 -457.975 649.935 -455.373C694.95 -451.997 740.033 -444.751 782.964 -427.287C874.242 -390.169 935.422 -307.847 978.151 -205.41C991.598 -173.166 1001.89 -138.28 1022.96 -112.368C1033.83 -98.9878 1031.45 -89.3789 1020.35 -77.1764C1002.98 -58.1068 981.799 -43.5329 962.525 -27.6169C935.112 -4.98215 907.111 17.9902 882.867 45.1042C866.156 63.795 854.293 81.8024 850.692 109.83C848.123 129.814 848.723 150.176 847.179 170.283C844.238 208.48 834.17 246.388 816.346 278.072C802.184 303.185 785.324 326.01 767.898 347.772C745.246 376.104 726.086 404.89 708.883 438.517C686.075 483.029 654.028 565.136 600.307 543.407C541.056 519.43 485.52 458.508 447.505 399.48C434.739 379.661 424.259 355.355 407.042 340.74C381.267 318.896 355.115 319.661 324.457 319.752C278.558 319.875 178.682 332.037 177.603 248.118C177.178 214.869 188.967 183.433 194.611 151.452C200.977 115.635 188.218 91.4772 171.669 62.7411Z" stroke="white" stroke-opacity="0.8" stroke-width="5"/>
<path fill-rule="evenodd" clip-rule="evenodd" d="M189.716 66.5007C165.749 11.5454 112.004 -78.7577 152.881 -139.868C174.473 -172.163 212.665 -184.299 244.702 -191.532C270.484 -197.382 301.577 -199.579 321.057 -224.378C335.376 -242.612 329.02 -269.147 334.505 -291.972C341.314 -320.268 356.941 -343.422 376.145 -360.824C429.808 -409.46 504.423 -424.386 568.977 -427.562C636.02 -430.853 709.893 -415.459 772.982 -385.846C851.646 -348.91 910.579 -278.971 951.793 -190.404C959.397 -174.055 966.307 -157.278 973.608 -140.732C978.513 -129.632 985.787 -118.894 989.654 -107.219C996.091 -87.751 988.506 -71.8379 976.347 -59.1502C958.858 -40.8839 937.373 -27.8836 917.434 -14.1756C890.167 4.58441 862.293 23.0071 836.929 45.0172C819.885 59.8277 802.044 75.7819 795.944 101.478C791.781 119.004 790.917 137.567 791.066 155.718C791.39 194.636 789.716 226.109 774.831 261.753C750.338 320.271 712.673 372.889 672.882 416.671C641.655 451.031 592.242 504.407 546.743 481.434C505.921 460.864 482.041 411.627 455.145 371.82C442.068 352.467 427.379 334.793 410.119 321.028C388.358 303.675 367.872 296.393 342.09 293.554C298.696 288.774 233.265 287.531 219.851 224.011C214.898 200.569 217.725 176.288 215.127 152.542C211.733 121.143 201.808 94.221 189.716 66.5007Z" stroke="white" stroke-width="5"/>
<path fill-rule="evenodd" clip-rule="evenodd" d="M214.638 68.5356C197.571 8.40387 175.15 -67.3786 216.371 -120.822C236.338 -146.711 264.423 -161.184 291.604 -172C311.072 -179.751 341.983 -182.032 353.918 -205.863C362.684 -223.4 363.898 -247.592 371.828 -266.382C382.725 -292.214 399.232 -313.49 418.599 -330.146C469.051 -373.548 534.763 -390.319 594.69 -395.121C724.9 -405.541 857.39 -322.551 927.067 -186.011C947.843 -145.311 974.661 -101.991 941.086 -60.4099C904.43 -15.0475 849.211 6.20452 805.461 38.4368C788.745 50.7432 767.443 65.5372 758.117 87.8189C752.507 101.213 752.122 118.017 751.866 132.761C751.192 170.315 748.636 204.087 736.263 239.128C717.152 293.28 686.68 343.239 652.148 384.161C622.033 419.845 579.086 461.781 535.35 436.056C501.816 416.286 480.548 374.326 454.493 343.395C425.497 308.947 389.637 285.735 350.257 274.392C311.949 263.387 269.932 255.965 249.743 209.211C242.818 193.173 235.582 172.407 232.986 154.656C228.795 125.388 222.659 96.5859 214.638 68.5356Z" stroke="white" stroke-width="5"/>
<path fill-rule="evenodd" clip-rule="evenodd" d="M242.426 68.9593C234.531 8.23906 233.653 -55.0753 270.338 -102.932C287.459 -125.258 309.101 -141.12 330.986 -155.491C347.088 -166.065 363.716 -174.984 375.741 -192.32C386.883 -208.371 395.352 -227.008 406.109 -243.479C420.299 -265.306 437.277 -284.202 456.392 -299.439C504.306 -337.561 562.592 -355.391 618.354 -361.575C645.348 -364.581 674.629 -366.146 701.441 -357.952C727.334 -350.046 752.938 -337.544 776.746 -322.967C827.359 -292.01 871.224 -246.674 903.023 -189.355C924.827 -150.039 936.616 -111.81 908.381 -71.9251C876.549 -26.9676 826.637 -2.16233 785.499 27.016C757.284 47.0282 725.661 66.6452 720.39 109.173C716.193 143.013 712.785 175.131 701.926 207.118C685.766 254.299 662.005 297.038 632.053 332.8C604.661 365.379 570.008 393.026 530.827 375.624C499.784 361.813 475.699 330.872 448.577 308.752C418.351 284.045 385.142 270.424 350.172 259.471C318.744 249.588 289.152 234.402 268.84 202.16C264.683 195.572 260.316 188.399 257.111 181.028C253.021 171.623 253.339 162.3 252.536 151.759C250.444 123.939 245.996 96.4411 242.426 68.9593Z" stroke="white" stroke-opacity="0.8" stroke-width="5"/>
<path fill-rule="evenodd" clip-rule="evenodd" d="M273.066 63.9963C273.74 6.32109 285.106 -48.1866 316.236 -93.134C329.544 -112.362 345.436 -128.199 360.08 -145.819C371.871 -160.023 383.014 -173.221 396.572 -184.926C428.733 -212.642 454.871 -248.507 489.05 -273.188C534.675 -306.183 586.937 -324.42 638.795 -331.712C664.117 -335.276 690.275 -336.521 715.893 -332.496C737.897 -329.04 758.969 -316.906 778.517 -304.492C816.83 -280.174 854.03 -245.612 878.907 -201.885C933.753 -105.482 825.619 -35.3928 770.119 5.65289C744.595 24.5343 705.593 46.4017 695.138 83.8015C687.664 110.519 683.111 137.691 673.486 163.583C647.631 233.12 595.146 314.906 525.204 304.018C495.276 299.366 467.998 280.468 440.059 267.781C411.29 254.715 381.597 247.432 351.696 239.439C323.75 231.974 301.477 221.349 283.427 192.866C274.799 179.264 275.562 162.981 274.793 146.294C273.538 118.883 272.762 91.3161 273.066 63.9963Z" stroke="white" stroke-width="5"/>
<path fill-rule="evenodd" clip-rule="evenodd" d="M300.966 56.6088C312.202 -30.4467 353.934 -125.487 415.297 -176.044C487.477 -235.516 565.674 -285.596 651.914 -299.993C691.897 -306.668 735.696 -309.953 773.423 -288.123C802.136 -271.52 835.488 -246.703 851.29 -211.801C889.949 -126.433 803.959 -58.4746 754.968 -18.9803C728.592 2.28147 695.017 22.9999 675.137 54.0488C663.603 72.0509 657.715 95.8644 648.402 115.636C620.183 175.553 573.73 223.879 515.866 232.522C489.111 236.515 462.161 231.576 435.609 227.649C408.429 223.633 380.912 221.451 353.9 215.846C332.339 211.368 306.928 203.787 298.987 175.627C288.973 140.141 296.38 92.1603 300.966 56.6088Z" stroke="white" stroke-width="5"/>
<path fill-rule="evenodd" clip-rule="evenodd" d="M328.324 42.6241C344.712 -39.2228 379.414 -119.06 437.752 -167.921C468.688 -193.83 504.601 -211.715 539.08 -229.386C578.163 -249.413 618.998 -264.959 660.704 -272.67C712.632 -282.276 796.734 -290.934 823.865 -218.726C850.792 -147.053 782.747 -83.6186 742.507 -47.4693C716.709 -24.3116 689.098 -3.05696 664.449 22.2591C651.083 35.984 640.787 51.8427 629.476 67.9402C598.215 112.542 553.649 147.851 508.225 166.7C464.199 184.973 409.736 193.063 363.263 187.024C343.211 184.429 328.879 175.672 322.814 150.776C314.411 116.167 321.55 76.4338 328.324 42.6241Z" stroke="white" stroke-opacity="0.8" stroke-width="5"/>
<path fill-rule="evenodd" clip-rule="evenodd" d="M355.51 20.5799C371.79 -51.4832 406.904 -117.303 458.124 -160.554C515.538 -209.039 589.469 -235.981 657.42 -249.681C693.539 -256.958 771.81 -276.689 790.221 -220.221C808.631 -163.754 755.409 -108.107 724.777 -77.4732C687.6 -40.3505 647.517 -4.50762 607.481 28.8002C572.697 57.76 535.58 87.3679 497.903 109.732C476.654 122.419 454.518 132.777 431.759 140.685C414.906 146.493 393.476 155.157 375.807 150.833C331.241 139.914 347.724 55.0363 355.51 20.5799Z" stroke="white" stroke-width="5"/>
<path fill-rule="evenodd" clip-rule="evenodd" d="M389.067 -0.99958C424.787 -137.279 537.959 -204.304 646.925 -227.666C672.246 -233.089 743.227 -252.641 757.381 -211.011C771.096 -170.648 727.477 -122.78 707.056 -100.101C643.777 -29.8256 565.598 22.2802 491.516 73.9004C468.392 90.0128 426.687 124.978 398.003 108.849C366.86 91.3047 381.667 27.2587 389.067 -0.99958Z" stroke="white" stroke-width="5"/>
<path fill-rule="evenodd" clip-rule="evenodd" d="M425.655 -27.2297C456.719 -127.59 547.071 -185.15 630.141 -204.125C650.487 -208.768 702.161 -223.224 717.572 -195.218C731.832 -169.311 697.8 -131.772 685.067 -116.855C656.722 -83.6375 623.129 -56.2733 589.942 -29.9711C559.256 -5.63639 528.239 19.3074 495.952 39.8882C478.945 50.7219 447.05 73.8382 427.724 57.1102C406.918 39.1144 418.758 -4.9449 425.655 -27.2297Z" stroke="white" stroke-width="5"/>
<path fill-rule="evenodd" clip-rule="evenodd" d="M465.974 -56.5513C489.651 -122.09 553.063 -164.649 608.999 -178.792C624.051 -182.589 656.582 -192.44 669.279 -174.937C680.968 -158.818 662.129 -135.187 653.768 -124.273C616.711 -75.8993 562.445 -32.6897 512.725 -6.15119C500.224 0.520504 477.752 13.6168 464.892 0.149892C451.701 -13.6795 460.536 -41.503 465.974 -56.5513Z" stroke="white" stroke-width="5"/>
<path fill-rule="evenodd" clip-rule="evenodd" d="M-573.146 141.323C-574.002 77.0275 -601.996 10.2062 -588.171 -55.3071C-576.818 -109.113 -519.663 -113.605 -485.375 -137.982C-458.128 -157.349 -442.666 -191.657 -427.931 -224.574C-414.691 -254.126 -402.799 -284.566 -388.852 -313.633C-379.824 -332.424 -364.321 -369.323 -344.741 -369.989C-325.997 -370.631 -308.81 -341.877 -297.922 -324.88C-283.726 -302.724 -271.14 -279.104 -257.355 -256.594C-234.123 -218.625 -206.25 -190.521 -174.334 -163.923C-138.014 -133.657 -101.094 -104.426 -63.5745 -76.2289C-35.9503 -55.4058 -8.13753 -34.7391 18.4154 -11.8593C35.0707 2.49722 71.8311 29.4331 72 55.9C72.0804 68.5288 62.2771 82.515 55.6676 92.6098C44.4831 109.698 31.7356 125.321 18.9476 140.607C-4.86979 169.082 -29.6979 196.264 -54.2564 223.776C-86.132 259.482 -116.579 294.604 -144.601 335.14C-173.573 377.098 -201.251 420.439 -229.495 463.188C-248.623 492.148 -267.731 524.67 -295.321 542.44C-329.878 564.654 -358.243 541.231 -393.191 540.96C-423.255 540.721 -421.038 455.685 -424.858 432.04C-428.692 408.107 -437.141 385.827 -440.415 361.837C-444.498 331.89 -444.552 301.252 -445.556 270.984C-446.776 233.961 -447.261 198.716 -479.675 184.598C-498.123 176.577 -518.08 174.89 -537.174 170.085C-549.544 166.967 -572.876 161.636 -573.146 141.323Z" stroke="white" stroke-width="5"/>
<path fill-rule="evenodd" clip-rule="evenodd" d="M-558.366 129.886C-561.518 75.9901 -580.135 7.00767 -562.53 -48.6265C-547.489 -96.1693 -500.45 -102.332 -468.776 -127.307C-442.628 -147.906 -430.988 -181.614 -417.918 -214.73C-407.431 -241.294 -397.262 -268.114 -385.359 -293.83C-376.587 -312.782 -363.193 -344.776 -344.953 -348.698C-328.556 -352.225 -310.971 -323.979 -301.767 -309.609C-288.339 -288.631 -276.855 -265.848 -264.992 -243.544C-244.148 -204.364 -222.805 -169.131 -192.298 -140.35C-161.656 -111.446 -128.133 -89.8329 -94.252 -67.3387C-67.7466 -49.7388 -41.3761 -31.6281 -16.1933 -11.3091C2.56564 3.81892 29.5366 23.1821 38.1199 50.1588C44.9149 71.4995 10.4538 106.913 0.291626 119.413C-20.6266 145.113 -42.7931 169.238 -65.0002 193.216C-92.0724 222.433 -120.008 247.985 -143.916 281.314C-186.677 340.903 -222.42 415.109 -277.442 459.398C-310.627 486.111 -347.558 492.941 -384.469 488.945C-399.084 487.363 -402.593 462.174 -404.435 447.483C-407.499 423.077 -407.884 398.251 -410.238 373.746C-412.445 350.807 -417.344 329.013 -421.291 306.519C-425.286 283.728 -426.406 260.377 -429.348 237.43C-431.17 223.183 -432.972 206.605 -440.941 195.152C-449.187 183.295 -462.79 178.326 -474.68 174.553C-497.009 167.533 -556.14 167.92 -558.366 129.886Z" stroke="white" stroke-width="5"/>
<path fill-rule="evenodd" clip-rule="evenodd" d="M788.931 1150.51C733.979 1191.2 671.858 1224.78 613.277 1258.92C527.669 1308.8 440.8 1357.34 350.848 1394.5C302.621 1414.42 240.128 1443.14 188.381 1427.53C169.461 1421.83 152.207 1404.58 135.243 1393.37C111.852 1377.91 88.1158 1363.22 64.4205 1348.5C16.8883 1318.98 -30.7924 1289.77 -77.5084 1258.36C-100.003 1243.24 -121.83 1224.18 -145.249 1211.28C-158.934 1203.73 -175.311 1207.26 -189.935 1207.74C-223.808 1208.85 -257.661 1210.96 -291.515 1212.75C-332.922 1214.94 -374.425 1217.27 -415.88 1216.41C-434.577 1216.01 -480.369 1220.06 -490.662 1200.41C-496.199 1189.82 -483.148 1170.74 -477.097 1161.91C-465.988 1145.68 -453.22 1131.05 -440.62 1116.57C-411.482 1083.09 -380.536 1051.21 -354.635 1013.81C-341.327 994.588 -323.891 971.1 -332.578 944.854C-341.347 918.345 -356.537 895.392 -365.804 868.973C-376.475 838.571 -380.9 806.935 -385.938 774.698C-389.668 750.872 -398.356 729.762 -406.524 707.796C-415.549 683.517 -424.898 659.032 -431.164 633.429C-435.305 616.516 -441.99 586.089 -427.501 575.382C-406.915 560.157 -368.314 572.485 -344.848 576.971C-312.418 583.16 -280.224 591.044 -247.881 597.834C-224.402 602.772 -200.841 608.187 -176.971 608.763C-138.49 609.693 -99.8817 606.475 -61.5024 603.48C9.56318 597.932 80.1195 590.41 151.425 590.41C213.896 590.41 358.261 678.612 392.054 694.142C459.504 725.145 528.748 754.534 592.576 795.783C609.844 806.951 636.419 821.831 645.505 844.818C651.11 858.982 648.533 867.171 661.753 876.298C679.79 888.75 702.898 893.639 722.863 899.21C755.017 908.181 787.42 915.778 819.722 923.901C885.054 940.287 949.942 958.821 1015 976.655C1034.67 982.046 1058.47 983.239 1077.22 992.737C1089.31 998.835 1088.05 1006.51 1078.7 1015.78C1062.29 1032.04 1039.29 1041.07 1019.9 1050.35C991.498 1063.94 962.629 1076.06 933.747 1088.01C904.865 1099.96 875.834 1111.54 846.938 1123.51C827.85 1131.4 806.084 1137.81 788.931 1150.51Z" stroke="white" stroke-width="5"/>
<path fill-rule="evenodd" clip-rule="evenodd" d="M743.711 1141.56C685.583 1182.33 621.06 1214.81 558.857 1246.5C479.249 1287.08 397.839 1325.12 313.96 1350.49C264.711 1365.37 206.603 1381.81 156.281 1364.74C138.329 1358.65 124.917 1344.96 109.528 1332.87C91.9874 1319.09 73.7719 1306.45 55.5564 1294.01C18.0595 1268.41 -19.8333 1243.69 -58.1218 1219.84C-78.4017 1207.15 -100.726 1190.17 -123.637 1185.77C-141.852 1182.26 -162.544 1187.33 -180.84 1188.81C-213.79 1191.46 -246.733 1194.2 -279.696 1196.52C-317.733 1199.2 -355.878 1201.67 -393.995 1201.24C-415.24 1201 -451.711 1204.95 -466.736 1188.2C-479.844 1173.58 -432.12 1120.7 -423.727 1110.65C-397.517 1079.28 -369.951 1049.41 -345.556 1015.87C-331.138 996.088 -313.584 972.031 -307.505 945.813C-302.331 923.47 -312.316 898.011 -318.212 877.357C-325.586 851.486 -331.536 824.667 -340.104 799.34C-347.735 776.774 -359.878 756.672 -370.545 736.158C-382.277 713.592 -394.157 690.655 -402.867 666.036C-408.203 650.888 -417.035 625.52 -406.429 611.08C-394.177 594.431 -356.411 605.311 -340.887 607.684C-309.394 612.564 -278.145 619.816 -246.868 626.311C-194.92 637.091 -145.394 646.52 -92.4951 644.262C-23.6068 641.311 45.214 634.371 114.089 630.531C139.523 629.096 165.362 626.212 190.817 627.77C205.409 628.668 216.521 634.108 225.008 646.38C236.598 663.127 263.294 672.399 281.86 682.009C310.809 696.984 340.123 710.913 369.355 725.023C433.528 756.012 498.935 785.881 559.795 825.961C579.049 838.637 601.097 852.771 615.339 873.714C623.286 885.393 621.282 896.643 626.133 909.055C632.556 925.382 653.672 932.75 666.295 938.091C690.656 948.409 716.016 955.324 741.181 961.803C798.121 976.456 855.196 986.091 913.061 993.187C926.621 994.836 980.02 1000.55 951.975 1028.07C920.988 1058.5 876.245 1073.41 839.767 1090.55C806.905 1105.96 774.016 1120.3 743.711 1141.56Z" stroke="white" stroke-width="5"/>
<path fill-rule="evenodd" clip-rule="evenodd" d="M663.379 1134.02C608.741 1169.89 548.214 1196.65 489.369 1222.25C417.962 1253.31 344.765 1281 269.872 1296.51C222.826 1306.25 170.957 1313.73 124.228 1297.55C92.3167 1286.51 67.6317 1256.65 39.6037 1236.11C11.5757 1215.57 -17.587 1196.29 -47.6208 1180.22C-66.2612 1170.25 -86.3131 1160.2 -107.054 1161.52C-157.484 1164.71 -207.853 1172.32 -258.338 1176.02C-291.735 1178.49 -325.2 1180.52 -358.698 1179.91C-378.899 1179.55 -406.65 1181.03 -424.534 1168.06C-444.302 1153.72 -339.045 1031.25 -329.097 1017.47C-304.155 982.909 -273.952 937.041 -278.774 887.89C-283.387 840.903 -303.378 805.823 -325.99 769.007C-338.822 748.065 -379.972 692.116 -364.723 664.879C-356.01 649.31 -327.293 654.7 -313.651 655.761C-286.764 657.851 -260.026 662.344 -233.281 666.245C-194.285 671.898 -154.215 680.629 -115.05 683.188C-87.7786 684.966 -60.3449 682.587 -33.0261 682.538C6.14563 682.472 45.3174 682.834 84.4891 683.262C117.38 683.624 150.547 683.262 183.323 687.113C203.699 689.483 219.165 694.807 233.781 709.85C246.498 722.934 265.685 730.595 281.894 738.914C308.666 752.648 335.789 765.378 362.824 778.314C419.427 805.404 476.679 831.925 530.857 865.779C555.589 881.225 597.172 902.85 602.974 940.3C605.067 953.804 606.607 959.638 617.413 967.316C632.751 978.211 651.121 983.123 668.33 987.394C708.447 997.351 749.726 995.862 789.775 1005.7C806.086 1009.76 827.38 1018.52 808.76 1038.56C787.033 1062.01 755.406 1074.89 729.377 1089.37C716.383 1096.6 702.997 1103.36 690.658 1112.19C681.182 1118.98 673.071 1127.7 663.379 1134.02Z" stroke="white" stroke-width="5"/>
<path fill-rule="evenodd" clip-rule="evenodd" d="M559.894 1122.82C509.415 1151.95 454.594 1173.13 400.757 1192.23C340.96 1213.41 279.719 1230.96 217.669 1238.42C174.824 1243.59 129.173 1245.12 87.5887 1229.29C61.2907 1219.28 43.462 1198.22 20.8323 1180.56C-13.3214 1153.86 -50.2734 1132.72 -91.3051 1137.86C-137.306 1143.62 -183.458 1147.94 -229.761 1150.82C-257.69 1152.56 -285.728 1153.87 -313.692 1152.65C-331.372 1151.89 -354.15 1150.61 -369.531 1140.84C-390.111 1127.75 -312.808 1028.14 -303.172 1013.62C-279.275 977.618 -261.756 939.84 -251.521 895.232C-243.173 858.831 -260.226 830.217 -277.818 802.988C-288.756 786.079 -324.096 743.549 -313.031 721.591C-306.962 709.482 -286.962 710.109 -276.22 709.491C-255.748 708.319 -235.189 709.54 -214.717 710.076C-184.488 710.901 -152.31 705.234 -122.337 709.796C-55.9106 719.892 10.3468 728.635 77.1841 735.556C114.028 739.367 151.095 742.831 187.609 750.181C200.717 752.82 214.257 755.617 226.678 761.589C234.669 765.424 239.025 771.957 245.768 777.318C277.919 802.84 319.888 815.971 356.098 832.328C404.237 854.071 452.632 875.476 499.489 901.162C524.135 914.673 558.559 930.197 575.518 957.772C580.642 966.103 578.458 972.768 581.681 980.777C585.389 990.016 596.657 992.771 603.933 995.344C620.447 1001.19 689.57 1010.03 657.716 1044.34C642.517 1060.68 623.151 1071.16 606.016 1084.01C599.813 1088.66 593.764 1093.34 588.592 1099.61C579.941 1110.14 571.418 1116.14 559.894 1122.82Z" stroke="white" stroke-opacity="0.8" stroke-width="5"/>
<path fill-rule="evenodd" clip-rule="evenodd" d="M449.63 1110.2C349.979 1157.34 233.192 1189.45 124.547 1183.23C88.4172 1181.15 49.5445 1174.22 18.226 1150.51C-0.240734 1136.5 -14.9979 1120.69 -37.181 1115.63C-53.1949 1111.98 -70.4387 1116.12 -86.5473 1117.62C-109.879 1119.8 -133.224 1121.74 -156.59 1123.31C-185.557 1125.23 -214.619 1126.72 -243.64 1125.93C-264.377 1125.36 -293.013 1126 -311.027 1112.4C-332.534 1096.19 -277.789 1020.11 -270.086 1006.56C-251.417 973.703 -238.329 941.87 -233.599 902.275C-232.207 890.739 -227.517 878.914 -228.126 867.287C-228.761 855.412 -234.754 844.84 -240.288 835.504C-247.525 823.267 -272.634 794.244 -265.444 779.321C-261.471 771.081 -246.559 770.042 -238.829 768.295C-224.328 764.999 -209.618 763.228 -195.03 760.607C-170.279 756.141 -145.704 741.597 -120.866 742.009C-54.0734 743.096 13.6853 768.378 79.1399 782.263C118.053 790.544 157.23 798.059 195.67 809.275C207.833 812.826 220.36 816.501 231.921 822.525C239.989 826.728 245.172 834.218 252.645 838.923C281.301 856.994 314.255 867.962 345.026 880.125C384.973 895.947 425.055 911.29 464.725 928.133C489.591 938.689 521.565 947.976 542.991 967.555C558.64 981.852 547.944 986.129 539.687 999.445C535.471 1006.24 536.444 1012.93 534.612 1020.61C531.998 1031.59 524.605 1039.49 517.673 1046.6C508.112 1056.41 495.375 1064.49 487.557 1076.53C484.8 1080.76 484.929 1086.02 482.699 1089.71C476.212 1100.46 459.002 1105.77 449.63 1110.2Z" stroke="white" stroke-width="5"/>
<path fill-rule="evenodd" clip-rule="evenodd" d="M343.68 1093.41C262.802 1123.05 172.811 1139.92 87.3192 1132.09C57.574 1129.36 27.6469 1123.02 -0.0612793 1109.1C-12.6675 1102.78 -22.1307 1095.74 -35.9443 1095.36C-67.9961 1094.49 -100.149 1097.55 -132.194 1098.28C-155.127 1098.81 -178.174 1099 -201.053 1096.75C-216.351 1095.25 -237.037 1093.45 -249.569 1082C-267.781 1065.33 -234.906 1008.64 -228.215 992.977C-217.126 967.002 -206.125 938.127 -210.523 908.072C-211.872 898.881 -214.26 890.762 -214.57 881.389C-214.867 873.336 -214.037 865.9 -216.378 858.201C-219.271 848.656 -232.14 833.843 -227.716 825.056C-224.701 819.055 -215.757 818.774 -209.808 816.854C-200.159 813.739 -190.738 809.653 -181.641 804.637C-172.064 799.329 -163.909 791.127 -153.987 786.741C-137.88 779.636 -119.851 778.968 -102.921 779C-35.3709 779.133 33.0361 795.397 98.8732 812.402C133.158 821.255 167.631 830.694 200.951 844.122C211.068 848.202 222.535 852.299 231.431 859.833C236.982 864.524 240.746 870.401 247.052 873.929C300.924 904.05 363.207 915.235 420.397 936.989C435.283 942.652 517.78 971.264 474.646 998.178C448.442 1014.53 420.754 1021.97 396.844 1044.34C389.559 1051.14 384.703 1056.77 381.856 1067.15C379.981 1074.06 384.494 1070.55 378.194 1077.77C370.552 1086.45 353.103 1089.96 343.68 1093.41Z" stroke="white" stroke-opacity="0.8" stroke-width="5"/>
</g>
<path d="M307.034 660.092C311.553 660.092 315.948 659.89 320.218 659.487C349.047 656.829 371.84 645.463 386.998 629.596C395.016 621.326 401.08 611.365 404.743 600.444C408.193 590.105 409.2 579.107 407.683 568.314C397.208 493.915 309.235 530.094 346.115 484.843C382.995 439.592 310.797 382.039 283.094 395.66C255.391 409.281 285.942 438.412 217.482 424.64C149.022 410.868 163.188 471.378 163.188 471.378" stroke="#CCDDE2" stroke-width="2.0244" stroke-miterlimit="10"/>
<path d="M122.717 595.882C122.717 595.882 91.364 573.4 79.2596 598.264C79.2596 598.264 91.9898 553.147 135.409 537.011C135.409 537.011 147.82 530.106 148.366 534.277C148.912 538.447 152.512 540.577 154.087 540.526C155.662 540.476 168.959 541.308 169.421 539.321C169.883 537.334 169.001 531.383 175.595 531.341C182.189 531.299 217.969 540.09 228.2 549.38C228.2 549.38 210.392 570.88 219.913 594.585L211.891 592.64C211.891 592.64 216.839 635.48 210.094 660.399H93.5858C93.5858 660.399 105.232 661.864 117.177 653.343L134.523 631.083C134.523 631.083 142.129 619.558 157.669 617.911C157.669 617.911 166.515 616.945 166.431 612.741C166.347 608.537 169.618 615.433 173.991 609.356C174.524 609.356 185.15 609.969 185.15 609.969C185.15 609.969 193.13 610.717 194.629 603.594C196.129 596.47 201.656 546.474 199.669 543.471C197.683 540.468 196.923 540.43 180.156 540.531C163.39 540.631 148.656 537.288 146.523 545.629C144.389 553.971 141.924 585.576 141.924 585.576C141.924 585.576 132.474 588.049 125.275 598.285C125.3 598.281 122.717 603.27 122.717 595.882Z" fill="#2E2E2E"/>
<path d="M122.717 580.7V600.381" stroke="black" stroke-width="2.0244" stroke-miterlimit="10"/>
<path d="M211.354 590.54C229.855 600.368 280.986 620.448 282.8 543.214C282.8 543.214 280.599 522.933 286.336 520.287C292.074 517.641 301.326 509.262 289.411 488.976L297.185 481.218C298.235 480.137 298.813 478.683 298.792 477.176C298.77 475.669 298.15 474.232 297.069 473.182C295.988 472.131 294.534 471.553 293.027 471.575C291.52 471.596 290.083 472.216 289.033 473.297L273.581 489.677C273.581 489.677 271.342 485.477 267.373 487.665C263.404 489.853 248.847 499.14 255.458 518.531L238.263 567.923" stroke="black" stroke-width="2.0244" stroke-miterlimit="10"/>
<path d="M273.56 489.668C273.56 489.668 277.68 495.939 268.911 502.348" stroke="black" stroke-width="2.0244" stroke-miterlimit="10"/>
<path d="M291.948 493.848C291.948 493.848 294.514 501.907 284.161 507.107C280.498 508.947 276.479 505.074 278.209 501.357C278.239 501.303 278.264 501.244 278.293 501.185" stroke="black" stroke-width="2.0244" stroke-miterlimit="10"/>
<path d="M295.081 503.802C295.081 503.802 292.817 511.673 286.622 512.051C281.141 512.382 282.061 506.792 282.061 506.792" stroke="black" stroke-width="2.0244" stroke-miterlimit="10"/>
<path d="M189.098 498.871C188.678 498.98 188.413 498.631 188.023 498.699C182.407 497.674 178.233 493.239 177.762 491.105C177.922 492.268 180.055 492.151 179.694 493.339C179.627 493.566 179.493 493.478 179.383 493.696C179.207 494.116 179.211 493.541 178.963 493.919C177.586 491.882 176.788 490.87 176.544 489.748C176.71 490.952 176.612 492.177 176.259 493.339C176.194 493.567 176.108 493.787 176.002 493.999C175.162 495.981 173.411 497.657 170.484 498.073C169.75 498.166 169.009 498.19 168.27 498.144C166.17 498.022 164.356 497.901 162.81 497.833C157.644 497.602 155.792 497.993 156.372 501.328C156.691 502.836 157.144 504.313 157.724 505.742C158.749 508.438 159.463 513.109 158.413 518.195V518.224C157.195 524.146 153.339 528.724 145.078 533.025C143.614 533.781 142.105 534.444 140.559 535.012C126.224 540.329 91.9352 553.798 77.7224 603.19C76.2104 608.453 75.0806 613.241 74.2826 617.613L73.892 617.386C64.1858 611.569 57.8564 598.52 59.78 587.293C60.7376 581.72 64.3664 577.831 69.02 574.903C72.2876 572.879 75.782 571.22 78.7094 568.721C88.4114 560.434 80.654 547.549 86.0258 537.641C92.0822 526.494 101.566 519.623 113.947 519.056C117.064 519.19 120.571 519.556 123.973 519.392C128.912 519.568 133.96 519.165 137.577 515.927C140.424 513.407 141.016 509.299 142.096 505.872C143.311 502.008 144.325 498.082 145.132 494.112C145.871 490.348 147.249 486.739 149.206 483.44C151.319 479.865 154.299 476.881 157.871 474.763C160.987 473.004 164.46 471.975 168.031 471.751C171.282 471.943 174.445 472.886 177.271 474.507C178.236 475.077 179.148 475.732 179.997 476.464C186.25 481.798 189.245 490.828 189.098 498.871Z" fill="#31AAB7"/>
<path d="M283.984 511.58C283.984 511.58 281.981 514.066 283.077 516.427C284.173 518.787 286.895 519.337 289.541 518.304" stroke="black" stroke-width="2.0244" stroke-miterlimit="10"/>
<path d="M289.402 488.976L283.867 494.507" stroke="black" stroke-width="2.0244" stroke-miterlimit="10"/>
<path d="M141.945 585.034L146.451 546.184C146.634 544.612 147.387 543.162 148.569 542.11C149.751 541.057 151.278 540.476 152.86 540.476H194.247C195.153 540.476 196.048 540.666 196.875 541.034C197.703 541.403 198.443 541.941 199.048 542.615C199.654 543.288 200.111 544.082 200.389 544.943C200.668 545.805 200.761 546.716 200.665 547.616L194.634 603.598C194.463 605.181 193.713 606.645 192.528 607.708C191.344 608.772 189.808 609.36 188.216 609.36H173.407" stroke="black" stroke-width="2.0244" stroke-miterlimit="10"/>
<path d="M190.862 550.371C191.794 550.371 192.55 549.616 192.55 548.683C192.55 547.751 191.794 546.995 190.862 546.995C189.93 546.995 189.174 547.751 189.174 548.683C189.174 549.616 189.93 550.371 190.862 550.371Z" fill="black"/>
<path d="M162.991 594.047C167.359 595.03 168.232 595.047 172.47 595.677C175.141 596.076 181.248 596.407 181.357 592.262C181.458 588.621 177.372 586.483 174.486 585.319C171.156 584.053 167.671 583.238 164.125 582.896C162.663 582.728 161.195 582.613 159.719 582.552C149.492 582.132 137.694 584.605 130.651 592.606C114.334 611.12 92.6366 623.023 92.6366 623.023" stroke="black" stroke-width="2.0244" stroke-miterlimit="10"/>
<path d="M174.688 595.882C176.788 596.773 180.345 598.671 178.888 602.308C178.224 603.988 177.019 604.585 175.364 604.828C171.79 605.345 167.955 604.585 164.444 603.85C163.146 603.577 160.845 603.077 159.564 602.724" stroke="black" stroke-width="2.0244" stroke-miterlimit="10"/>
<path d="M170.954 604.912C170.954 604.912 174.772 604.866 173.852 608.415C172.336 614.295 160.555 611.632 155.044 610.397" stroke="black" stroke-width="2.0244" stroke-miterlimit="10"/>
<path d="M171.189 531.66C189.14 532.446 216.495 537.708 241.3 559.166" stroke="black" stroke-width="2.0244" stroke-miterlimit="10"/>
<path d="M307.034 660.096L93.5858 660.415" stroke="black" stroke-width="2.0244" stroke-miterlimit="10"/>
<path d="M211.354 582.51C211.354 582.51 215.554 621.599 211.354 660.096" stroke="black" stroke-width="2.0244" stroke-miterlimit="10"/>
<path opacity="0.54" d="M396.708 564.655L433.622 470.067C434.08 468.237 434.114 466.327 433.723 464.481C433.332 462.636 432.525 460.904 431.364 459.417C430.204 457.93 428.719 456.727 427.024 455.899C425.329 455.071 423.467 454.641 421.581 454.641H274.938C271.645 454.64 268.448 455.748 265.862 457.786C263.276 459.825 261.452 462.674 260.683 465.876L220.262 560.443C219.823 562.268 219.804 564.169 220.206 566.003C220.608 567.836 221.42 569.555 222.582 571.029C223.744 572.504 225.225 573.696 226.914 574.515C228.603 575.334 230.456 575.76 232.333 575.76H382.483C385.753 575.761 388.929 574.668 391.506 572.656C394.084 570.644 395.915 567.828 396.708 564.655Z" fill="white"/>
<path d="M396.708 564.655L433.622 470.067C434.08 468.237 434.114 466.327 433.723 464.481C433.332 462.636 432.525 460.904 431.364 459.417C430.204 457.93 428.719 456.727 427.024 455.899C425.329 455.071 423.467 454.641 421.581 454.641H274.938C271.645 454.64 268.448 455.748 265.862 457.786C263.276 459.825 261.452 462.674 260.683 465.876L220.262 560.443C219.823 562.268 219.804 564.169 220.206 566.003C220.608 567.836 221.42 569.555 222.582 571.029C223.744 572.504 225.225 573.696 226.914 574.515C228.603 575.334 230.456 575.76 232.333 575.76H382.483C385.753 575.761 388.929 574.668 391.506 572.656C394.084 570.644 395.915 567.828 396.708 564.655Z" fill="#31AAB7"/>
<path d="M396.708 564.655L433.622 470.067C434.08 468.237 434.114 466.327 433.723 464.481C433.332 462.636 432.525 460.904 431.364 459.417C430.204 457.93 428.719 456.727 427.024 455.899C425.329 455.071 423.467 454.641 421.581 454.641H274.938C271.645 454.64 268.448 455.748 265.862 457.786C263.276 459.825 261.452 462.674 260.683 465.876L220.262 560.443C219.823 562.268 219.804 564.169 220.206 566.003C220.608 567.836 221.42 569.555 222.582 571.029C223.744 572.504 225.225 573.696 226.914 574.515C228.603 575.334 230.456 575.76 232.333 575.76H382.483C385.753 575.761 388.929 574.668 391.506 572.656C394.084 570.644 395.915 567.828 396.708 564.655V564.655Z" stroke="black" stroke-width="2.0244" stroke-linecap="square" stroke-linejoin="round"/>
<path d="M391.307 560.825L425.365 473.562C425.786 471.874 425.818 470.112 425.457 468.41C425.096 466.708 424.353 465.111 423.282 463.739C422.212 462.367 420.843 461.258 419.28 460.494C417.717 459.731 416 459.333 414.26 459.332H278.965C275.928 459.331 272.978 460.354 270.592 462.234C268.207 464.115 266.524 466.744 265.815 469.698L228.523 556.94C228.119 558.624 228.101 560.378 228.472 562.069C228.844 563.761 229.593 565.346 230.665 566.706C231.738 568.066 233.104 569.165 234.662 569.921C236.221 570.677 237.93 571.069 239.662 571.069H378.186C381.202 571.068 384.131 570.059 386.508 568.203C388.885 566.347 390.574 563.75 391.307 560.825Z" fill="#31AAB7"/>
<path d="M288.726 475.376C290.52 472.684 293.455 471.487 295.282 472.701C297.109 473.914 297.135 477.085 295.341 479.778C295.063 480.191 294.748 480.579 294.4 480.937L307.693 509.001C309.793 507.586 312.145 507.237 313.817 508.35C314.896 509.068 315.497 510.291 315.686 511.71L324.766 508.644L332.709 505.99C333.549 505.7 334.435 505.423 335.3 505.15C335.626 504.175 336.08 503.247 336.648 502.39C339.168 498.61 343.288 496.93 345.85 498.61C348.412 500.29 348.446 504.688 345.997 508.447L361.117 529.123C364.414 526.419 368.299 525.583 370.992 527.372C374.654 529.808 374.709 536.167 371.113 541.572C370.971 541.786 370.807 541.963 370.656 542.169L380.736 555.94C380.765 555.982 380.803 556.033 380.828 556.075C381.083 556.459 381.259 556.89 381.348 557.343C381.436 557.796 381.434 558.261 381.343 558.713C381.251 559.165 381.071 559.595 380.814 559.977C380.556 560.36 380.225 560.688 379.841 560.943C379.457 561.198 379.026 561.374 378.573 561.462C378.12 561.551 377.655 561.549 377.203 561.457C376.751 561.366 376.321 561.186 375.939 560.928C375.556 560.671 375.228 560.34 374.973 559.956L366.023 546.453C363.192 548.095 360.185 548.41 357.98 546.94C354.477 544.613 354.309 538.716 357.43 533.5L342.936 511.63C340.798 513.084 338.437 513.453 336.745 512.332C335.8 511.665 335.155 510.652 334.951 509.514C334.59 509.61 334.233 509.715 333.872 509.816L325.795 512.021L315.459 514.806C315.143 516.045 314.62 517.222 313.914 518.287C311.394 522.067 307.278 523.747 304.711 522.046C302.145 520.345 302.107 515.889 304.623 512.105C304.998 511.556 305.42 511.041 305.883 510.564L293.229 481.949C291.704 482.986 290.02 483.255 288.814 482.453C286.962 481.243 286.933 478.072 288.726 475.376Z" fill="white"/>
<path d="M384.99 476.926H404.6C405.497 476.926 406.375 476.664 407.126 476.174C407.877 475.683 408.469 474.984 408.829 474.162C408.945 473.91 409.006 473.637 409.01 473.36C409.006 472.825 408.79 472.313 408.41 471.935C408.03 471.558 407.517 471.345 406.981 471.344H386.12C387.115 473.003 386.62 475.296 384.99 476.926Z" fill="#D7E8F0"/>
<path d="M372.31 474.914C372.312 475.448 372.524 475.96 372.902 476.337C373.28 476.714 373.792 476.926 374.326 476.926H384.99C386.62 475.296 387.115 473.003 386.137 471.344H376.72C375.824 471.344 374.947 471.604 374.196 472.093C373.445 472.582 372.853 473.279 372.491 474.099C372.377 474.356 372.316 474.633 372.31 474.914Z" fill="#31AAB7"/>
<path d="M377.216 476.926C377.271 477.034 377.336 477.136 377.409 477.232C378.808 479.143 381.84 479.332 384.201 477.602C384.48 477.396 384.744 477.17 384.99 476.926C386.62 475.296 387.115 473.003 386.137 471.344C386.081 471.238 386.017 471.137 385.944 471.042C384.558 469.118 381.525 468.942 379.165 470.66C378.882 470.869 378.614 471.098 378.363 471.344C376.746 472.978 376.25 475.258 377.216 476.926Z" fill="white"/>
<path d="M367.38 487.22C367.384 487.755 367.6 488.267 367.98 488.644C368.36 489.021 368.873 489.232 369.408 489.232H389.988C388.993 487.552 389.488 485.284 391.122 483.654H371.802C370.905 483.655 370.027 483.916 369.276 484.407C368.525 484.898 367.933 485.596 367.573 486.418C367.455 486.67 367.39 486.942 367.38 487.22Z" fill="#31AAB7"/>
<path d="M389.984 489.232H399.644C400.54 489.233 401.417 488.973 402.167 488.485C402.918 487.996 403.511 487.3 403.873 486.481C403.989 486.225 404.051 485.947 404.054 485.666C404.055 485.402 404.003 485.14 403.902 484.896C403.801 484.651 403.653 484.429 403.466 484.242C403.279 484.055 403.057 483.907 402.813 483.806C402.568 483.705 402.307 483.654 402.042 483.654H391.118C389.48 485.284 388.989 487.564 389.984 489.232Z" fill="#D7E8F0"/>
<path d="M389.984 489.232C390.027 489.342 390.087 489.445 390.16 489.538C391.551 491.462 394.583 491.638 396.939 489.92C397.225 489.713 397.493 489.483 397.741 489.232C399.358 487.602 399.841 485.321 398.888 483.654C398.834 483.546 398.771 483.444 398.699 483.347C397.296 481.436 394.264 481.247 391.908 482.978C391.627 483.182 391.363 483.408 391.118 483.654C389.48 485.284 388.989 487.564 389.984 489.232Z" fill="white"/>
<path d="M383.13 501.454H395.448C396.344 501.454 397.222 501.194 397.972 500.705C398.723 500.216 399.316 499.519 399.678 498.699C399.794 498.447 399.855 498.174 399.858 497.896C399.856 497.36 399.641 496.845 399.261 496.466C398.881 496.087 398.367 495.873 397.83 495.872H384.276C385.242 497.539 384.747 499.82 383.13 501.454Z" fill="#31AAB7"/>
<path d="M363.163 499.45C363.165 499.983 363.379 500.494 363.757 500.869C364.134 501.245 364.646 501.455 365.179 501.454H383.13C384.747 499.82 385.23 497.539 384.276 495.872H367.573C366.676 495.872 365.798 496.134 365.047 496.625C364.296 497.115 363.704 497.814 363.343 498.636C363.228 498.892 363.167 499.169 363.163 499.45Z" fill="#D7E8F0"/>
<path d="M375.355 501.454C375.411 501.56 375.475 501.661 375.549 501.756C376.935 503.68 379.967 503.856 382.327 502.138C382.61 501.929 382.878 501.7 383.13 501.454C384.747 499.82 385.23 497.539 384.276 495.872C384.221 495.764 384.156 495.662 384.083 495.565C382.684 493.654 379.652 493.491 377.292 495.196C377.012 495.402 376.748 495.628 376.502 495.872C374.872 497.502 374.36 499.795 375.355 501.454Z" fill="white"/>
<path d="M303.489 559.099H315.808C316.704 559.099 317.581 558.839 318.332 558.35C319.083 557.861 319.675 557.164 320.037 556.344C320.178 556.037 320.239 555.7 320.213 555.363C320.188 555.027 320.078 554.702 319.894 554.42C319.709 554.138 319.456 553.907 319.158 553.749C318.86 553.591 318.527 553.511 318.189 553.517H304.64C305.602 555.184 305.106 557.465 303.489 559.099Z" fill="#31AAB7"/>
<path d="M254.584 557.095C254.585 557.359 254.637 557.62 254.739 557.863C254.84 558.106 254.989 558.327 255.175 558.513C255.362 558.699 255.584 558.847 255.828 558.947C256.071 559.048 256.333 559.099 256.596 559.098H303.489C305.106 557.465 305.589 555.184 304.636 553.517H258.994C258.097 553.517 257.22 553.778 256.469 554.269C255.717 554.76 255.126 555.459 254.765 556.28C254.65 556.537 254.588 556.814 254.584 557.095Z" fill="#D7E8F0"/>
<path d="M295.715 559.099C295.77 559.205 295.835 559.306 295.908 559.401C297.294 561.329 300.327 561.501 302.687 559.783C302.97 559.574 303.238 559.345 303.489 559.099C305.106 557.465 305.589 555.184 304.636 553.517C304.581 553.409 304.516 553.307 304.443 553.21C303.04 551.299 300.007 551.136 297.651 552.841C297.372 553.047 297.108 553.273 296.862 553.517C295.232 555.147 294.736 557.44 295.715 559.099Z" fill="white"/>
<path d="M74.984 619.595C73.4199 618.979 71.9074 618.238 70.4606 617.382C60.746 611.565 54.4166 598.52 56.3444 587.289C57.3062 581.716 60.935 577.831 65.6054 574.899C68.8688 572.875 72.38 571.22 75.2948 568.721C84.9968 560.434 77.2352 547.544 82.607 537.641C89.138 525.629 99.638 518.585 113.473 519.043C120.113 519.262 128.736 520.786 134.158 515.927C137.005 513.407 137.602 509.299 138.681 505.872C139.898 502.007 140.913 498.082 141.722 494.112C142.449 490.349 143.819 486.738 145.771 483.44C147.883 479.862 150.863 476.873 154.435 474.75C161.155 470.873 170.526 470.516 177.279 474.502C178.241 475.074 179.151 475.727 180.001 476.455C186.25 481.814 189.241 490.84 189.098 498.887" stroke="black" stroke-width="2.0244" stroke-miterlimit="10"/>
<path d="M176.406 489.039C176.754 491.407 178.195 493.591 180.753 494.247C183.642 494.982 185.175 497.796 185.99 500.622C187.148 504.769 186.851 509.187 185.15 513.142C183.571 516.864 180.757 521.122 175.998 521.79C167.292 523.05 162.957 519.363 162.957 519.363" stroke="black" stroke-width="2.0244" stroke-miterlimit="10"/>
<path d="M169.152 501.693C169.978 501.693 170.647 501.024 170.647 500.198C170.647 499.372 169.978 498.703 169.152 498.703C168.326 498.703 167.657 499.372 167.657 500.198C167.657 501.024 168.326 501.693 169.152 501.693Z" fill="black"/>
<path d="M182.302 500.702C183.128 500.702 183.798 500.033 183.798 499.207C183.798 498.381 183.128 497.712 182.302 497.712C181.477 497.712 180.807 498.381 180.807 499.207C180.807 500.033 181.477 500.702 182.302 500.702Z" fill="black"/>
<path d="M165.683 612.065C167.859 613.401 166.103 615.601 164.524 616.345C161.811 617.605 158.304 617.827 155.347 618.18C132.864 620.826 125.359 651.688 111.247 657.425C97.1348 663.162 59.2634 667.354 77.735 603.186C91.9562 553.803 126.245 540.333 140.58 535.016C142.123 534.449 143.629 533.787 145.09 533.034C153.352 528.741 157.22 524.146 158.434 518.22C158.434 518.22 158.434 518.22 158.434 518.195C159.484 513.109 158.778 508.438 157.749 505.738C157.159 504.311 156.701 502.834 156.38 501.324C155.616 497.027 158.934 497.632 168.249 498.144C172.525 498.396 174.944 496.464 175.986 494.003C176.088 493.79 176.171 493.568 176.233 493.339C176.672 491.946 176.724 490.459 176.385 489.039" stroke="black" stroke-width="2.0244" stroke-miterlimit="10"/>
<path d="M175.595 500.559C175.595 500.559 177.166 506.3 177.006 507.149C176.847 507.997 174.835 507.342 174.835 507.342" stroke="black" stroke-width="2.0244" stroke-miterlimit="10"/>
<path d="M174.511 512.6C171.5 514.222 168.018 513.201 166.657 510.5" stroke="black" stroke-width="2.0244" stroke-miterlimit="10"/>
<path d="M171.553 506.308C174.358 503.66 174.537 499.294 171.953 496.556C169.368 493.819 165 493.746 162.194 496.394C159.389 499.042 159.21 503.408 161.795 506.145C164.379 508.883 168.748 508.956 171.553 506.308Z" stroke="black" stroke-width="2.0244" stroke-miterlimit="10"/>
<path d="M188.996 504.715C191.801 502.067 191.98 497.701 189.396 494.964C186.812 492.226 182.443 492.154 179.638 494.802C176.833 497.45 176.654 501.815 179.238 504.553C181.822 507.291 186.191 507.363 188.996 504.715Z" stroke="black" stroke-width="2.0244" stroke-miterlimit="10"/>
<path d="M184.461 494.969C185.642 494.961 186.78 495.406 187.643 496.211C188.506 497.016 189.028 498.121 189.102 499.299C189.178 500.582 188.752 501.844 187.915 502.819C187.079 503.795 185.896 504.407 184.617 504.528C184.47 504.528 184.318 504.528 184.171 504.528C182.998 504.537 181.865 504.098 181.003 503.302C180.141 502.505 179.615 501.411 179.53 500.24C179.449 498.954 179.872 497.686 180.71 496.706C181.547 495.726 182.733 495.111 184.016 494.99C184.163 494.99 184.314 494.99 184.461 494.99V494.969ZM184.461 493.978C184.285 493.978 184.104 493.978 183.924 494.003C182.382 494.149 180.958 494.888 179.95 496.063C178.942 497.237 178.429 498.757 178.518 500.303C178.612 501.736 179.25 503.08 180.3 504.059C181.351 505.038 182.735 505.58 184.171 505.574C184.348 505.574 184.528 505.574 184.709 505.549C186.251 505.404 187.676 504.667 188.684 503.491C189.692 502.316 190.203 500.794 190.11 499.249C190.026 497.809 189.394 496.457 188.343 495.469C187.292 494.482 185.903 493.934 184.461 493.94V493.978Z" fill="white"/>
<path d="M173.764 500.727L177.426 500.391" stroke="black" stroke-width="2.0244" stroke-miterlimit="10"/>
<path d="M167.023 496.426C168.239 496.414 169.413 496.87 170.303 497.7C171.192 498.529 171.729 499.668 171.802 500.882C171.881 502.204 171.443 503.505 170.581 504.511C169.72 505.516 168.501 506.147 167.182 506.271C167.031 506.271 166.876 506.271 166.725 506.271C165.508 506.282 164.333 505.825 163.443 504.995C162.553 504.165 162.015 503.025 161.941 501.811C161.863 500.489 162.301 499.19 163.163 498.185C164.025 497.181 165.243 496.55 166.561 496.426C166.714 496.411 166.869 496.404 167.023 496.405V496.426ZM167.023 495.393C166.838 495.393 166.653 495.401 166.468 495.418C164.88 495.566 163.412 496.328 162.378 497.543C161.344 498.758 160.825 500.328 160.933 501.92C161.029 503.388 161.682 504.765 162.758 505.768C163.834 506.772 165.253 507.327 166.725 507.321C166.905 507.321 167.09 507.321 167.275 507.296C168.856 507.147 170.317 506.39 171.35 505.184C172.383 503.978 172.907 502.417 172.81 500.832C172.715 499.364 172.063 497.988 170.988 496.984C169.912 495.98 168.494 495.425 167.023 495.431V495.393Z" fill="white"/>
<path d="M188.333 504.013C190.738 501.742 190.89 497.997 188.672 495.647C186.454 493.297 182.706 493.233 180.301 495.504C177.895 497.775 177.744 501.52 179.962 503.87C182.18 506.219 185.928 506.283 188.333 504.013Z" fill="#31AAB7"/>
<path d="M172.151 505.85C174.577 503.557 174.729 499.777 172.49 497.408C170.251 495.039 166.469 494.978 164.042 497.271C161.616 499.565 161.464 503.345 163.703 505.714C165.942 508.083 169.724 508.144 172.151 505.85Z" fill="#31AAB7"/>
<path d="M152.067 540.526C150.219 538.599 148.614 535.764 147.56 531.66" stroke="black" stroke-width="2.0244" stroke-miterlimit="10"/>
<path d="M169.152 540.476L171.189 531.661L173.403 522.16" stroke="black" stroke-width="2.0244" stroke-miterlimit="10"/>
<path d="M177.479 575.579C178.262 571.737 176.144 568.063 172.748 567.37C169.352 566.678 165.965 569.231 165.182 573.072C164.399 576.913 166.517 580.588 169.913 581.28C173.308 581.973 176.696 579.42 177.479 575.579Z" fill="#D7E8F0"/>
<path d="M307.399 638.076L303.955 657.32C303.859 657.86 303.575 658.349 303.155 658.702C302.734 659.054 302.203 659.248 301.654 659.248H283.64C283.085 659.248 282.549 659.052 282.126 658.693C281.703 658.335 281.421 657.838 281.33 657.291L278.18 638.076H307.399Z" stroke="#CCDDE2" stroke-width="2.0244" stroke-miterlimit="10"/>
<path d="M310.675 635.925C310.627 636.51 310.361 637.056 309.929 637.455C309.497 637.853 308.932 638.074 308.344 638.076H277.264C276.685 638.076 276.126 637.861 275.696 637.473C275.265 637.085 274.994 636.552 274.933 635.976V635.976C274.902 635.651 274.94 635.323 275.043 635.014C275.146 634.704 275.312 634.42 275.532 634.179C275.751 633.937 276.019 633.745 276.317 633.613C276.616 633.481 276.938 633.413 277.264 633.414H308.344C308.666 633.414 308.984 633.48 309.279 633.609C309.573 633.738 309.838 633.926 310.057 634.162C310.276 634.397 310.444 634.675 310.55 634.979C310.656 635.282 310.699 635.604 310.675 635.925V635.925Z" stroke="#CCDDE2" stroke-width="2.0244" stroke-miterlimit="10"/>
<path d="M293.783 633.38C293.783 632.393 296.303 620.1 294.203 609.201C293.061 603.22 290.541 597.663 285.467 594.618" stroke="#CCDDE2" stroke-width="2.0244" stroke-miterlimit="10"/>
<path d="M294.211 609.217C294.211 609.217 294.787 600.935 301.944 600.364" stroke="#CCDDE2" stroke-width="2.0244" stroke-miterlimit="10"/>
<path d="M294.98 621.855C297.016 620.429 299.469 619.719 301.952 619.839" stroke="#CCDDE2" stroke-width="2.0244" stroke-miterlimit="10"/>
<path d="M294.98 615.971C294.98 615.971 289.781 609.814 281.473 614.686" stroke="#CCDDE2" stroke-width="2.0244" stroke-miterlimit="10"/>
<path d="M291.313 613.493C291.313 613.493 279.604 602.8 277.311 617.273C277.311 617.273 280.608 619.42 285.475 617.273C290.343 615.127 291.313 613.493 291.313 613.493Z" stroke="#CCDDE2" stroke-width="2.0244" stroke-miterlimit="10"/>
<path d="M296.786 602.884C296.786 602.884 296.366 598.071 301.944 596.496C307.521 594.921 310.684 601.51 310.684 601.51C310.684 601.51 306.379 606.269 296.786 602.884Z" stroke="#CCDDE2" stroke-width="2.0244" stroke-miterlimit="10"/>
<path d="M298.08 619.835C298.08 619.835 297.886 614.968 304.38 615.971C310.873 616.975 311.94 622.515 311.94 622.515C311.94 622.515 301.305 626.413 298.08 620.348" stroke="#CCDDE2" stroke-width="2.0244" stroke-miterlimit="10"/>
<path d="M290.255 599.137C290.255 599.482 285.375 598.717 285.064 598.608C282.699 597.903 281.019 596.265 279.915 594.097C279.574 593.425 277.605 589.658 278.163 589.003C278.18 589.003 289.78 585.265 290.255 599.137Z" stroke="#CCDDE2" stroke-width="2.0244" stroke-miterlimit="10"/>
<path d="M404.751 600.444C401.089 611.366 395.025 621.329 387.006 629.6C371.84 645.468 349.047 656.833 320.226 659.492V600.444H404.751Z" stroke="#CCDDE2" stroke-width="2.0244" stroke-miterlimit="10"/>
<path d="M387.006 629.6C371.84 645.468 349.047 656.833 320.226 659.491V629.6H387.006Z" stroke="#CCDDE2" stroke-width="2.0244" stroke-miterlimit="10"/>
<path d="M378.232 615.603C378.232 613.248 376.323 611.338 373.967 611.338C371.612 611.338 369.702 613.248 369.702 615.603C369.702 617.959 371.612 619.869 373.967 619.869C376.323 619.869 378.232 617.959 378.232 615.603Z" stroke="#CCDDE2" stroke-width="2.0244" stroke-miterlimit="10"/>
</g>
<defs>
<clipPath id="clip0_131:12053">
<rect width="491" height="800" fill="white"/>
</clipPath>
<clipPath id="clip1_131:12053">
<rect width="1600" height="1200" fill="white" transform="translate(-446 -310)"/>
</clipPath>
</defs>
</svg>
