<svg width="150" height="57" viewBox="0 0 150 57" fill="none" xmlns="http://www.w3.org/2000/svg">
<path d="M39.2 32.4492L39.2 52.751C39.2 54.8768 41.0109 56.6001 43.2448 56.6001L64.5552 56.6001C66.7891 56.6001 68.6 54.8768 68.6 52.751L68.6 32.4492C68.6 30.3234 66.7891 28.6001 64.5552 28.6001L43.2448 28.6001C41.0109 28.6001 39.2 30.3234 39.2 32.4492Z" fill="#31AAB7" fill-opacity="0.15"/>
<path d="M11.2 31.7398L11.2 40.8602C11.2 42.5943 12.7343 44 14.6269 44L24.5731 44C26.4657 44 28 42.5943 28 40.8602L28 31.7398C28 30.0057 26.4657 28.6 24.5731 28.6L14.6269 28.6C12.7343 28.6 11.2 30.0057 11.2 31.7398Z" fill="#31AAB7" fill-opacity="0.15"/>
<path d="M23.8 3.70761L23.8 15.693C23.8 17.4091 25.1895 18.8003 26.9035 18.8003L38.8965 18.8003C40.6105 18.8003 42 17.4091 42 15.693L42 3.70761C42 1.99149 40.6105 0.600289 38.8965 0.60029L26.9035 0.600292C25.1895 0.600292 23.8 1.99149 23.8 3.70761Z" fill="#31AAB7" fill-opacity="0.15"/>
<path d="M6.22529e-06 10.7698L7.32001e-06 17.0308C7.49088e-06 18.0081 0.904764 18.8003 2.02083 18.8003L9.17918 18.8003C10.2953 18.8003 11.2 18.0081 11.2 17.0308L11.2 10.7698C11.2 9.79252 10.2953 9.00029 9.17918 9.00029L2.02083 9.00029C0.904762 9.00029 6.05443e-06 9.79252 6.22529e-06 10.7698Z" fill="#31AAB7" fill-opacity="0.15"/>
<path d="M119.8 32.4492L119.8 52.751C119.8 54.8768 121.611 56.6001 123.845 56.6001L145.155 56.6001C147.389 56.6001 149.2 54.8768 149.2 52.751L149.2 32.4492C149.2 30.3234 147.389 28.6001 145.155 28.6001L123.845 28.6001C121.611 28.6001 119.8 30.3234 119.8 32.4492Z" fill="#31AAB7" fill-opacity="0.15"/>
<path d="M91.8 31.7398L91.8 40.8602C91.8 42.5943 93.3343 44 95.2269 44L105.173 44C107.066 44 108.6 42.5943 108.6 40.8602L108.6 31.7398C108.6 30.0057 107.066 28.6 105.173 28.6L95.2269 28.6C93.3343 28.6 91.8 30.0057 91.8 31.7398Z" fill="#31AAB7" fill-opacity="0.15"/>
<path d="M104.4 3.70761L104.4 15.693C104.4 17.4091 105.79 18.8003 107.504 18.8003L119.496 18.8003C121.211 18.8003 122.6 17.4091 122.6 15.693L122.6 3.70761C122.6 1.99149 121.211 0.600289 119.496 0.60029L107.504 0.600292C105.79 0.600292 104.4 1.99149 104.4 3.70761Z" fill="#31AAB7" fill-opacity="0.15"/>
<path d="M80.6 10.7698L80.6 17.0308C80.6 18.0081 81.5048 18.8003 82.6208 18.8003L89.7792 18.8003C90.8953 18.8003 91.8 18.0081 91.8 17.0308L91.8 10.7698C91.8 9.79252 90.8953 9.00029 89.7792 9.00029L82.6208 9.00029C81.5048 9.00029 80.6 9.79252 80.6 10.7698Z" fill="#31AAB7" fill-opacity="0.15"/>
</svg>
