<svg width="96" height="96" viewBox="0 0 96 96" fill="none" xmlns="http://www.w3.org/2000/svg">
<g clip-path="url(#clip0_856_15716)">
<rect width="96" height="96" rx="48" fill="#B8D0EC"/>
<path d="M61.1672 62.756C53.1068 67.556 43.274 61.9004 43.736 61.802C58.9736 58.4888 60.32 48.8756 60.32 48.8756C57.278 41.4428 48.986 43.8356 48.986 43.8356C48.746 54.3836 36.1916 54.9776 36.1916 54.9776C35.3852 51.5552 35.4296 43.5644 35.4296 43.5644C31.6244 40.904 30.854 42.0332 30.854 42.0332C32.054 31.4732 36.8864 28.0688 36.8864 28.0688C37.6916 27.3188 41.2904 25.6328 43.1384 25.4144L43.2044 25.7072C43.2044 25.7072 41.336 30.3728 44.9168 30.68C47.93 30.944 49.6424 27.2348 50.1092 26.0576C54.0272 27.272 57.7664 29.99 60.254 34.562C66.1388 45.3788 61.1672 62.756 61.1672 62.756Z" fill="#2E2E2E"/>
<path d="M62.0382 58.2044L81.6234 71.1644C85.4214 73.6772 84.933 79.3964 80.7678 81.2288L57.8478 91.316C55.7163 92.2539 53.3793 92.6274 51.0616 92.4006C48.7439 92.1738 46.5236 91.3544 44.6143 90.0212L35.8123 83.8676" stroke="black" stroke-width="0.70307" stroke-miterlimit="10"/>
<path d="M62.0384 62.384L61.3796 61.9472L81.6272 75.3416C85.4252 77.8544 84.9368 83.5736 80.7716 85.406L57.8516 95.4932C55.72 96.4311 53.383 96.8046 51.0653 96.5778C48.7476 96.351 46.5273 95.5316 44.618 94.1984L33.4268 86.228" stroke="black" stroke-width="0.70307" stroke-miterlimit="10"/>
<path d="M79.0819 80.5136L58.0159 89.786C56.0569 90.6476 53.9091 90.9907 51.7791 90.7823C49.6492 90.5738 47.6087 89.8208 45.8539 88.5956L37.7815 82.9244C38.893 82.0726 40.1384 81.4116 41.4667 80.9684C44.7943 79.8381 48.0417 78.4842 51.1867 76.916C53.5741 75.7349 55.6712 74.0412 57.3282 71.9559C58.9852 69.8705 60.1613 67.4449 60.7723 64.8524C61.1947 63.0584 61.5655 61.244 61.8691 59.42L80.4091 71.6756C83.8987 73.9844 82.9087 78.8312 79.0819 80.5136Z" fill="#31AAB7"/>
<path d="M27.6884 62.8616C22.2284 64.9868 16.4504 69.98 18.1124 83.8076L18.5744 87.4004" stroke="black" stroke-width="0.70307" stroke-miterlimit="10"/>
<path d="M27.6799 53.8316C28.5727 52.5572 29.3791 51.1796 29.8735 49.6964C30.3679 48.2132 30.3931 46.6064 30.5311 45.0464C30.8983 40.8632 31.4671 37.4036 33.0811 33.5072C34.4791 30.1352 38.7019 25.7912 42.9031 25.3796L43.2811 25.3472" stroke="black" stroke-width="0.70307" stroke-miterlimit="10"/>
<path d="M38.2398 62.5556C38.2195 62.4968 38.1992 62.4416 38.1777 62.384" stroke="black" stroke-width="0.70307" stroke-miterlimit="10"/>
<path d="M36.1916 54.7184C35.9852 53.5052 35.8316 52.3292 35.7116 51.2132C35.7119 51.1922 35.7095 51.1712 35.7044 51.1508C35.0756 44.9192 35.7116 40.3856 35.7116 40.3856" stroke="black" stroke-width="0.70307" stroke-miterlimit="10"/>
<path d="M50.8686 16.8968L49.9086 17.2712C49.9086 17.3012 49.9086 17.6756 49.8678 18.2C49.8232 18.8263 49.7236 19.4475 49.5702 20.0564C49.6554 19.6412 49.779 18.6548 49.2366 17.9684C49.2282 17.9544 49.2186 17.9411 49.2078 17.9288C48.8478 17.4956 48.4038 17.6672 48.0474 17.9648C47.8013 18.1731 47.5863 18.4155 47.409 18.6848C47.4712 17.8831 47.3274 17.0789 46.9914 16.3484C46.7723 15.8501 46.4816 15.3864 46.1286 14.972C46.6722 16.844 45.975 18.0692 45.975 18.0692C44.133 18.5024 42.855 18.41 41.9022 18.2456C41.0994 17.4968 41.3778 14.8004 41.3778 14.8004C40.5702 15.4604 40.7646 18.014 40.7646 18.014C40.6615 17.3476 40.6741 16.6685 40.8018 16.0064C40.4007 16.5737 40.1689 17.2433 40.1334 17.9372L40.119 17.93C40.0634 17.9157 40.0085 17.8985 39.9546 17.8784C39.8558 17.8264 39.76 17.7687 39.6678 17.7056L39.1362 17.3456C39.939 13.25 42.7458 10.6748 47.0826 11.4308C47.3657 11.4796 47.6443 11.5518 47.9154 11.6468C50.7726 13.136 50.8686 16.8968 50.8686 16.8968Z" fill="#31AAB7"/>
<path d="M26.1202 56.7848L25.027 53.4944C25.0028 53.4178 24.9594 53.3486 24.9011 53.2934C24.8427 53.2382 24.7712 53.1987 24.6934 53.1788C24.6838 53.1788 24.673 53.1788 24.6622 53.1716C24.6514 53.1644 24.649 53.1716 24.6418 53.1716C24.6166 53.17 24.5913 53.17 24.5662 53.1716C24.4449 53.172 24.3283 53.2183 24.2398 53.3012C24.151 53.3832 24.0801 53.4827 24.0316 53.5933C23.9831 53.704 23.9579 53.8235 23.9578 53.9444C23.9578 54.039 23.9728 54.1329 24.0022 54.2228C24.2422 54.9176 24.6694 56.1716 24.8722 56.7428" fill="#31AAB7"/>
<path d="M25.8726 56.7848L24.6942 53.1788C24.6846 53.1788 24.6738 53.1788 24.663 53.1716C24.6522 53.1644 24.6498 53.1716 24.6426 53.1716L24.0246 53.0516C23.6946 52.9904 23.3646 52.9244 23.0346 52.8632C22.6386 52.784 22.2402 52.718 21.8454 52.6232C21.7523 52.5968 21.6565 52.5807 21.5598 52.5752C21.4382 52.5748 21.3212 52.6217 21.2334 52.706C21.1439 52.7879 21.0725 52.8877 21.024 52.9989C20.9754 53.1101 20.9507 53.2302 20.9514 53.3516C20.9508 53.445 20.9659 53.5379 20.9958 53.6264C21.261 54.404 21.7662 55.8752 21.927 56.3216L25.8726 56.7848Z" fill="#31AAB7"/>
<path d="M49.1721 40.3844C49.0521 41.72 48.9897 43.3364 48.9477 45.368C48.9477 49.688 44.1717 53.2652 39.9273 54.0836L32.1441 55.8416C31.1157 56.0408 30.2049 55.3988 29.4897 54.9728C28.7541 54.5348 28.0005 54.0128 27.4701 53.6252C26.7069 53.0672 25.2369 53.516 25.5381 54.8468C25.603 55.0998 25.7255 55.3345 25.896 55.5324C26.0664 55.7304 26.2803 55.8863 26.5209 55.988C26.6564 56.0488 26.7959 56.1001 26.9385 56.1416C26.9916 56.1549 27.0388 56.1854 27.0728 56.2283C27.1068 56.2712 27.1257 56.3241 27.1265 56.3788C27.1274 56.4336 27.1101 56.487 27.0774 56.5309C27.0447 56.5748 26.9984 56.6067 26.9457 56.6216C26.2713 56.8544 25.0365 56.9924 23.0445 56.2616C20.4921 55.322 20.2941 61.1468 23.7837 62.1608H23.7969C27.0117 63.1328 30.4713 63.008 33.7941 62.8688C37.5673 62.7258 41.322 62.2678 45.0189 61.4996C46.8993 61.1012 48.8313 60.6872 50.5521 59.8364C53.5161 58.3712 55.6521 56.6912 57.6837 54.0764C59.9637 51.1448 60.9369 47.2988 61.4865 43.6928C62.1153 39.5672 61.2465 36.0836 59.0349 32.5328L58.9533 32.4032" stroke="black" stroke-width="0.70307" stroke-miterlimit="10"/>
<path d="M26.1202 56.7848L25.027 53.4944C25.0028 53.4178 24.9594 53.3486 24.9011 53.2934C24.8427 53.2382 24.7712 53.1987 24.6934 53.1788C24.6838 53.1788 24.673 53.1788 24.6622 53.1716C24.6514 53.1644 24.649 53.1716 24.6418 53.1716C24.6166 53.17 24.5913 53.17 24.5662 53.1716C24.4449 53.172 24.3283 53.2183 24.2398 53.3012C24.151 53.3832 24.0801 53.4827 24.0316 53.5933C23.9831 53.704 23.9579 53.8235 23.9578 53.9444C23.9578 54.039 23.9728 54.1329 24.0022 54.2228C24.2422 54.9176 24.6694 56.1716 24.8722 56.7428" stroke="black" stroke-width="0.70307" stroke-miterlimit="10"/>
<path d="M24.6942 53.1788C24.6846 53.1788 24.6738 53.1788 24.663 53.1716C24.6522 53.1644 24.6498 53.1716 24.6426 53.1716L24.0246 53.0516C23.6946 52.9904 23.3646 52.9244 23.0346 52.8632C22.6386 52.784 22.2402 52.718 21.8454 52.6232C21.7523 52.5968 21.6565 52.5807 21.5598 52.5752C21.4382 52.5748 21.3212 52.6217 21.2334 52.706C21.1439 52.7879 21.0725 52.8877 21.024 52.9989C20.9754 53.1101 20.9507 53.2302 20.9514 53.3516C20.9508 53.445 20.9659 53.5379 20.9958 53.6264C21.261 54.404 21.7662 55.8752 21.927 56.3216" stroke="black" stroke-width="0.70307" stroke-miterlimit="10"/>
<path d="M39.7605 17.8196C39.7605 19.3796 40.0641 20.8712 40.8129 22.2488C41.4129 23.3552 42.2937 24.47 43.5537 24.836C43.833 24.9166 44.1223 24.957 44.4129 24.956C46.5513 24.9464 46.8849 22.4132 46.8849 22.4132" stroke="black" stroke-width="0.70307" stroke-miterlimit="10"/>
<path d="M49.7959 18.7244V18.7316C49.6968 19.5056 49.5264 20.2689 49.2871 21.0116C49.0011 21.8976 48.9336 22.8395 49.0903 23.7572L49.4227 25.6904C49.4378 25.7765 49.4769 25.8567 49.5355 25.9216C49.5941 25.9865 49.6698 26.0337 49.7539 26.0576C53.9731 27.2828 57.7183 29.9864 59.8975 33.89C62.6155 38.7644 63.1111 44.6348 62.8915 50.1068C62.6983 54.8504 61.9315 59.5664 60.8431 64.1828C60.1777 67.0042 58.8977 69.644 57.0942 71.9135C55.2908 74.1831 53.0085 76.0264 50.4103 77.312C46.9912 79.0192 43.4603 80.4926 39.8419 81.722C37.9264 82.3564 36.1763 83.4096 34.719 84.8051C33.2616 86.2007 32.1335 87.9034 31.4167 89.7896L22.9135 112.4C22.601 113.235 21.9846 113.921 21.1879 114.32L13.0399 118.413C12.011 118.928 10.8372 119.077 9.71228 118.836C9.42061 118.773 9.15465 118.623 8.94904 118.407C8.74343 118.191 8.6077 117.918 8.55953 117.623C8.51136 117.329 8.55297 117.027 8.67896 116.756C8.80495 116.486 9.00947 116.259 9.26588 116.107L13.4275 113.631L19.1503 84.4568C19.553 81.854 20.5146 79.3693 21.969 77.1736C23.4234 74.9778 25.3361 73.123 27.5755 71.7368C27.874 71.5548 28.1852 71.3944 28.5067 71.2568L40.9123 65.87" stroke="black" stroke-width="0.70307" stroke-miterlimit="10"/>
<path d="M46.3855 11.1488C45.7223 10.9907 45.0357 10.9558 44.3599 11.0456C44.3322 11.0462 44.3045 11.0486 44.2771 11.0528" stroke="black" stroke-width="0.70307" stroke-miterlimit="10"/>
<path d="M43.3807 25.418C43.3807 25.418 41.1859 30.4496 45.1112 30.698C48.6332 30.9236 49.9256 26.138 49.9256 26.138" stroke="black" stroke-width="0.70307" stroke-miterlimit="10"/>
<path d="M49.5199 20.24C49.5451 20.1476 49.9231 18.7832 49.2007 17.924C48.4783 17.0648 47.4991 18.5384 47.4007 18.686C47.5927 16.5704 46.1227 14.966 46.1227 14.966C46.6651 16.8392 45.9667 18.0632 45.9667 18.0632C43.2823 18.692 41.8051 18.2132 40.7575 18.0068C40.6545 17.3408 40.6675 16.662 40.7959 16.0004C40.3937 16.5663 40.1618 17.2354 40.1275 17.9288H40.1107C39.7119 17.8228 39.3338 17.6504 38.9923 17.4188L38.4607 17.0588C39.2647 12.9644 42.0703 10.3868 46.4071 11.1428C50.7439 11.8988 50.8651 16.886 50.8651 16.886L49.8991 17.2616C49.8991 17.2616 49.9075 18.908 49.5199 20.24Z" stroke="black" stroke-width="0.70307" stroke-miterlimit="10"/>
<path d="M41.4429 20.0264V22.0172C41.4431 22.0414 41.4489 22.0653 41.46 22.0869C41.4711 22.1084 41.4871 22.1271 41.5067 22.1413C41.5263 22.1555 41.549 22.165 41.5729 22.1689C41.5969 22.1727 41.6214 22.1709 41.6445 22.1636C41.8011 22.1118 41.945 22.0275 42.0669 21.9164" stroke="black" stroke-width="0.70307" stroke-miterlimit="10"/>
<path d="M40.2523 21.5378C40.8803 21.2929 41.1134 20.3867 40.773 19.5135C40.4326 18.6404 39.6476 18.1311 39.0196 18.376C38.3916 18.6208 38.1585 19.5271 38.4989 20.4002C38.8393 21.2733 39.6244 21.7826 40.2523 21.5378Z" stroke="black" stroke-width="0.70307" stroke-miterlimit="10"/>
<path d="M44.0311 22.107C44.6591 21.8622 44.8922 20.9559 44.5518 20.0828C44.2114 19.2097 43.4264 18.7004 42.7984 18.9452C42.1704 19.1901 41.9373 20.0963 42.2777 20.9694C42.6182 21.8425 43.4032 22.3518 44.0311 22.107Z" stroke="black" stroke-width="0.70307" stroke-miterlimit="10"/>
<path d="M40.9148 20.1296C40.9148 20.1296 41.2868 19.7048 42.0668 20.2028" stroke="black" stroke-width="0.70307" stroke-miterlimit="10"/>
<path d="M43.2043 24.71C43.2043 24.71 43.4743 25.6244 44.2687 28.5884" stroke="black" stroke-width="0.70307" stroke-miterlimit="10"/>
<path d="M23.3157 111.332L27.9957 108.806C28.2639 108.661 28.4925 108.452 28.6617 108.198C28.8309 107.944 28.9355 107.653 28.9665 107.349C29.7441 99.7112 29.5065 94.8824 29.5065 94.8824" stroke="black" stroke-width="0.70307" stroke-miterlimit="10"/>
<path d="M19.0674 72.1616L1.05664 59.5748" stroke="black" stroke-width="0.70307" stroke-miterlimit="10"/>
<path d="M18.0474 75.6296L1.05664 63.7544" stroke="black" stroke-width="0.70307" stroke-miterlimit="10"/>
<path d="M86.9431 51.7052V62.0096C86.9432 62.4821 86.8059 62.9445 86.5482 63.3405C86.2904 63.7365 85.9232 64.0491 85.4911 64.2404L72.7111 69.8996L68.804 75.8372C68.7034 75.9844 68.5586 76.0959 68.3906 76.1554C68.2225 76.2149 68.0399 76.2194 67.8691 76.1682C67.6983 76.117 67.5482 76.0128 67.4406 75.8707C67.333 75.7286 67.2733 75.5559 67.2703 75.3776V72.3104L65.9599 72.89C65.6685 73.0174 65.3499 73.0705 65.0329 73.0443C64.7159 73.0182 64.4103 72.9137 64.1437 72.7402C63.877 72.5667 63.6577 72.3297 63.5053 72.0505C63.3529 71.7712 63.2723 71.4585 63.2708 71.1404V62.5352C63.2709 61.4619 63.5849 60.4121 64.174 59.5149C64.763 58.6178 65.6016 57.9124 66.5863 57.4856L84.1495 49.8716C84.4536 49.7396 84.7858 49.6853 85.116 49.7137C85.4463 49.742 85.7644 49.8521 86.0415 50.034C86.3186 50.2159 86.5461 50.4639 86.7035 50.7556C86.8609 51.0474 86.9433 51.3737 86.9431 51.7052Z" fill="#D7E8F0"/>
<path d="M71.2659 65.1735C71.8954 63.959 71.725 62.6217 70.8854 62.1865C70.0458 61.7512 68.8548 62.3829 68.2253 63.5974C67.5958 64.8118 67.7661 66.1491 68.6057 66.5844C69.4454 67.0196 70.6364 66.3879 71.2659 65.1735Z" fill="white"/>
<path d="M76.7241 62.8373C77.3536 61.6229 77.1833 60.2855 76.3436 59.8503C75.504 59.4151 74.313 60.0468 73.6835 61.2612C73.054 62.4757 73.2244 63.813 74.064 64.2482C74.9036 64.6834 76.0946 64.0517 76.7241 62.8373Z" fill="white"/>
<path d="M81.9985 60.3146C82.628 59.1001 82.4577 57.7628 81.6181 57.3276C80.7784 56.8924 79.5874 57.524 78.9579 58.7385C78.3284 59.9529 78.4988 61.2902 79.3384 61.7255C80.1781 62.1607 81.369 61.529 81.9985 60.3146Z" fill="white"/>
</g>
<defs>
<clipPath id="clip0_856_15716">
<rect width="96" height="96" rx="48" fill="white"/>
</clipPath>
</defs>
</svg>
