<svg width="77" height="32" viewBox="0 0 77 32" fill="none" xmlns="http://www.w3.org/2000/svg">
<path d="M12.344 12.82V15H1.84404V0.999999H12.064V3.18H4.44404V6.82H11.204V8.96H4.44404V12.82H12.344ZM30.1639 16.4C29.6972 16.9467 29.1506 17.36 28.5239 17.64C27.9106 17.92 27.2372 18.06 26.5039 18.06C25.5439 18.06 24.6639 17.84 23.8639 17.4C23.0639 16.9733 22.1506 16.2267 21.1239 15.16C19.8306 15.0533 18.6706 14.68 17.6439 14.04C16.6172 13.3867 15.8172 12.54 15.2439 11.5C14.6706 10.4467 14.3839 9.28 14.3839 8C14.3839 6.64 14.7106 5.41333 15.3639 4.32C16.0172 3.21333 16.9172 2.35333 18.0639 1.74C19.2106 1.11333 20.4972 0.799999 21.9239 0.799999C23.3506 0.799999 24.6372 1.11333 25.7839 1.74C26.9306 2.35333 27.8306 3.20667 28.4839 4.3C29.1372 5.39333 29.4639 6.62667 29.4639 8C29.4639 9.10667 29.2439 10.1333 28.8039 11.08C28.3639 12.0133 27.7506 12.8133 26.9639 13.48C26.1772 14.1333 25.2639 14.6067 24.2239 14.9C24.6106 15.3133 24.9906 15.6133 25.3639 15.8C25.7372 15.9867 26.1372 16.08 26.5639 16.08C27.4839 16.08 28.2839 15.7067 28.9639 14.96L30.1639 16.4ZM17.0039 8C17.0039 8.93333 17.2172 9.78 17.6439 10.54C18.0706 11.2867 18.6572 11.8733 19.4039 12.3C20.1506 12.7133 20.9906 12.92 21.9239 12.92C22.8572 12.92 23.6972 12.7133 24.4439 12.3C25.1906 11.8733 25.7772 11.2867 26.2039 10.54C26.6306 9.78 26.8439 8.93333 26.8439 8C26.8439 7.06667 26.6306 6.22667 26.2039 5.48C25.7772 4.72 25.1906 4.13333 24.4439 3.72C23.6972 3.29333 22.8572 3.08 21.9239 3.08C20.9906 3.08 20.1506 3.29333 19.4039 3.72C18.6572 4.13333 18.0706 4.72 17.6439 5.48C17.2172 6.22667 17.0039 7.06667 17.0039 8ZM41.3045 11.76H34.3045L32.9245 15H30.2445L36.5445 0.999999H39.1045L45.4245 15H42.7045L41.3045 11.76ZM40.4445 9.72L37.8045 3.6L35.1845 9.72H40.4445ZM56.565 15L53.705 10.9C53.585 10.9133 53.405 10.92 53.165 10.92H50.005V15H47.405V0.999999H53.165C54.3783 0.999999 55.4316 1.2 56.325 1.6C57.2316 2 57.925 2.57333 58.405 3.32C58.885 4.06667 59.125 4.95333 59.125 5.98C59.125 7.03333 58.865 7.94 58.345 8.7C57.8383 9.46 57.105 10.0267 56.145 10.4L59.365 15H56.565ZM56.505 5.98C56.505 5.08667 56.2116 4.4 55.625 3.92C55.0383 3.44 54.1783 3.2 53.045 3.2H50.005V8.78H53.045C54.1783 8.78 55.0383 8.54 55.625 8.06C56.2116 7.56667 56.505 6.87333 56.505 5.98ZM68.7739 15.2C67.3472 15.2 66.0606 14.8933 64.9139 14.28C63.7672 13.6533 62.8672 12.7933 62.2139 11.7C61.5606 10.5933 61.2339 9.36 61.2339 8C61.2339 6.64 61.5606 5.41333 62.2139 4.32C62.8672 3.21333 63.7672 2.35333 64.9139 1.74C66.0606 1.11333 67.3472 0.799999 68.7739 0.799999C70.2006 0.799999 71.4872 1.11333 72.6339 1.74C73.7806 2.35333 74.6806 3.20667 75.3339 4.3C75.9872 5.39333 76.3139 6.62667 76.3139 8C76.3139 9.37333 75.9872 10.6067 75.3339 11.7C74.6806 12.7933 73.7806 13.6533 72.6339 14.28C71.4872 14.8933 70.2006 15.2 68.7739 15.2ZM68.7739 12.92C69.7072 12.92 70.5472 12.7133 71.2939 12.3C72.0406 11.8733 72.6272 11.2867 73.0539 10.54C73.4806 9.78 73.6939 8.93333 73.6939 8C73.6939 7.06667 73.4806 6.22667 73.0539 5.48C72.6272 4.72 72.0406 4.13333 71.2939 3.72C70.5472 3.29333 69.7072 3.08 68.7739 3.08C67.8406 3.08 67.0006 3.29333 66.2539 3.72C65.5072 4.13333 64.9206 4.72 64.4939 5.48C64.0672 6.22667 63.8539 7.06667 63.8539 8C63.8539 8.93333 64.0672 9.78 64.4939 10.54C64.9206 11.2867 65.5072 11.8733 66.2539 12.3C67.0006 12.7133 67.8406 12.92 68.7739 12.92ZM5.80768 27.5H6.51768V30.17C6.19101 30.4567 5.80435 30.6767 5.35768 30.83C4.91101 30.9833 4.44101 31.06 3.94768 31.06C3.24768 31.06 2.61768 30.9067 2.05768 30.6C1.49768 30.2933 1.05768 29.87 0.737679 29.33C0.417679 28.7833 0.257679 28.1733 0.257679 27.5C0.257679 26.8267 0.417679 26.22 0.737679 25.68C1.05768 25.1333 1.49768 24.7067 2.05768 24.4C2.61768 24.0933 3.25101 23.94 3.95768 23.94C4.49101 23.94 4.98101 24.0267 5.42768 24.2C5.87435 24.3667 6.25101 24.6167 6.55768 24.95L6.09768 25.42C5.54435 24.8733 4.84101 24.6 3.98768 24.6C3.42101 24.6 2.90768 24.7267 2.44768 24.98C1.99435 25.2267 1.63768 25.5733 1.37768 26.02C1.11768 26.46 0.987679 26.9533 0.987679 27.5C0.987679 28.0467 1.11768 28.54 1.37768 28.98C1.63768 29.42 1.99435 29.7667 2.44768 30.02C2.90101 30.2733 3.41101 30.4 3.97768 30.4C4.69768 30.4 5.30768 30.22 5.80768 29.86V27.5ZM12.2321 31.06C11.3254 31.06 10.6187 30.8 10.1121 30.28C9.60539 29.76 9.35205 29.0033 9.35205 28.01V24H10.0921V27.98C10.0921 28.7933 10.2754 29.4 10.6421 29.8C11.0087 30.2 11.5387 30.4 12.2321 30.4C12.9321 30.4 13.4654 30.2 13.8321 29.8C14.1987 29.4 14.3821 28.7933 14.3821 27.98V24H15.1021V28.01C15.1021 29.0033 14.8487 29.76 14.3421 30.28C13.8421 30.8 13.1387 31.06 12.2321 31.06ZM22.3755 29.13H18.4755L17.6355 31H16.8655L20.0655 24H20.7955L23.9955 31H23.2155L22.3755 29.13ZM22.1055 28.53L20.4255 24.77L18.7455 28.53H22.1055ZM30.7335 31L29.1335 28.75C28.9535 28.77 28.7668 28.78 28.5735 28.78H26.6935V31H25.9535V24H28.5735C29.4668 24 30.1668 24.2133 30.6735 24.64C31.1801 25.0667 31.4335 25.6533 31.4335 26.4C31.4335 26.9467 31.2935 27.41 31.0135 27.79C30.7401 28.1633 30.3468 28.4333 29.8335 28.6L31.5435 31H30.7335ZM28.5535 28.15C29.2468 28.15 29.7768 27.9967 30.1435 27.69C30.5101 27.3833 30.6935 26.9533 30.6935 26.4C30.6935 25.8333 30.5101 25.4 30.1435 25.1C29.7768 24.7933 29.2468 24.64 28.5535 24.64H26.6935V28.15H28.5535ZM38.37 29.13H34.47L33.63 31H32.86L36.06 24H36.79L39.99 31H39.21L38.37 29.13ZM38.1 28.53L36.42 24.77L34.74 28.53H38.1ZM47.798 24V31H47.188L42.688 25.32V31H41.948V24H42.558L47.068 29.68V24H47.798ZM52.2428 24.64H49.7828V24H55.4428V24.64H52.9828V31H52.2428V24.64ZM62.3749 30.36V31H57.4249V24H62.2249V24.64H58.1649V27.13H61.7849V27.76H58.1649V30.36H62.3749ZM69.8644 30.36V31H64.9144V24H69.7144V24.64H65.6544V27.13H69.2744V27.76H65.6544V30.36H69.8644ZM74.3338 31.06C73.8138 31.06 73.3138 30.9767 72.8338 30.81C72.3605 30.6433 71.9938 30.4233 71.7338 30.15L72.0238 29.58C72.2772 29.8333 72.6138 30.04 73.0338 30.2C73.4538 30.3533 73.8872 30.43 74.3338 30.43C74.9605 30.43 75.4305 30.3167 75.7438 30.09C76.0572 29.8567 76.2138 29.5567 76.2138 29.19C76.2138 28.91 76.1272 28.6867 75.9538 28.52C75.7872 28.3533 75.5805 28.2267 75.3338 28.14C75.0872 28.0467 74.7438 27.9467 74.3038 27.84C73.7772 27.7067 73.3572 27.58 73.0438 27.46C72.7305 27.3333 72.4605 27.1433 72.2338 26.89C72.0138 26.6367 71.9038 26.2933 71.9038 25.86C71.9038 25.5067 71.9972 25.1867 72.1838 24.9C72.3705 24.6067 72.6572 24.3733 73.0438 24.2C73.4305 24.0267 73.9105 23.94 74.4838 23.94C74.8838 23.94 75.2738 23.9967 75.6538 24.11C76.0405 24.2167 76.3738 24.3667 76.6538 24.56L76.4038 25.15C76.1105 24.9567 75.7972 24.8133 75.4638 24.72C75.1305 24.62 74.8038 24.57 74.4838 24.57C73.8705 24.57 73.4072 24.69 73.0938 24.93C72.7872 25.1633 72.6338 25.4667 72.6338 25.84C72.6338 26.12 72.7172 26.3467 72.8838 26.52C73.0572 26.6867 73.2705 26.8167 73.5238 26.91C73.7838 26.9967 74.1305 27.0933 74.5638 27.2C75.0772 27.3267 75.4905 27.4533 75.8038 27.58C76.1238 27.7 76.3938 27.8867 76.6138 28.14C76.8338 28.3867 76.9438 28.7233 76.9438 29.15C76.9438 29.5033 76.8472 29.8267 76.6538 30.12C76.4672 30.4067 76.1772 30.6367 75.7838 30.81C75.3905 30.9767 74.9072 31.06 74.3338 31.06Z" fill="#0078CE"/>
</svg>
