<svg width="162" height="48" viewBox="0 0 162 48" fill="none" xmlns="http://www.w3.org/2000/svg">
<path d="M35.4771 11.4734L33.1766 13.7728L43.4048 24L33.2046 34.1989L35.5043 36.4992L48.0044 24L35.4771 11.4734Z" fill="white"/>
<path d="M24.0024 43.4002L4.60017 24L24.0024 4.59953L27.6661 8.2631L29.9666 5.96333L24.0024 0L0 24L24.0024 47.9999L29.9614 42.0414L27.6617 39.7414L24.0024 43.4002Z" fill="white"/>
<path d="M39.1409 0L15.1378 24L39.1409 48L63.1426 24L39.1409 0ZM19.7384 24L39.1409 4.59961L58.5432 24L39.1409 43.4002L19.7384 24Z" fill="white"/>
<path d="M31.6717 16.6763L24.3579 23.9894L25.9 25.5305L33.2136 18.2173L31.6717 16.6763Z" fill="white"/>
<path d="M34.6068 22.5748L36.089 21.0924L34.5473 19.5513L33.0651 21.033L34.6068 22.5748Z" fill="white"/>
<path d="M32.1775 21.9204L27.2336 26.864L28.7752 28.4063L33.7192 23.4619L32.1775 21.9204Z" fill="white"/>
<path d="M37.4227 22.4258L30.109 29.7394L31.65 31.2805L38.9643 23.967L37.4227 22.4258Z" fill="white"/>
<path d="M86.7403 19.9351L86.0748 23.7082H73L76.2803 5.10449H89.1192L88.4541 8.87786H79.912L79.2748 12.4931H86.6114L85.9968 15.9783H78.6602L77.9626 19.935H86.7403V19.9351Z" fill="white"/>
<path d="M105.963 23.7082L116.397 5.10449H119.881L123.728 23.7082H119.169L118.463 19.5423H112.672L110.522 23.7082H105.963ZM117.322 9.66347L113.875 16.5811H118.251L117.322 9.66347Z" fill="white"/>
<path d="M125.431 23.7082L128.711 5.10449H137.097C137.97 5.10449 138.746 5.28776 139.423 5.65493C140.101 6.02097 140.658 6.50203 141.095 7.09568C141.532 7.68974 141.836 8.36235 142.01 9.11392C142.183 9.86452 142.202 10.624 142.067 11.3927C141.965 11.9691 141.797 12.5244 141.564 13.0567C141.33 13.5894 141.04 14.092 140.695 14.5634C140.35 15.0349 139.957 15.4582 139.515 15.8337C139.073 16.2099 138.593 16.5284 138.075 16.7908L141.126 23.7082H136.28L133.59 17.7073H130.787L129.729 23.7082H125.431ZM131.448 13.9614H135.378C135.884 13.9614 136.363 13.7206 136.815 13.2397C137.266 12.7598 137.558 12.144 137.691 11.3928C137.826 10.6241 137.725 10.0136 137.385 9.55948C137.046 9.10434 136.631 8.87794 136.143 8.87794H132.344L131.448 13.9614Z" fill="white"/>
<path d="M150.767 23.8652C149.44 23.8652 148.283 23.5947 147.295 23.0533C146.307 22.5121 145.502 21.7995 144.88 20.9171C144.258 20.0361 143.834 19.0265 143.606 17.8907C143.378 16.7564 143.371 15.5858 143.584 14.3799C143.799 13.1578 144.23 11.9783 144.876 10.8423C145.521 9.70779 146.317 8.70737 147.265 7.8424C148.213 6.97735 149.277 6.28808 150.46 5.77306C151.642 5.25747 152.88 5 154.172 5C155.501 5 156.657 5.27099 157.646 5.81185C158.633 6.35327 159.436 7.06966 160.057 7.96071C160.678 8.85135 161.096 9.8649 161.316 10.9998C161.535 12.1358 161.542 13.289 161.335 14.4588C161.119 15.682 160.689 16.8607 160.043 17.996C159.398 19.1317 158.605 20.1315 157.668 20.9963C156.728 21.8609 155.667 22.5549 154.483 23.0795C153.299 23.6033 152.06 23.8652 150.767 23.8652ZM147.95 14.4328C147.823 15.1491 147.802 15.843 147.884 16.5156C147.966 17.188 148.149 17.7865 148.433 18.3107C148.715 18.835 149.114 19.2538 149.626 19.5686C150.138 19.8827 150.761 20.0408 151.494 20.0408C152.245 20.0408 152.931 19.8744 153.547 19.5427C154.164 19.2104 154.708 18.7785 155.178 18.2447C155.647 17.7126 156.033 17.1099 156.335 16.437C156.637 15.7651 156.85 15.0791 156.973 14.38C157.099 13.6641 157.121 12.9693 157.039 12.2975C156.956 11.6246 156.769 11.0312 156.475 10.5151C156.182 10.0004 155.783 9.5894 155.278 9.28372C154.772 8.97812 154.163 8.82528 153.445 8.82528C152.694 8.82528 152.011 8.98665 151.395 9.30988C150.779 9.63342 150.237 10.0563 149.77 10.5809C149.301 11.1052 148.912 11.7035 148.601 12.3754C148.29 13.0486 148.073 13.7341 147.95 14.4328Z" fill="white"/>
<path d="M96.5277 23.8652C95.201 23.8652 94.0434 23.5947 93.0556 23.0533C92.0679 22.5121 91.2627 21.7995 90.6412 20.9171C90.0199 20.0361 89.5947 19.0265 89.3676 17.8907C89.1392 16.7564 89.1322 15.5858 89.3443 14.3799C89.5603 13.1578 89.9906 11.9783 90.6363 10.8423C91.2821 9.70779 92.0785 8.70737 93.0258 7.8424C93.9722 6.97735 95.0377 6.28808 96.2201 5.77306C97.4023 5.25747 98.6408 5 99.9335 5C101.261 5 102.418 5.27099 103.406 5.81185C104.394 6.35327 105.197 7.06966 105.818 7.96071C106.437 8.85135 106.858 9.8649 107.076 10.9998C107.296 12.1358 107.302 13.289 107.095 14.4588C106.88 15.682 106.449 16.8607 105.805 17.996C105.158 19.1317 104.367 20.1315 103.428 20.9963C102.489 21.8609 101.427 22.5549 100.243 23.0795C99.059 23.6033 97.8208 23.8652 96.5277 23.8652ZM93.7114 14.4328C93.5848 15.1491 93.5621 15.843 93.645 16.5156C93.7269 17.188 93.9093 17.7865 94.1929 18.3107C94.4767 18.835 94.8741 19.2538 95.3858 19.5686C95.8985 19.8827 96.5216 20.0408 97.2553 20.0408C98.0059 20.0408 98.6902 19.8744 99.3087 19.5427C99.9259 19.2104 100.469 18.7785 100.939 18.2447C101.409 17.7126 101.794 17.1099 102.096 16.437C102.398 15.7651 102.611 15.0791 102.734 14.38C102.86 13.6641 102.882 12.9693 102.8 12.2975C102.718 11.6246 102.53 11.0312 102.236 10.5151C101.942 10.0004 101.543 9.5894 101.039 9.28372C100.534 8.97812 99.9225 8.82528 99.2066 8.82528C98.4552 8.82528 97.7717 8.98665 97.1563 9.30988C96.5398 9.63342 95.9989 10.0563 95.5299 10.5809C95.0614 11.1052 94.6724 11.7035 94.3619 12.3754C94.0505 13.0486 93.8343 13.7341 93.7114 14.4328Z" fill="white"/>
<path d="M101.239 30.7448C99.9911 30.7448 98.6865 30.3897 97.4848 29.4275C95.575 27.8986 93.583 29.3347 93.4996 29.3966L91.5685 26.5246C93.161 25.35 97.013 23.7987 100.192 26.3444C101.95 27.7518 103.879 26.4286 104.247 26.1497L106.286 28.94C105.259 29.7496 103.328 30.7448 101.239 30.7448Z" fill="white"/>
<path d="M98.0739 37.2412C98.0147 37.0494 97.933 36.8778 97.8289 36.7263C97.7271 36.5724 97.604 36.441 97.4596 36.3321C97.3175 36.2232 97.1542 36.1415 96.9695 36.0871C96.7848 36.0303 96.5836 36.0019 96.3658 36.0019C95.9752 36.0019 95.6272 36.1001 95.3218 36.2966C95.0164 36.4931 94.7761 36.7819 94.6009 37.1631C94.4281 37.5419 94.3417 38.0035 94.3417 38.548C94.3417 39.0973 94.4281 39.5625 94.6009 39.9436C94.7737 40.3248 95.014 40.6148 95.3218 40.8137C95.6295 41.0102 95.987 41.1084 96.3942 41.1084C96.7635 41.1084 97.0831 41.0374 97.353 40.8953C97.6253 40.7533 97.8348 40.5521 97.9816 40.2916C98.1284 40.0289 98.2017 39.7211 98.2017 39.3683L98.5 39.4145H96.5256V38.3847H99.4766V39.2583C99.4766 39.8809 99.344 40.4195 99.0789 40.874C98.8137 41.3286 98.4491 41.6789 97.9851 41.9252C97.5211 42.169 96.9884 42.2909 96.3871 42.2909C95.7171 42.2909 95.1288 42.1406 94.6222 41.8399C94.1179 41.5369 93.7238 41.1072 93.4397 40.5509C93.158 39.9922 93.0171 39.3293 93.0171 38.5622C93.0171 37.9751 93.0999 37.4507 93.2657 36.9891C93.4338 36.5274 93.6681 36.1356 93.9688 35.8137C94.2695 35.4893 94.6222 35.2431 95.027 35.075C95.4319 34.9046 95.8722 34.8193 96.3481 34.8193C96.7505 34.8193 97.1258 34.8785 97.4738 34.9969C97.8218 35.1129 98.1307 35.2786 98.4006 35.4941C98.6729 35.7095 98.8966 35.9652 99.0718 36.2611C99.247 36.557 99.3618 36.8837 99.4162 37.2412H98.0739Z" fill="white"/>
<path d="M105.335 34.9188H106.653V39.6702C106.653 40.191 106.529 40.6491 106.283 41.0445C106.039 41.4398 105.696 41.7488 105.253 41.9713C104.811 42.1915 104.293 42.3016 103.702 42.3016C103.107 42.3016 102.589 42.1915 102.146 41.9713C101.703 41.7488 101.36 41.4398 101.116 41.0445C100.872 40.6491 100.751 40.191 100.751 39.6702V34.9188H102.068V39.5601C102.068 39.8631 102.134 40.133 102.267 40.3698C102.402 40.6065 102.591 40.7923 102.835 40.9273C103.079 41.0599 103.368 41.1262 103.702 41.1262C104.035 41.1262 104.324 41.0599 104.568 40.9273C104.814 40.7923 105.004 40.6065 105.136 40.3698C105.269 40.133 105.335 39.8631 105.335 39.5601V34.9188Z" fill="white"/>
<path d="M109.019 42.1915H107.612L110.173 34.9188H111.799L114.363 42.1915H112.957L111.014 36.4102H110.957L109.019 42.1915ZM109.065 39.3399H112.9V40.3982H109.065V39.3399Z" fill="white"/>
<path d="M115.321 42.1915V34.9188H118.048C118.607 34.9188 119.076 35.0158 119.454 35.21C119.836 35.4041 120.123 35.6763 120.317 36.0267C120.514 36.3747 120.612 36.7807 120.612 37.2448C120.612 37.7111 120.513 38.116 120.314 38.4593C120.117 38.8002 119.827 39.0641 119.444 39.2512C119.06 39.4358 118.589 39.5281 118.03 39.5281H116.088V38.4344H117.853C118.18 38.4344 118.447 38.3894 118.655 38.2994C118.864 38.2071 119.018 38.0734 119.117 37.8982C119.219 37.7206 119.27 37.5028 119.27 37.2448C119.27 36.9867 119.219 36.7665 119.117 36.5843C119.015 36.3996 118.86 36.2599 118.652 36.1652C118.444 36.0682 118.175 36.0196 117.846 36.0196H116.638V42.1915H115.321ZM119.078 38.896L120.878 42.1915H119.408L117.64 38.896H119.078Z" fill="white"/>
<path d="M122.759 42.1915H121.352L123.913 34.9188H125.539L128.103 42.1915H126.697L124.754 36.4102H124.698L122.759 42.1915ZM122.805 39.3399H126.64V40.3982H122.805V39.3399Z" fill="white"/>
<path d="M135.038 34.9188V42.1915H133.866L130.439 37.2377H130.379V42.1915H129.061V34.9188H130.24L133.663 39.8762H133.727V34.9188H135.038Z" fill="white"/>
<path d="M136.154 36.0232V34.9188H141.956V36.0232H139.708V42.1915H138.402V36.0232H136.154Z" fill="white"/>
<path d="M143.075 42.1915V34.9188H147.805V36.0232H144.392V37.9976H147.56V39.102H144.392V41.0871H147.833V42.1915H143.075Z" fill="white"/>
<path d="M149.149 42.1915V34.9188H153.879V36.0232H150.466V37.9976H153.634V39.102H150.466V41.0871H153.908V42.1915H149.149Z" fill="white"/>
<path d="M159.176 36.9181C159.143 36.6079 159.003 36.3664 158.757 36.1936C158.513 36.0208 158.196 35.9344 157.805 35.9344C157.53 35.9344 157.295 35.9758 157.098 36.0587C156.902 36.1415 156.751 36.254 156.647 36.396C156.543 36.5381 156.49 36.7003 156.487 36.8825C156.487 37.0341 156.522 37.1655 156.59 37.2767C156.661 37.388 156.757 37.4827 156.878 37.5608C156.999 37.6366 157.133 37.7005 157.279 37.7526C157.426 37.8047 157.574 37.8485 157.723 37.884L158.405 38.0544C158.68 38.1183 158.944 38.2048 159.197 38.3137C159.453 38.4226 159.681 38.5599 159.882 38.7256C160.086 38.8913 160.247 39.0914 160.365 39.3257C160.484 39.5601 160.543 39.8347 160.543 40.1496C160.543 40.5757 160.434 40.951 160.216 41.2753C159.998 41.5973 159.683 41.8494 159.272 42.0317C158.862 42.2116 158.366 42.3016 157.784 42.3016C157.218 42.3016 156.727 42.214 156.31 42.0388C155.896 41.8636 155.571 41.6079 155.337 41.2718C155.105 40.9356 154.979 40.526 154.96 40.0431H156.257C156.276 40.2964 156.354 40.5071 156.491 40.6752C156.628 40.8432 156.807 40.9687 157.027 41.0516C157.25 41.1344 157.498 41.1759 157.773 41.1759C158.059 41.1759 158.31 41.1333 158.526 41.048C158.744 40.9604 158.914 40.8397 159.037 40.6858C159.16 40.5296 159.223 40.3473 159.225 40.1389C159.223 39.9495 159.167 39.7933 159.058 39.6702C158.95 39.5447 158.797 39.4405 158.6 39.3577C158.406 39.2725 158.179 39.1967 157.919 39.1304L157.091 38.9173C156.492 38.7635 156.019 38.5303 155.671 38.2178C155.325 37.9029 155.152 37.4851 155.152 36.9642C155.152 36.5357 155.268 36.1605 155.5 35.8385C155.735 35.5165 156.053 35.2668 156.455 35.0892C156.858 34.9093 157.314 34.8193 157.823 34.8193C158.339 34.8193 158.791 34.9093 159.179 35.0892C159.57 35.2668 159.876 35.5142 160.099 35.8314C160.321 36.1463 160.436 36.5085 160.443 36.9181H159.176Z" fill="white"/>
</svg>
