<svg width="135" height="40" viewBox="0 0 135 40" fill="none" xmlns="http://www.w3.org/2000/svg">
<path d="M29.5645 9.56104L27.6475 11.4772L36.171 19.9999L27.6707 28.499L29.5872 30.4159L40.0039 19.9999L29.5645 9.56104Z" fill="#31A9B6"/>
<path d="M20.002 36.1669L3.83347 20L20.002 3.83295L23.0551 6.88592L24.9722 4.96944L20.002 0L0 20L20.002 39.9999L24.9678 35.0345L23.0514 33.1179L20.002 36.1669Z" fill="#31A9B6"/>
<path d="M32.6178 0L12.6152 20L32.6178 40L52.6193 20L32.6178 0ZM16.449 20L32.6178 3.83301L48.7864 20L32.6178 36.1669L16.449 20Z" fill="#31A9B6"/>
<path d="M26.3927 13.897L20.2979 19.9913L21.5829 21.2755L27.6776 15.1811L26.3927 13.897Z" fill="#2677BC"/>
<path d="M28.8385 18.8126L30.0737 17.5773L28.7889 16.293L27.5537 17.5277L28.8385 18.8126Z" fill="#2677BC"/>
<path d="M26.8142 18.2671L22.6943 22.3868L23.979 23.672L28.0989 19.5516L26.8142 18.2671Z" fill="#2677BC"/>
<path d="M31.1855 18.6885L25.0908 24.7831L26.375 26.0674L32.4702 19.9728L31.1855 18.6885Z" fill="#2677BC"/>
<path d="M72.2832 16.6123L71.7287 19.7565H60.833L63.5666 4.25342H74.2657L73.7114 7.39789H66.593L66.062 10.4106H72.1759L71.6636 13.3149H65.5498L64.9685 16.6122H72.2832V16.6123Z" fill="#00215B"/>
<path d="M88.3018 19.7565L96.9967 4.25342H99.9001L103.106 19.7565H99.307L98.7182 16.285H93.8927L92.101 19.7565H88.3018ZM97.7677 8.05257L94.8953 13.8172H98.5418L97.7677 8.05257Z" fill="#00215B"/>
<path d="M104.525 19.7565L107.259 4.25342H114.247C114.974 4.25342 115.621 4.40614 116.185 4.71211C116.75 5.01715 117.214 5.41803 117.578 5.91275C117.943 6.40779 118.196 6.9683 118.341 7.59461C118.486 8.22011 118.501 8.85299 118.388 9.49358C118.304 9.97394 118.164 10.4367 117.969 10.8803C117.774 11.3242 117.533 11.743 117.246 12.1358C116.958 12.5287 116.63 12.8815 116.262 13.1944C115.894 13.508 115.494 13.7734 115.062 13.992L117.605 19.7565H113.566L111.324 14.7557H108.988L108.107 19.7565H104.525ZM109.539 11.6342H112.815C113.236 11.6342 113.635 11.4335 114.012 11.0328C114.388 10.6328 114.631 10.1197 114.742 9.49365C114.855 8.85306 114.77 8.34433 114.487 7.96591C114.205 7.58663 113.859 7.39796 113.452 7.39796H110.286L109.539 11.6342Z" fill="#00215B"/>
<path d="M125.639 19.8875C124.533 19.8875 123.569 19.6621 122.746 19.2109C121.922 18.7599 121.251 18.1661 120.733 17.4307C120.215 16.6966 119.861 15.8552 119.672 14.9088C119.482 13.9635 119.476 12.988 119.653 11.9831C119.832 10.9646 120.191 9.98179 120.73 9.03509C121.267 8.08967 121.93 7.25598 122.721 6.53517C123.51 5.8143 124.397 5.2399 125.383 4.81072C126.368 4.38106 127.399 4.1665 128.477 4.1665C129.583 4.1665 130.547 4.39233 131.371 4.84305C132.194 5.29423 132.863 5.89123 133.381 6.63376C133.898 7.37597 134.247 8.22059 134.43 9.16635C134.612 10.113 134.618 11.074 134.446 12.0488C134.266 13.0682 133.907 14.0504 133.369 14.9965C132.831 15.943 132.171 16.7761 131.389 17.4967C130.607 18.2173 129.722 18.7956 128.735 19.2328C127.748 19.6693 126.716 19.8875 125.639 19.8875ZM123.291 12.0272C123.186 12.6241 123.168 13.2023 123.236 13.7628C123.305 14.3231 123.457 14.8219 123.693 15.2588C123.929 15.6957 124.261 16.0446 124.688 16.307C125.114 16.5687 125.634 16.7005 126.245 16.7005C126.87 16.7005 127.442 16.5618 127.955 16.2854C128.47 16.0085 128.923 15.6486 129.315 15.2038C129.706 14.7604 130.028 14.2581 130.279 13.6973C130.531 13.1374 130.708 12.5658 130.81 11.9832C130.915 11.3866 130.934 10.8076 130.866 10.2478C130.797 9.68702 130.64 9.19251 130.396 8.76245C130.151 8.33347 129.818 7.99101 129.398 7.73627C128.976 7.4816 128.468 7.35424 127.871 7.35424C127.245 7.35424 126.676 7.48871 126.162 7.75807C125.649 8.02769 125.198 8.38008 124.808 8.81725C124.417 9.25421 124.093 9.75275 123.834 10.3127C123.575 10.8736 123.394 11.4449 123.291 12.0272Z" fill="#00215B"/>
<path d="M80.4395 19.8875C79.3339 19.8875 78.3693 19.6621 77.546 19.2109C76.723 18.7599 76.052 18.1661 75.5341 17.4307C75.0163 16.6966 74.662 15.8552 74.4727 14.9088C74.2824 13.9635 74.2766 12.988 74.4533 11.9831C74.6333 10.9646 74.9919 9.98179 75.53 9.03509C76.0681 8.08967 76.7318 7.25598 77.5212 6.53517C78.3099 5.8143 79.1978 5.2399 80.1831 4.81072C81.1683 4.38106 82.2004 4.1665 83.2776 4.1665C84.384 4.1665 85.3482 4.39233 86.1715 4.84305C86.9944 5.29423 87.6639 5.89123 88.1812 6.63376C88.6975 7.37597 89.0478 8.22059 89.2301 9.16635C89.413 10.113 89.4177 11.074 89.2458 12.0488C89.0666 13.0682 88.7076 14.0504 88.1702 14.9965C87.6316 15.943 86.9723 16.7761 86.1896 17.4967C85.407 18.2173 84.5225 18.7956 83.5359 19.2328C82.5489 19.6693 81.5171 19.8875 80.4395 19.8875ZM78.0925 12.0272C77.9871 12.6241 77.9681 13.2023 78.0373 13.7628C78.1055 14.3231 78.2575 14.8219 78.4938 15.2588C78.7303 15.6957 79.0615 16.0446 79.4879 16.307C79.9152 16.5687 80.4344 16.7005 81.0458 16.7005C81.6713 16.7005 82.2416 16.5618 82.757 16.2854C83.2713 16.0085 83.724 15.6486 84.1153 15.2038C84.5069 14.7604 84.8281 14.2581 85.0794 13.6973C85.3316 13.1374 85.5089 12.5658 85.6113 11.9832C85.7166 11.3866 85.7345 10.8076 85.6663 10.2478C85.5977 9.68702 85.4411 9.19251 85.1964 8.76245C84.9518 8.33347 84.6192 7.99101 84.1986 7.73627C83.7777 7.4816 83.2685 7.35424 82.6719 7.35424C82.0457 7.35424 81.4761 7.48871 80.9633 7.75807C80.4495 8.02769 79.9988 8.38008 79.608 8.81725C79.2176 9.25421 78.8934 9.75275 78.6347 10.3127C78.3752 10.8736 78.195 11.4449 78.0925 12.0272Z" fill="#00215B"/>
<path d="M84.3654 25.6207C83.3255 25.6207 82.2383 25.3247 81.2369 24.5229C79.6454 23.2488 77.9854 24.4455 77.9159 24.4971L76.3066 22.1038C77.6337 21.125 80.8437 19.8322 83.493 21.9537C84.9576 23.1265 86.5651 22.0238 86.8724 21.7914L88.571 24.1166C87.7156 24.7913 86.1059 25.6207 84.3654 25.6207Z" fill="#00215B"/>
<path d="M81.7287 31.0343C81.6793 30.8745 81.6113 30.7315 81.5245 30.6052C81.4396 30.477 81.3371 30.3675 81.2167 30.2768C81.0983 30.186 80.9622 30.118 80.8083 30.0726C80.6544 30.0252 80.4868 30.0016 80.3053 30.0016C79.9797 30.0016 79.6897 30.0834 79.4352 30.2472C79.1807 30.4109 78.9805 30.6516 78.8345 30.9692C78.6905 31.2849 78.6185 31.6696 78.6185 32.1234C78.6185 32.5811 78.6905 32.9687 78.8345 33.2864C78.9785 33.604 79.1788 33.8457 79.4352 34.0114C79.6917 34.1751 79.9896 34.257 80.3289 34.257C80.6367 34.257 80.903 34.1978 81.1279 34.0794C81.3548 33.9611 81.5294 33.7934 81.6517 33.5764C81.774 33.3574 81.8352 33.1009 81.8352 32.807L82.0838 32.8454H80.4384V31.9872H82.8976V32.7152C82.8976 33.2341 82.7871 33.6829 82.5661 34.0617C82.3452 34.4405 82.0414 34.7325 81.6547 34.9376C81.268 35.1408 80.8241 35.2424 80.323 35.2424C79.7647 35.2424 79.2744 35.1172 78.8522 34.8666C78.432 34.6141 78.1035 34.256 77.8668 33.7924C77.632 33.3268 77.5146 32.7744 77.5146 32.1352C77.5146 31.6459 77.5837 31.2089 77.7218 30.8242C77.8619 30.4395 78.0572 30.113 78.3077 29.8447C78.5583 29.5744 78.8522 29.3693 79.1896 29.2292C79.527 29.0871 79.8939 29.0161 80.2905 29.0161C80.6258 29.0161 80.9385 29.0654 81.2285 29.1641C81.5186 29.2607 81.776 29.3988 82.0009 29.5784C82.2278 29.7579 82.4142 29.971 82.5602 30.2176C82.7062 30.4642 82.8019 30.7364 82.8473 31.0343H81.7287Z" fill="#31AAB7"/>
<path d="M87.7797 29.099H88.8775V33.0585C88.8775 33.4925 88.775 33.8743 88.5698 34.2037C88.3666 34.5332 88.0805 34.7907 87.7116 34.9761C87.3427 35.1596 86.9116 35.2513 86.4184 35.2513C85.9232 35.2513 85.4911 35.1596 85.1222 34.9761C84.7533 34.7907 84.4672 34.5332 84.264 34.2037C84.0608 33.8743 83.9592 33.4925 83.9592 33.0585V29.099H85.0571V32.9668C85.0571 33.2193 85.1124 33.4442 85.2228 33.6415C85.3353 33.8388 85.4931 33.9936 85.6963 34.1061C85.8995 34.2166 86.1402 34.2718 86.4184 34.2718C86.6966 34.2718 86.9372 34.2166 87.1404 34.1061C87.3456 33.9936 87.5035 33.8388 87.6139 33.6415C87.7244 33.4442 87.7797 33.2193 87.7797 32.9668V29.099Z" fill="#31AAB7"/>
<path d="M90.8492 35.1596H89.6773L91.8109 29.099H93.1663L95.3029 35.1596H94.131L92.5123 30.3419H92.4649L90.8492 35.1596ZM90.8876 32.7833H94.0837V33.6651H90.8876V32.7833Z" fill="#31AAB7"/>
<path d="M96.1012 35.1596V29.099H98.3739C98.8395 29.099 99.2301 29.1799 99.5458 29.3416C99.8634 29.5034 100.103 29.7303 100.265 30.0223C100.429 30.3123 100.51 30.6506 100.51 31.0373C100.51 31.426 100.428 31.7633 100.262 32.0494C100.098 32.3335 99.8565 32.5534 99.5369 32.7093C99.2173 32.8632 98.8247 32.9401 98.3591 32.9401H96.7404V32.0287H98.2111C98.4834 32.0287 98.7063 31.9912 98.8799 31.9162C99.0535 31.8393 99.1818 31.7278 99.2646 31.5818C99.3495 31.4338 99.3919 31.2523 99.3919 31.0373C99.3919 30.8223 99.3495 30.6388 99.2646 30.4869C99.1798 30.333 99.0506 30.2166 98.877 30.1377C98.7033 30.0568 98.4794 30.0164 98.2052 30.0164H97.199V35.1596H96.1012ZM99.2321 32.4134L100.732 35.1596H99.5073L98.0336 32.4134H99.2321Z" fill="#31AAB7"/>
<path d="M102.299 35.1596H101.127L103.261 29.099H104.616L106.753 35.1596H105.581L103.962 30.3419H103.915L102.299 35.1596ZM102.338 32.7833H105.534V33.6651H102.338V32.7833Z" fill="#31AAB7"/>
<path d="M112.532 29.099V35.1596H111.555L108.7 31.0314H108.649V35.1596H107.551V29.099H108.534L111.387 33.2301H111.44V29.099H112.532Z" fill="#31AAB7"/>
<path d="M113.462 30.0193V29.099H118.297V30.0193H116.424V35.1596H115.335V30.0193H113.462Z" fill="#31AAB7"/>
<path d="M119.229 35.1596V29.099H123.171V30.0193H120.327V31.6647H122.967V32.585H120.327V34.2392H123.195V35.1596H119.229Z" fill="#31AAB7"/>
<path d="M124.291 35.1596V29.099H128.233V30.0193H125.389V31.6647H128.029V32.585H125.389V34.2392H128.257V35.1596H124.291Z" fill="#31AAB7"/>
<path d="M132.647 30.765C132.619 30.5066 132.503 30.3054 132.298 30.1614C132.094 30.0173 131.83 29.9453 131.505 29.9453C131.276 29.9453 131.079 29.9799 130.916 30.0489C130.752 30.118 130.627 30.2117 130.54 30.33C130.453 30.4484 130.409 30.5835 130.407 30.7355C130.407 30.8617 130.435 30.9712 130.492 31.0639C130.552 31.1567 130.632 31.2356 130.732 31.3007C130.833 31.3638 130.944 31.4171 131.067 31.4605C131.189 31.5039 131.312 31.5404 131.436 31.57L132.005 31.712C132.233 31.7653 132.453 31.8373 132.665 31.928C132.878 32.0188 133.068 32.1332 133.236 32.2713C133.405 32.4094 133.54 32.5761 133.638 32.7714C133.737 32.9668 133.786 33.1956 133.786 33.458C133.786 33.8131 133.695 34.1258 133.514 34.3961C133.332 34.6644 133.07 34.8745 132.727 35.0264C132.385 35.1763 131.972 35.2513 131.487 35.2513C131.015 35.2513 130.606 35.1783 130.259 35.0323C129.913 34.8863 129.643 34.6733 129.448 34.3931C129.254 34.113 129.15 33.7717 129.134 33.3692H130.214C130.23 33.5803 130.295 33.7559 130.41 33.896C130.524 34.036 130.673 34.1406 130.856 34.2096C131.042 34.2787 131.249 34.3132 131.478 34.3132C131.717 34.3132 131.926 34.2777 132.105 34.2067C132.287 34.1337 132.429 34.0331 132.531 33.9048C132.634 33.7746 132.686 33.6227 132.688 33.4491C132.686 33.2913 132.64 33.1611 132.549 33.0585C132.458 32.9539 132.331 32.8671 132.167 32.7981C132.006 32.7271 131.816 32.6639 131.599 32.6087L130.91 32.4311C130.411 32.3029 130.016 32.1086 129.726 31.8481C129.438 31.5858 129.294 31.2375 129.294 30.8035C129.294 30.4464 129.391 30.1337 129.584 29.8654C129.779 29.5971 130.045 29.389 130.38 29.241C130.715 29.0911 131.095 29.0161 131.519 29.0161C131.949 29.0161 132.326 29.0911 132.65 29.241C132.975 29.389 133.231 29.5951 133.416 29.8595C133.602 30.1219 133.697 30.4237 133.703 30.765H132.647Z" fill="#31AAB7"/>
</svg>
