<svg width="296" height="296" viewBox="0 0 296 296" fill="none" xmlns="http://www.w3.org/2000/svg">
<g clip-path="url(#clip0_1415_15200)">
<path d="M194.293 356.219V194.36H268.441V377.436" stroke="#CCDDE2" stroke-width="1.43154" stroke-miterlimit="10"/>
<path d="M201.664 209.272V218.744H211.136V201.36H201.664V209.272ZM203.221 202.914H209.567V209.272H203.221V202.914ZM203.221 210.826H209.567V217.184H203.221V210.826Z" fill="#D7E8F0"/>
<path d="M218.364 209.272V218.744H227.836V201.36H218.364V209.272ZM219.927 202.917H226.285V209.272H219.927V202.917ZM219.927 210.829H226.285V217.187H219.927V210.829Z" fill="#D7E8F0"/>
<path d="M234.609 209.272V218.744H244.081V201.36H234.609V209.272ZM236.166 202.914H242.524V209.272H236.166V202.914ZM236.166 210.826H242.524V217.184H236.166V210.826Z" fill="#D7E8F0"/>
<path d="M249.901 201.36V218.744H259.373V201.36H249.901ZM257.816 217.187H251.455V210.829H257.816V217.187ZM257.816 209.272H251.455V202.917H257.816V209.272Z" fill="#D7E8F0"/>
<path d="M201.664 232.656V242.128H211.136V224.747H201.664V232.656ZM203.221 226.298H209.567V232.656H203.221V226.298ZM203.221 234.21H209.567V240.568H203.221V234.21Z" fill="#D7E8F0"/>
<path d="M218.364 232.656V242.128H227.836V224.747H218.364V232.656ZM219.927 226.301H226.285V232.656H219.927V226.301ZM219.927 234.213H226.285V240.571H219.927V234.213Z" fill="#D7E8F0"/>
<path d="M234.609 232.656V242.128H244.081V224.747H234.609V232.656ZM236.166 226.298H242.524V232.656H236.166V226.298ZM236.166 234.21H242.524V240.568H236.166V234.21Z" fill="#D7E8F0"/>
<path d="M249.901 232.656V242.128H259.373V224.747H249.901V232.656ZM251.455 226.298H257.816V232.656H251.455V226.298ZM251.455 234.21H257.816V240.568H251.455V234.21Z" fill="#D7E8F0"/>
<path d="M201.664 256.04V265.512H211.136V248.131H201.664V256.04ZM203.221 249.682H209.567V256.04H203.221V249.682ZM203.221 257.597H209.567V263.955H203.221V257.597Z" fill="#D7E8F0"/>
<path d="M218.364 256.04V265.512H227.836V248.131H218.364V256.04ZM219.927 249.685H226.285V256.04H219.927V249.685ZM219.927 257.6H226.285V263.958H219.927V257.6Z" fill="#D7E8F0"/>
<path d="M234.609 256.04V265.512H244.081V248.131H234.609V256.04ZM236.166 249.682H242.524V256.04H236.166V249.682ZM236.166 257.597H242.524V263.955H236.166V257.597Z" fill="#D7E8F0"/>
<path d="M249.901 256.04V265.512H259.373V248.131H249.901V256.04ZM251.455 249.682H257.816V256.04H251.455V249.682ZM251.455 257.597H257.816V263.955H251.455V257.597Z" fill="#D7E8F0"/>
<path d="M201.664 279.424V288.896H211.136V271.515H201.664V279.424ZM203.221 273.066H209.567V279.424H203.221V273.066ZM203.221 280.978H209.567V287.336H203.221V280.978Z" fill="#D7E8F0"/>
<path d="M218.364 279.424V288.896H227.836V271.515H218.364V279.424ZM219.927 273.072H226.285V279.424H219.927V273.072ZM219.927 280.984H226.285V287.342H219.927V280.984Z" fill="#D7E8F0"/>
<path d="M234.609 279.424V288.896H244.081V271.515H234.609V279.424ZM236.166 273.066H242.524V279.424H236.166V273.066ZM236.166 280.978H242.524V287.336H236.166V280.978Z" fill="#D7E8F0"/>
<path d="M249.901 279.424V288.896H259.373V271.515H249.901V279.424ZM251.455 273.066H257.816V279.424H251.455V273.066ZM251.455 280.978H257.816V287.336H251.455V280.978Z" fill="#D7E8F0"/>
<path d="M201.664 302.809V312.281H211.136V294.899H201.664V302.809ZM203.221 296.45H209.567V302.809H203.221V296.45ZM203.221 304.363H209.567V310.721H203.221V304.363Z" fill="#D7E8F0"/>
<path d="M218.364 302.809V312.281H227.836V294.899H218.364V302.809ZM219.921 296.45H226.279V302.809H219.927L219.921 296.45ZM219.921 304.363H226.279V310.721H219.927L219.921 304.363Z" fill="#D7E8F0"/>
<path d="M234.609 302.809V312.281H244.081V294.899H234.609V302.809ZM236.166 296.45H242.524V302.809H236.166V296.45ZM236.166 304.363H242.524V310.721H236.166V304.363Z" fill="#D7E8F0"/>
<path d="M249.901 302.809V312.281H259.373V294.899H249.901V302.809ZM251.455 296.45H257.816V302.809H251.455V296.45ZM251.455 304.363H257.816V310.721H251.455V304.363Z" fill="#D7E8F0"/>
<path d="M153.713 128.391V47.4258H227.858V194.366" stroke="#CCDDE2" stroke-width="1.43154" stroke-miterlimit="10"/>
<path d="M161.083 62.3379V71.8099H170.555V54.4229H161.083V62.3379ZM162.64 55.9798H168.998V62.3379H162.64V55.9798ZM162.64 63.8919H168.998V70.25H162.64V63.8919Z" fill="#D7E8F0"/>
<path d="M177.787 62.3379V71.8099H187.259V54.4229H177.787V62.3379ZM179.341 55.9798H185.699V62.3379H179.341V55.9798ZM179.341 63.8919H185.699V70.25H179.341V63.8919Z" fill="#D7E8F0"/>
<path d="M194.03 62.3379V71.8099H203.502V54.4229H194.03V62.3379ZM195.584 55.9798H201.942V62.3379H195.584V55.9798ZM195.584 63.8919H201.942V70.25H195.584V63.8919Z" fill="#D7E8F0"/>
<path d="M209.319 54.4229V71.804H218.791V54.4229H209.319ZM217.231 70.25H210.876V63.8919H217.231V70.25ZM217.231 62.3379H210.876V55.9798H217.231V62.3379Z" fill="#D7E8F0"/>
<path d="M161.083 85.7221V95.1941H170.555V77.8101H161.083V85.7221ZM162.64 79.3641H168.998V85.7221H162.64V79.3641ZM162.64 87.2761H168.998V93.6342H162.64V87.2761Z" fill="#D7E8F0"/>
<path d="M177.787 85.7221V95.1941H187.259V77.8101H177.787V85.7221ZM179.341 79.3641H185.699V85.7221H179.341V79.3641ZM179.341 87.2761H185.699V93.6342H179.341V87.2761Z" fill="#D7E8F0"/>
<path d="M194.03 85.7221V95.1941H203.502V77.8101H194.03V85.7221ZM195.584 79.3641H201.942V85.7221H195.584V79.3641ZM195.584 87.2761H201.942V93.6342H195.584V87.2761Z" fill="#D7E8F0"/>
<path d="M209.319 85.7221V95.1941H218.791V77.8101H209.319V85.7221ZM210.876 79.3641H217.231V85.7221H210.876V79.3641ZM210.876 87.2761H217.231V93.6342H210.876V87.2761Z" fill="#D7E8F0"/>
<path d="M161.083 109.106V118.578H170.555V101.194H161.083V109.106ZM162.64 102.748H168.998V109.106H162.64V102.748ZM162.64 110.663H168.998V117.021H162.64V110.663Z" fill="#D7E8F0"/>
<path d="M177.787 109.106V118.578H187.259V101.194H177.787V109.106ZM179.341 102.748H185.699V109.106H179.341V102.748ZM179.341 110.663H185.699V117.021H179.341V110.663Z" fill="#D7E8F0"/>
<path d="M194.03 109.106V118.578H203.502V101.194H194.03V109.106ZM195.584 102.748H201.942V109.106H195.584V102.748ZM195.584 110.663H201.942V117.021H195.584V110.663Z" fill="#D7E8F0"/>
<path d="M209.319 109.106V118.578H218.791V101.194H209.319V109.106ZM210.876 102.748H217.231V109.106H210.876V102.748ZM210.876 110.663H217.231V117.021H210.876V110.663Z" fill="#D7E8F0"/>
<path d="M161.083 132.493V141.965H170.555V124.578H161.083V132.493ZM162.64 126.135H168.998V132.493H162.64V126.135ZM162.64 134.047H168.998V140.405H162.64V134.047Z" fill="#D7E8F0"/>
<path d="M177.787 132.493V141.965H187.259V124.578H177.787V132.493ZM179.341 126.135H185.699V132.493H179.341V126.135ZM179.341 134.047H185.699V140.405H179.341V134.047Z" fill="#D7E8F0"/>
<path d="M194.03 132.493V141.965H203.502V124.578H194.03V132.493ZM195.584 126.135H201.942V132.493H195.584V126.135ZM195.584 134.047H201.942V140.405H195.584V134.047Z" fill="#D7E8F0"/>
<path d="M209.319 132.493V141.965H218.791V124.578H209.319V132.493ZM210.876 126.135H217.231V132.493H210.876V126.135ZM210.876 134.047H217.231V140.405H210.876V134.047Z" fill="#D7E8F0"/>
<path d="M177.787 155.877V165.349H187.259V147.962H177.787V155.877ZM179.341 149.519H185.699V155.877H179.341V149.519ZM179.341 157.431H185.699V163.789H179.341V157.431Z" fill="#D7E8F0"/>
<path d="M194.03 155.877V165.349H203.502V147.962H194.03V155.877ZM195.584 149.519H201.942V155.877H195.584V149.519ZM195.584 157.431H201.942V163.789H195.584V157.431Z" fill="#D7E8F0"/>
<path d="M209.319 155.877V165.349H218.791V147.962H209.319V155.877ZM210.876 149.519H217.231V155.877H210.876V149.519ZM210.876 157.431H217.231V163.789H210.876V157.431Z" fill="#D7E8F0"/>
<path d="M81.4411 112.776C77.0011 103.192 73.7007 93.1129 70.9154 82.9334C63.3111 55.1361 80.1713 22.2238 109.244 16.1292C119.122 14.0572 129.414 14.5545 139.253 16.588C155.506 19.9417 169.948 31.4827 178.103 45.9305C182.214 53.2121 184.813 61.4142 185.1 69.7999C185.447 79.8817 180.631 88.4331 179.106 98.1982L179.053 98.5238" stroke="#CCDDE2" stroke-width="1.43154" stroke-miterlimit="10"/>
<path d="M179.755 281.153C180.675 281.029 178.831 281.304 179.755 281.153C209.272 281.2 231.889 258.441 228.216 225.709C224.75 194.884 207.064 174.185 186.85 153.399C177.943 144.241 171.257 121.878 177.399 113.777" stroke="#CCDDE2" stroke-width="1.43154" stroke-miterlimit="10"/>
<path d="M66.792 162.945C66.792 163.573 66.8127 164.2 66.8305 164.816C67.1916 175.824 69.8053 183.061 71.383 186.48C70.8664 185.021 70.6883 183.463 70.862 181.925C70.973 180.881 71.138 179.844 71.3563 178.817C72.5966 173.055 75.4102 167.749 79.4845 163.49L79.523 163.454C80.0646 162.892 80.482 162.513 80.707 162.312L80.8076 162.208L80.9112 162.125L126.818 118.451C127.104 116.571 127.286 114.676 127.362 112.776C129.671 113.128 132.199 113.395 134.967 113.575C137.142 113.709 139.484 113.786 141.973 113.794C164.857 113.871 174.687 117.406 178.499 119.489C178.718 119.61 178.964 119.671 179.213 119.667C179.462 119.664 179.707 119.595 179.921 119.469C180.136 119.342 180.314 119.162 180.438 118.945C180.562 118.729 180.627 118.484 180.628 118.234V99.2579C177.964 97.8223 174.678 96.8247 170.608 96.4725C159.618 95.5223 147.544 95.5845 137.24 91.1682C129.544 87.8678 122.597 81.2788 114.744 77.9518C110.896 76.3267 106.87 75.4891 102.422 76.1758C97.4398 76.9543 93.2455 79.1802 89.6935 82.2319C89.6462 82.2675 89.6077 82.3178 89.5603 82.3533C85.5022 85.8816 82.2965 90.4726 79.816 95.1701C71.9927 109.952 67.3337 128.938 66.9252 145.86V146.05C66.9252 146.81 66.9074 147.562 66.9074 148.314L66.792 162.945Z" fill="#2E2E2E"/>
<path d="M95.0986 43.3554V47.8339H127.744V43.3554C127.745 43.0034 127.727 42.6516 127.688 42.3017C127.427 39.7262 126.218 37.3398 124.296 35.6058C122.373 33.8718 119.875 32.9141 117.287 32.9185H105.536C104.165 32.9177 102.807 33.1871 101.541 33.7114C100.274 34.2356 99.1231 35.0043 98.1538 35.9737C97.1845 36.943 96.4157 38.0938 95.8915 39.3605C95.3673 40.6271 95.0979 41.9846 95.0986 43.3554Z" fill="#2E2E2E"/>
<path d="M139.99 180.559L144.513 191.958H172.929C173.327 191.958 173.72 191.88 174.088 191.727C174.455 191.575 174.788 191.352 175.069 191.07C175.635 190.498 175.954 189.726 175.957 188.921C175.955 188.226 175.714 187.552 175.275 187.013C174.835 186.474 174.223 186.103 173.542 185.961L160.639 183.318L158.928 176.776L139.99 180.559Z" fill="#F8E0E0"/>
<path d="M180.608 274.15L171.432 261.718V253.255H156.25C156.182 253.256 156.115 253.276 156.057 253.311C155.999 253.347 155.951 253.398 155.919 253.458C155.886 253.518 155.871 253.586 155.873 253.655C155.876 253.723 155.897 253.789 155.934 253.847L173.457 279.253C173.861 279.838 174.401 280.316 175.03 280.647C175.66 280.977 176.36 281.15 177.071 281.15C177.884 281.15 178.681 280.925 179.374 280.499C180.066 280.074 180.627 279.464 180.994 278.738C181.361 278.013 181.519 277.199 181.451 276.389C181.382 275.579 181.091 274.804 180.608 274.15Z" fill="#F8E0E0"/>
<path d="M97.5133 54.3076C98.3803 57.12 98.8223 60.0462 98.8246 62.9893C105.242 62.9893 106.45 59.8606 105.955 57.389C105.405 54.6421 106.231 50.8089 110.061 50.2583C113.891 49.7078 112.811 55.7432 112.355 62.865C112.367 64.3966 112.619 65.9169 113.104 67.3701C113.824 69.5625 115.332 71.4095 117.336 72.553C119.248 73.6118 121.406 74.1459 123.591 74.1011C123.591 74.1011 127.335 64.786 124.722 64.0164C122.108 63.2468 116.099 56.5631 117.467 48.3284C117.496 48.1478 117.526 47.988 117.564 47.8252H96.5632C96.5158 50.0239 96.837 52.215 97.5133 54.3076Z" fill="#F8E0E0"/>
<path d="M66.9466 145.869V146.058C66.9466 146.819 66.9288 147.571 66.9288 148.322L66.8252 162.98C66.8252 163.599 66.843 164.209 66.8607 164.816" stroke="black" stroke-width="1.43154" stroke-miterlimit="10"/>
<path d="M71.3867 178.801C73.9782 182.842 77.5447 186.166 81.7579 188.467C85.9711 190.768 90.6954 191.972 95.4959 191.967H148.184C153.08 191.967 155.513 194.4 155.513 197.396V275.576C155.513 277.055 156.101 278.475 157.147 279.521C158.194 280.567 159.613 281.155 161.092 281.155H180.359" stroke="black" stroke-width="1.43154" stroke-miterlimit="10"/>
<path d="M180.608 274.15L171.432 261.718V253.255H156.25C156.182 253.256 156.115 253.276 156.057 253.311C155.999 253.347 155.951 253.398 155.919 253.458C155.886 253.518 155.871 253.586 155.873 253.655C155.876 253.723 155.897 253.789 155.934 253.847L173.457 279.253C173.861 279.838 174.401 280.316 175.03 280.647C175.66 280.977 176.36 281.15 177.071 281.15C177.884 281.15 178.681 280.925 179.374 280.499C180.066 280.074 180.627 279.464 180.994 278.738C181.361 278.013 181.519 277.199 181.451 276.389C181.382 275.579 181.091 274.804 180.608 274.15V274.15Z" stroke="black" stroke-width="1.43154" stroke-miterlimit="10"/>
<path d="M127.035 162.131L133.035 163.034" stroke="black" stroke-width="1.43154" stroke-miterlimit="10"/>
<path d="M168.637 169.194C181.167 174.054 188.469 185.986 186.966 198.868L180.664 253.255H155.504" stroke="black" stroke-width="1.43154" stroke-miterlimit="10"/>
<path d="M126.469 146.497L130.11 155.673L133.029 163.04L139.991 180.56L144.514 191.959H172.93C173.327 191.959 173.721 191.881 174.088 191.728C174.455 191.576 174.789 191.353 175.07 191.071C175.635 190.499 175.954 189.727 175.958 188.922C175.956 188.227 175.715 187.553 175.275 187.014C174.835 186.475 174.223 186.104 173.542 185.962L160.64 183.319L158.929 176.777L170.65 174.676L168.646 169.191L151.656 122.719C148.104 112.951 134.828 110.852 127.301 118.021L126.863 118.439L79.2959 163.688" stroke="black" stroke-width="1.43154" stroke-miterlimit="10"/>
<path d="M98.082 191.968C102.532 191.968 106.889 190.698 110.642 188.306C114.394 185.915 117.385 182.501 119.264 178.467L127.031 162.137L130.109 155.672" stroke="black" stroke-width="1.43154" stroke-miterlimit="10"/>
<path d="M104.242 101.614C104.242 101.614 107.865 109.849 127.393 112.785C129.701 113.138 132.236 113.405 134.997 113.584C137.167 113.716 139.503 113.789 142.003 113.803C164.887 113.88 174.717 117.415 178.53 119.498C178.748 119.618 178.994 119.68 179.244 119.676C179.493 119.672 179.737 119.604 179.952 119.477C180.167 119.351 180.345 119.17 180.47 118.954C180.594 118.738 180.66 118.493 180.661 118.243V109.867C182.398 111.027 183.674 112.747 184.595 114.697C185.746 117.065 186.371 119.8 186.705 122.301C186.978 124.277 187.108 126.269 187.096 128.263C187.096 128.754 187.29 129.226 187.637 129.574C187.808 129.749 188.012 129.888 188.237 129.983C188.462 130.078 188.704 130.126 188.949 130.125C189.388 130.126 189.814 129.971 190.15 129.687C190.486 129.404 190.711 129.01 190.784 128.577C191.672 123.337 193.427 106.178 180.661 99.2579C177.997 97.8223 174.708 96.8247 170.638 96.4725C159.651 95.5223 147.577 95.5845 137.27 91.1682C129.559 87.8678 122.621 81.2699 114.774 77.9518C110.941 76.3267 106.9 75.4891 102.452 76.1758C97.4699 76.9543 93.2756 79.1802 89.7236 82.2319C85.5974 85.7839 82.3532 90.4252 79.8431 95.1701C72.0198 109.952 67.3608 128.938 66.9523 145.86V146.05C66.9523 146.81 66.9346 147.562 66.9346 148.314" stroke="black" stroke-width="1.43154" stroke-miterlimit="10"/>
<path d="M113.138 67.4286L113.111 67.3694C112.563 66.2801 112.223 64.8208 112.359 62.8672C112.809 55.7395 113.907 49.707 110.068 50.2576C106.229 50.8082 105.409 54.6443 105.968 57.3853C106.463 59.8598 105.261 63.0093 98.8408 62.9915" stroke="black" stroke-width="1.43154" stroke-miterlimit="10"/>
<path d="M124.723 64.0163C125.229 62.1633 129.619 62.4238 127.65 58.4101C126.528 56.119 126.466 52.2148 127.171 47.834" stroke="black" stroke-width="1.43154" stroke-miterlimit="10"/>
<path d="M96.5637 47.834C96.5206 50.0293 96.8407 52.2166 97.5109 54.3075C98.3827 57.12 98.8268 60.0476 98.8281 62.9921V62.9921L98.7216 68.1751C98.6871 70.5778 98.0718 72.9365 96.928 75.0498C95.7842 77.1631 94.1461 78.9683 92.1533 80.3111C91.23 80.908 90.3674 81.594 89.5781 82.3594" stroke="black" stroke-width="1.43154" stroke-miterlimit="10"/>
<path d="M112.358 62.8679C112.368 64.399 112.622 65.9188 113.11 67.3701C115.623 74.557 123.589 74.0982 123.589 74.0982C123.589 74.0982 127.339 64.786 124.722 64.0164C122.106 63.2468 116.1 56.5631 117.47 48.3284C117.497 48.1538 117.532 47.985 117.568 47.8252" stroke="black" stroke-width="1.43154" stroke-miterlimit="10"/>
<path d="M127.771 42.2988H127.827" stroke="black" stroke-width="1.43154" stroke-miterlimit="10"/>
<path d="M139.99 180.57L158.916 176.787" stroke="black" stroke-width="1.43154" stroke-miterlimit="10"/>
<path d="M180.66 109.866V99.2573" stroke="black" stroke-width="1.43154" stroke-miterlimit="10"/>
<path d="M184.601 114.691C182.925 117.592 183.316 123.458 185.13 123.343C185.758 123.296 186.282 122.866 186.711 122.298" stroke="black" stroke-width="1.43154" stroke-miterlimit="10"/>
<path d="M127.824 47.8334V43.3579C127.824 41.9858 127.553 40.6271 127.028 39.3596C126.502 38.092 125.732 36.9404 124.762 35.9706C123.791 35.0007 122.639 34.2317 121.371 33.7074C120.103 33.1831 118.744 32.9139 117.372 32.915H105.621C104.249 32.9139 102.89 33.1832 101.622 33.7075C100.355 34.2319 99.2029 35.001 98.2328 35.9709C97.2626 36.9408 96.4931 38.0925 95.9684 39.36C95.4437 40.6275 95.174 41.9861 95.1748 43.3579V47.8334H139.498" stroke="black" stroke-width="1.43154" stroke-miterlimit="10"/>
<path d="M119.048 47.8339C119.256 35.6772 112.332 33.1937 111.503 32.9391C111.451 32.9213 111.393 32.9213 111.341 32.9391C110.512 33.1937 103.588 35.6772 103.796 47.8339" stroke="black" stroke-width="1.43154" stroke-miterlimit="10"/>
<path d="M113.761 32.8558C113.739 32.2496 113.483 31.6755 113.047 31.2543C112.61 30.833 112.027 30.5977 111.421 30.5977C110.814 30.5977 110.231 30.833 109.795 31.2543C109.359 31.6755 109.103 32.2496 109.081 32.8558H113.761Z" fill="black"/>
<path d="M117.337 72.5464L114.779 77.9484" stroke="black" stroke-width="1.43154" stroke-miterlimit="10"/>
<path d="M126.356 52.3925C126.356 52.3925 122.363 51.6732 120.842 54.7605" stroke="black" stroke-width="1.41372" stroke-miterlimit="10"/>
<path d="M124.42 56.6481C124.978 56.2594 125.162 55.5594 124.832 55.0845C124.501 54.6096 123.78 54.5398 123.222 54.9285C122.664 55.3172 122.48 56.0173 122.811 56.4921C123.142 56.967 123.862 57.0368 124.42 56.6481Z" fill="black"/>
<path d="M121.183 64.6846C121.183 64.6846 122.701 66.8246 125.8 66.061" stroke="black" stroke-width="1.41372" stroke-miterlimit="10"/>
<path d="M80.9331 162.131C80.9331 162.131 72.2247 169.194 70.8898 181.916C70.3392 187.164 73.6426 191.965 78.9202 191.965H96.2333" stroke="black" stroke-width="1.43154" stroke-miterlimit="10"/>
<path d="M72.6052 188.745C72.6052 188.745 66.555 179.448 66.8273 160.921" stroke="black" stroke-width="1.43154" stroke-miterlimit="10"/>
<path d="M126.851 118.45C127.136 116.57 127.317 114.676 127.392 112.776" stroke="black" stroke-width="1.43154" stroke-miterlimit="10"/>
<path d="M72.132 179.9C72.132 179.9 71.7916 179.263 71.3861 180.154C70.9805 181.045 69.3318 188.404 74.4053 190.547C79.4787 192.69 90.1317 191.468 90.1317 191.468C90.1317 191.468 77.5517 188.798 72.132 179.9Z" fill="black"/>
</g>
<defs>
<clipPath id="clip0_1415_15200">
<rect width="296" height="296" fill="white"/>
</clipPath>
</defs>
</svg>
