<svg width="212" height="212" viewBox="0 0 212 212" fill="none" xmlns="http://www.w3.org/2000/svg">
<path d="M93.1734 29.3131C93.1629 29.2947 93.1537 29.2755 93.1458 29.2559L93.1585 29.2432C93.1651 29.2661 93.1701 29.2895 93.1734 29.3131Z" fill="#31AAB7"/>
<path d="M93.2242 29.5675C93.2045 29.498 93.1903 29.4272 93.1818 29.3555C93.2163 29.4205 93.2311 29.4942 93.2242 29.5675Z" fill="#31AAB7"/>
<path d="M102.747 102.566C102.694 102.687 102.65 102.805 102.597 102.93C98.6832 112.46 95.9526 123.861 95.3188 137.505C84.4538 110.891 66.4295 98.0077 50.3748 91.8216C50.6631 82.9282 51.899 67.4628 56.9468 57.9609C56.9468 57.9609 65.4946 59.9601 76.2536 68.3892C84.7421 75.0397 94.6192 85.7054 102.747 102.566Z" fill="#31AAB7"/>
<path d="M104.35 102.421L103.983 102.339C104.036 102.212 104.083 102.091 104.134 101.968C104.206 102.116 104.28 102.284 104.35 102.421Z" fill="#31AAB7"/>
<path d="M104.35 102.421L103.983 102.339C104.036 102.212 104.083 102.091 104.134 101.968C104.206 102.116 104.28 102.284 104.35 102.421Z" fill="#31AAB7"/>
<path d="M97.3243 163.512C97.2204 163.512 97.1123 163.512 97.0105 163.512C56.4719 163.512 22.8911 132.791 16.8745 92.6552C16.4696 89.2293 16.4081 87.1835 16.4081 87.1835C16.4081 87.1835 31.0361 85.6995 47.9961 92.3754C63.0375 98.2966 79.917 110.624 90.0909 136.09V136.109C90.1523 136.262 90.2138 136.412 90.2689 136.571C93.309 144.277 95.7301 153.179 97.3116 163.455C97.3179 163.474 97.3243 163.493 97.3243 163.512Z" fill="#31AAB7"/>
<path d="M191.692 88.4131C187.819 133.872 150.941 169.567 105.976 169.749C106.001 167.684 106.648 144.349 120.733 123.194C127.029 113.647 135.487 105.719 145.421 100.054C145.703 99.8908 145.976 99.736 146.269 99.5812C146.614 99.3841 146.968 99.1954 147.329 99.0067C147.42 98.9537 147.517 98.905 147.617 98.852C147.963 98.6696 148.308 98.4873 148.662 98.3114C148.845 98.2181 149.027 98.1227 149.218 98.0358C149.595 97.8407 149.981 97.6499 150.367 97.4676C150.753 97.2853 151.092 97.1242 151.458 96.9567L151.588 96.8952C151.863 96.7659 152.137 96.645 152.417 96.5242C152.764 96.361 153.11 96.2126 153.462 96.0642C154.488 95.619 155.546 95.195 156.625 94.7922L156.998 94.6501C157.454 94.4742 157.912 94.3067 158.376 94.1434C167.704 90.8362 178.717 88.7353 191.692 88.4131Z" fill="#31AAB7"/>
<path d="M130.494 67.323C121.308 74.2808 110.96 85.2476 104.134 101.968C96.012 84.7748 86.1625 73.895 77.691 67.1131C82.6942 57.7851 94.0341 38.826 104.35 29.958C104.35 29.958 119.968 45.3852 130.494 67.323Z" fill="#31AAB7"/>
<path d="M157.45 92.3682C156.996 92.5272 156.547 92.6926 156.097 92.8643L155.732 93.0042C154.672 93.4006 153.638 93.8183 152.631 94.255C152.285 94.4013 151.946 94.5454 151.607 94.7044C151.331 94.8253 151.062 94.944 150.793 95.0691L150.664 95.1284C150.305 95.2938 149.947 95.4592 149.604 95.633C149.26 95.8068 148.847 95.9955 148.474 96.1884C148.289 96.2732 148.109 96.3665 147.931 96.4598C147.583 96.6315 147.244 96.8096 146.905 96.9898C146.809 97.0428 146.712 97.0873 146.623 97.1403C146.277 97.3269 145.932 97.5113 145.59 97.7043C145.308 97.8569 145.039 98.0074 144.764 98.1664C135.015 103.723 126.714 111.5 120.534 120.865C106.72 141.616 106.084 164.508 106.059 166.532L106.027 166.473C104.373 155.729 101.844 146.422 98.6642 138.366L98.9143 137.545L98.4797 137.882C98.4797 137.882 98.4797 137.882 98.4797 137.87C99.1009 124.221 101.772 112.809 105.605 103.284L105.963 103.363L105.751 102.919C112.448 86.517 122.599 75.7601 131.615 68.9358C142.234 60.901 151.287 58.2998 151.287 58.2998C156.116 64.2697 157.219 82.5314 157.45 92.3682Z" fill="#31AAB7"/>
<path d="M96.2961 139.882V139.86C96.2961 139.86 96.2961 139.873 96.2961 139.882Z" stroke="#CCDDE2" stroke-width="0.84164" stroke-miterlimit="10"/>
<path d="M104.132 102.176C104.076 102.305 104.028 102.432 103.973 102.568C99.8407 112.841 96.9596 125.148 96.2876 139.867C84.8184 111.156 65.7872 97.2551 48.8293 90.5834C49.1324 80.9883 50.4384 64.306 55.7723 54.0537C55.7723 54.0537 64.7971 56.2098 76.1582 65.3046C85.1216 72.4786 95.5498 83.986 104.132 102.176Z" stroke="#CCDDE2" stroke-width="0.84164" stroke-miterlimit="10"/>
<path d="M104.361 102.655L103.973 102.568C104.028 102.432 104.076 102.305 104.132 102.176C104.208 102.333 104.28 102.496 104.361 102.655Z" stroke="#CCDDE2" stroke-width="0.84164" stroke-miterlimit="10"/>
<path d="M96.2961 139.882V139.86C96.2961 139.86 96.2961 139.873 96.2961 139.882Z" stroke="#CCDDE2" stroke-width="0.84164" stroke-miterlimit="10"/>
<path d="M104.361 102.655L103.973 102.568C104.028 102.432 104.076 102.305 104.132 102.176C104.208 102.333 104.28 102.496 104.361 102.655Z" stroke="#CCDDE2" stroke-width="0.84164" stroke-miterlimit="10"/>
<path opacity="0.9" d="M34.2161 136.87C33.4678 135.956 32.7321 135.021 32.024 134.071C22.4923 121.39 16.2135 106.567 13.7369 90.8973C13.12 87.058 13.2154 84.7302 13.2154 84.7302C13.2154 84.7302 29.6984 83.0597 48.8314 90.5836C65.7914 97.2573 84.8163 111.148 96.2876 139.867V139.891C96.3576 140.062 96.4296 140.234 96.4869 140.412C99.9213 149.104 102.648 159.136 104.433 170.728C104.433 170.749 104.433 170.77 104.433 170.794C104.312 170.794 104.197 170.794 104.076 170.794C80.4237 170.76 58.8526 161.326 42.588 145.913C40.892 144.309 39.2405 142.632 37.6632 140.895" stroke="#CCDDE2" stroke-width="0.84164" stroke-miterlimit="10"/>
<path d="M96.2961 139.882V139.86C96.2961 139.86 96.2961 139.873 96.2961 139.882Z" stroke="#CCDDE2" stroke-width="0.84164" stroke-miterlimit="10"/>
<path opacity="0.9" d="M195.147 84.7363C191.05 132.829 152.042 170.584 104.471 170.777C104.498 168.593 105.183 143.908 120.08 121.527C126.743 111.428 135.692 103.043 146.201 97.0493C146.5 96.8776 146.79 96.7143 147.093 96.5511C147.46 96.3391 147.833 96.1441 148.206 95.9427C148.302 95.8854 148.406 95.8366 148.51 95.7794C148.876 95.5865 149.243 95.3936 149.616 95.2091C149.809 95.1074 150.002 94.9971 150.203 94.9144C150.604 94.7024 151.011 94.5095 151.42 94.3166C151.83 94.1237 152.186 93.952 152.574 93.7739L152.711 93.7082C153.002 93.5725 153.292 93.4453 153.589 93.316C153.956 93.1442 154.321 92.9874 154.694 92.8305C155.779 92.3598 156.898 91.9104 158.039 91.4822L158.433 91.3316C158.917 91.1472 159.4 90.967 159.892 90.7974C169.773 87.2909 181.425 85.0776 195.147 84.7363Z" stroke="#CCDDE2" stroke-width="0.84164" stroke-miterlimit="10"/>
<path d="M132.016 65.5274C122.3 72.8859 111.352 84.4866 104.132 102.176C95.5498 83.9862 85.1216 72.4789 76.1582 65.3048C81.4582 55.432 93.4489 35.381 104.354 26C104.361 26 120.869 42.3198 132.016 65.5274Z" stroke="#CCDDE2" stroke-width="0.84164" stroke-miterlimit="10"/>
<path d="M40.5231 118.065C40.5253 118.051 40.5253 118.037 40.5231 118.023C40.5231 118.008 40.5231 117.993 40.5231 117.966C40.5198 117.942 40.5198 117.917 40.5231 117.894C40.5291 117.944 40.539 117.995 40.5528 118.044C40.5496 118.05 40.5454 118.054 40.5402 118.058C40.5351 118.062 40.5293 118.064 40.5231 118.065Z" fill="white"/>
<path d="M40.6016 131.771C40.2745 132.826 39.8567 133.851 39.3529 134.834C39.2088 135.112 39.0667 135.383 38.9098 135.655C38.3743 136.66 37.7171 137.596 36.9531 138.44C36.8174 138.396 36.6817 138.339 36.5609 138.29C36.5333 138.29 36.51 138.269 36.4888 138.26C34.019 137.183 32.164 135.163 31.6128 132.892C31.121 130.893 31.564 128.731 30.6143 126.855C29.444 124.544 26.2895 123.098 25.8952 120.486C25.539 118.044 27.7374 115.803 27.3792 113.412C26.9721 110.704 23.6458 109.1 23.031 106.458C22.6388 104.817 22.9886 102.924 22.8466 101.232C22.6825 99.3412 22.3619 97.4671 21.8884 95.6291C22.1173 95.6142 22.3463 95.6078 22.5752 95.5994C27.2392 95.5209 31.8545 98.1434 33.3682 101.839C34.5893 104.824 33.9681 108.271 35.5878 111.069C35.6859 111.25 35.7957 111.424 35.9164 111.591C36.1289 111.886 36.3575 112.169 36.6012 112.439L37.1163 112.975C37.2011 113.06 37.2944 113.138 37.3792 113.231C37.464 113.325 37.5573 113.403 37.6442 113.496C38.4498 114.266 39.2724 115.044 39.8066 115.966C39.8559 116.046 39.8992 116.13 39.9359 116.216C39.9859 116.3 40.0285 116.388 40.0631 116.479C40.1092 116.572 40.1502 116.668 40.1861 116.765C40.2285 116.871 40.2645 116.977 40.2984 117.094C40.3493 117.266 40.4002 117.429 40.4341 117.601C40.4341 117.643 40.4341 117.679 40.449 117.715C40.4638 117.751 40.449 117.743 40.449 117.758C40.4521 117.772 40.4521 117.786 40.449 117.8C40.452 117.824 40.457 117.848 40.4638 117.872V117.887C40.4646 117.914 40.4689 117.94 40.4765 117.965C40.4765 117.993 40.4765 118.008 40.4765 118.023C40.4787 118.037 40.4787 118.051 40.4765 118.065V118.08L39.9274 126.047C40.2794 127.974 41.1592 129.895 40.6016 131.771Z" fill="white"/>
<path d="M44.7483 112.432C45.1066 110.705 45.1341 108.892 45.9482 107.243C47.4619 104.202 51.8842 101.996 56.5206 101.854H56.6054C57.0294 101.854 57.4534 101.854 57.8774 101.875C57.3978 103.455 57.0705 105.078 56.9001 106.721C56.7432 108.184 57.1121 109.82 56.7072 111.226C56.0564 113.509 52.5944 114.896 52.1746 117.23C51.8015 119.299 54.0932 121.235 53.7159 123.34C53.3088 125.595 50.025 126.844 48.8123 128.852C47.8329 130.474 48.2908 132.335 47.7841 134.056C47.1905 136.019 45.2401 137.768 42.6728 138.689C42.5074 138.746 42.359 138.803 42.1937 138.854C42.1068 138.875 42.0071 138.911 41.9223 138.932C41.8926 138.911 41.8651 138.881 41.829 138.854C41.0001 138.148 40.0716 136.956 39.302 135.674L39.3592 134.86C39.863 133.877 40.2808 132.852 40.6079 131.796C41.1655 129.92 40.2857 127.999 39.9719 126.072L40.521 118.105L40.6927 117.963C40.7554 117.917 40.8149 117.867 40.8708 117.813C41.7188 117.128 42.6346 116.471 43.2897 115.693C44.1038 114.737 44.4833 113.687 44.725 112.587" fill="white"/>
<path d="M44.7271 112.547C44.7271 112.511 44.742 112.477 44.7483 112.433L44.7271 112.547Z" fill="white"/>
<path d="M44.7483 112.426C44.7483 112.471 44.7335 112.504 44.7271 112.541C44.4854 113.641 44.106 114.69 43.2919 115.646C42.6368 116.424 41.7231 117.082 40.873 117.766C40.8171 117.82 40.7576 117.871 40.6949 117.917L40.5232 118.065C40.5261 118.056 40.5261 118.047 40.5232 118.038C40.5166 118.013 40.5089 117.989 40.4998 117.966C40.4965 117.942 40.4965 117.917 40.4998 117.894V117.879C40.493 117.855 40.4881 117.831 40.485 117.807C40.4881 117.793 40.4881 117.778 40.485 117.764C40.4882 117.758 40.4899 117.75 40.4899 117.743C40.4899 117.736 40.4882 117.728 40.485 117.722C40.4797 117.683 40.4719 117.645 40.4617 117.607C40.4278 117.436 40.3769 117.272 40.326 117.101C40.2921 116.993 40.256 116.878 40.2136 116.772C40.1778 116.674 40.1368 116.579 40.0907 116.486C40.0606 116.393 40.0178 116.304 39.9635 116.223C39.9267 116.136 39.8835 116.053 39.8342 115.973C39.2999 115.051 38.4774 114.277 37.6718 113.503C37.5848 113.41 37.4937 113.316 37.4068 113.238C37.3198 113.16 37.2287 113.066 37.1439 112.981L36.6287 112.445C36.3851 112.175 36.1565 111.892 35.944 111.597C35.944 111.597 36.4188 103.344 40.6376 100.847C44.6211 98.4679 44.7483 111.033 44.7483 112.426Z" fill="white"/>
<path d="M44.7271 112.547C44.7271 112.511 44.742 112.477 44.7483 112.433L44.7271 112.547Z" fill="white"/>
<path d="M40.5168 118.037V118.071C40.5189 118.057 40.5189 118.043 40.5168 118.029C40.5168 118.014 40.5168 117.999 40.5168 117.971C40.5134 117.948 40.5134 117.923 40.5168 117.899C40.5136 117.945 40.5136 117.991 40.5168 118.037Z" fill="white"/>
<path d="M54.795 104.495C47.1905 112.678 43.6162 129.935 42.2234 138.839C42.1089 139.592 42.0114 140.279 41.9181 140.898" fill="white"/>
<path d="M55.4967 145.911L51.9987 166.551C51.9159 167.115 51.6364 167.632 51.2097 168.01C50.783 168.388 50.2365 168.602 49.6667 168.616H31.3796C30.8049 168.602 30.2544 168.382 29.8269 167.998C29.3994 167.614 29.1231 167.09 29.0476 166.52L25.8209 145.911H55.4967Z" fill="white"/>
<path d="M58.8187 143.609C58.7869 144.22 58.5255 144.797 58.0869 145.223C57.6483 145.65 57.0647 145.896 56.4528 145.911H24.9136C24.3078 145.896 23.7294 145.656 23.292 145.236C22.8546 144.817 22.5898 144.249 22.5498 143.645C22.4162 142.173 23.5123 140.889 24.9136 140.889H56.4528C57.8393 140.899 58.9311 142.139 58.8187 143.609Z" fill="white"/>
<path d="M40.538 118.08C40.5375 118.034 40.5296 117.988 40.5146 117.944L40.538 118.08Z" fill="white"/>
<path d="M24.9094 98.6611C32.2085 108.142 35.6429 128.129 36.9934 138.447C37.1078 139.342 37.2054 140.162 37.2923 140.896" fill="white"/>
<path d="M41.1804 108.734C40.2666 111.548 40.2221 114.388 40.3324 116.188C40.3615 116.769 40.4231 117.348 40.5168 117.922" fill="white"/>
<path d="M40.5231 118.065C40.5253 118.051 40.5253 118.037 40.5231 118.023C40.5231 118.008 40.5231 117.993 40.5231 117.966C40.5198 117.942 40.5198 117.917 40.5231 117.894C40.5291 117.944 40.539 117.995 40.5528 118.044C40.5496 118.05 40.5454 118.054 40.5402 118.058C40.5351 118.062 40.5293 118.064 40.5231 118.065Z" stroke="#CCDDE2" stroke-width="0.84164" stroke-miterlimit="10"/>
<path d="M40.6016 131.771C40.2745 132.826 39.8567 133.851 39.3529 134.834C39.2088 135.112 39.0667 135.383 38.9098 135.655C38.3743 136.66 37.7171 137.596 36.9531 138.44C36.8174 138.396 36.6817 138.339 36.5609 138.29C36.5333 138.29 36.51 138.269 36.4888 138.26C34.019 137.183 32.164 135.163 31.6128 132.892C31.121 130.893 31.564 128.731 30.6143 126.855C29.444 124.544 26.2895 123.098 25.8952 120.486C25.539 118.044 27.7374 115.803 27.3792 113.412C26.9721 110.704 23.6458 109.1 23.031 106.458C22.6388 104.817 22.9886 102.924 22.8466 101.232C22.6825 99.3412 22.3619 97.4671 21.8884 95.6291C22.1173 95.6142 22.3463 95.6078 22.5752 95.5994C27.2392 95.5209 31.8545 98.1434 33.3682 101.839C34.5893 104.824 33.9681 108.271 35.5878 111.069C35.6859 111.25 35.7957 111.424 35.9164 111.591C36.1289 111.886 36.3575 112.169 36.6012 112.439L37.1163 112.975C37.2011 113.06 37.2944 113.138 37.3792 113.231C37.464 113.325 37.5573 113.403 37.6442 113.496C38.4498 114.266 39.2724 115.044 39.8066 115.966C39.8559 116.046 39.8992 116.13 39.9359 116.216C39.9859 116.3 40.0285 116.388 40.0631 116.479C40.1092 116.572 40.1502 116.668 40.1861 116.765C40.2285 116.871 40.2645 116.977 40.2984 117.094C40.3493 117.266 40.4002 117.429 40.4341 117.601C40.4341 117.643 40.4341 117.679 40.449 117.715C40.4638 117.751 40.449 117.743 40.449 117.758C40.4521 117.772 40.4521 117.786 40.449 117.8C40.452 117.824 40.457 117.848 40.4638 117.872V117.887C40.4646 117.914 40.4689 117.94 40.4765 117.965V117.965C40.4765 117.993 40.4765 118.008 40.4765 118.023C40.4787 118.037 40.4787 118.051 40.4765 118.065V118.08L39.9274 126.047C40.2794 127.974 41.1592 129.895 40.6016 131.771Z" stroke="#CCDDE2" stroke-width="0.84164" stroke-miterlimit="10"/>
<path d="M44.7483 112.432C45.1066 110.705 45.1341 108.892 45.9482 107.243C47.4619 104.202 51.8842 101.996 56.5206 101.854H56.6054C57.0294 101.854 57.4534 101.854 57.8774 101.875C57.3978 103.455 57.0705 105.078 56.9001 106.721C56.7432 108.184 57.1121 109.82 56.7072 111.226C56.0564 113.509 52.5944 114.896 52.1746 117.23C51.8015 119.299 54.0932 121.235 53.7159 123.34C53.3088 125.595 50.025 126.844 48.8123 128.852C47.8329 130.474 48.2908 132.335 47.7841 134.056C47.1905 136.019 45.2401 137.768 42.6728 138.689C42.5074 138.746 42.359 138.803 42.1937 138.854C42.1068 138.875 42.0071 138.911 41.9223 138.932C41.8926 138.911 41.8651 138.881 41.829 138.854C41.0001 138.148 40.0716 136.956 39.302 135.674L39.3592 134.86C39.863 133.877 40.2808 132.852 40.6079 131.796C41.1655 129.92 40.2857 127.999 39.9719 126.072L40.521 118.105L40.6927 117.963C40.7554 117.917 40.8149 117.867 40.8708 117.813C41.7188 117.128 42.6346 116.471 43.2897 115.693C44.1038 114.737 44.4833 113.687 44.725 112.587" stroke="#CCDDE2" stroke-width="0.84164" stroke-miterlimit="10"/>
<path d="M44.7271 112.547C44.7271 112.511 44.742 112.477 44.7483 112.433" stroke="#CCDDE2" stroke-width="0.84164" stroke-miterlimit="10"/>
<path d="M44.7483 112.426C44.7483 112.471 44.7335 112.504 44.7271 112.541C44.4854 113.641 44.106 114.69 43.2919 115.646C42.6368 116.424 41.7231 117.082 40.873 117.766C40.8171 117.82 40.7576 117.871 40.6949 117.917L40.5232 118.065C40.5261 118.056 40.5261 118.047 40.5232 118.038C40.5166 118.013 40.5089 117.989 40.4998 117.966V117.966C40.4965 117.942 40.4965 117.917 40.4998 117.894V117.879C40.493 117.855 40.4881 117.831 40.485 117.807C40.4881 117.793 40.4881 117.778 40.485 117.764C40.4882 117.758 40.4899 117.75 40.4899 117.743C40.4899 117.736 40.4882 117.728 40.485 117.722C40.4797 117.683 40.4719 117.645 40.4617 117.607C40.4278 117.436 40.3769 117.272 40.326 117.101C40.2921 116.993 40.256 116.878 40.2136 116.772C40.1778 116.674 40.1368 116.579 40.0907 116.486C40.0606 116.393 40.0178 116.304 39.9635 116.223C39.9267 116.136 39.8835 116.053 39.8342 115.973C39.2999 115.051 38.4774 114.277 37.6718 113.503C37.5848 113.41 37.4937 113.316 37.4068 113.238C37.3198 113.16 37.2287 113.066 37.1439 112.981L36.6287 112.445C36.3851 112.175 36.1565 111.892 35.944 111.597C35.944 111.597 36.4188 103.344 40.6376 100.847C44.6211 98.4679 44.7483 111.033 44.7483 112.426Z" stroke="#CCDDE2" stroke-width="0.84164" stroke-miterlimit="10"/>
<path d="M44.7271 112.547C44.7271 112.511 44.742 112.477 44.7483 112.433" stroke="#CCDDE2" stroke-width="0.84164" stroke-miterlimit="10"/>
<path d="M40.5168 118.037V118.071C40.5189 118.057 40.5189 118.043 40.5168 118.029C40.5168 118.014 40.5168 117.999 40.5168 117.971C40.5134 117.948 40.5134 117.923 40.5168 117.899C40.5136 117.945 40.5136 117.991 40.5168 118.037V118.037Z" stroke="#CCDDE2" stroke-width="0.84164" stroke-miterlimit="10"/>
<path d="M54.795 104.495C47.1905 112.678 43.6162 129.935 42.2234 138.839C42.1089 139.592 42.0114 140.279 41.9181 140.898" stroke="#CCDDE2" stroke-width="0.84164" stroke-miterlimit="10"/>
<path d="M55.4967 145.911L51.9987 166.551C51.9159 167.115 51.6364 167.632 51.2097 168.01C50.783 168.388 50.2365 168.602 49.6667 168.616H31.3796C30.8049 168.602 30.2544 168.382 29.8269 167.998C29.3994 167.614 29.1231 167.09 29.0476 166.52L25.8209 145.911H55.4967Z" stroke="#CCDDE2" stroke-width="0.84164" stroke-miterlimit="10"/>
<path d="M58.8187 143.609C58.7869 144.22 58.5255 144.797 58.0869 145.223C57.6483 145.65 57.0647 145.896 56.4528 145.911H24.9136C24.3078 145.896 23.7294 145.656 23.292 145.236C22.8546 144.817 22.5898 144.249 22.5498 143.645V143.645C22.4162 142.173 23.5123 140.889 24.9136 140.889H56.4528C57.8393 140.899 58.9311 142.139 58.8187 143.609Z" stroke="#CCDDE2" stroke-width="0.84164" stroke-miterlimit="10"/>
<path d="M40.538 118.08C40.5375 118.034 40.5296 117.988 40.5146 117.944L40.538 118.08Z" stroke="#CCDDE2" stroke-width="0.84164" stroke-miterlimit="10"/>
<path d="M24.9094 98.6611C32.2085 108.142 35.6429 128.129 36.9934 138.447C37.1078 139.342 37.2054 140.162 37.2923 140.896" stroke="#CCDDE2" stroke-width="0.84164" stroke-miterlimit="10"/>
<path d="M41.1804 108.734C40.2666 111.548 40.2221 114.388 40.3324 116.188C40.3615 116.769 40.4231 117.348 40.5168 117.922" stroke="#CCDDE2" stroke-width="0.84164" stroke-miterlimit="10"/>
<path d="M159.892 90.7979C159.4 90.9675 158.917 91.1477 158.433 91.3321L158.039 91.4826C156.898 91.9066 155.779 92.3603 154.694 92.831C154.32 92.9878 153.956 93.1447 153.589 93.3164C153.292 93.4458 153.002 93.573 152.711 93.7086L152.574 93.7744C152.186 93.9524 151.8 94.1305 151.42 94.3171C151.041 94.5036 150.604 94.7093 150.203 94.9149C149.991 95.0082 149.809 95.1078 149.616 95.2096C149.243 95.394 148.876 95.587 148.51 95.7799C148.406 95.8371 148.298 95.8859 148.206 95.9431C147.833 96.1445 147.46 96.3438 147.093 96.5516C146.79 96.7148 146.5 96.878 146.201 97.0498C135.692 103.043 126.743 111.429 120.08 121.527C105.183 143.908 104.498 168.591 104.471 170.777L104.435 170.713C102.652 159.128 99.9234 149.089 96.4954 140.397L96.7646 139.513L96.2961 139.878C96.2961 139.878 96.2961 139.878 96.2961 139.863C96.9681 125.144 99.8492 112.837 103.981 102.564L104.369 102.651C104.293 102.492 104.216 102.329 104.14 102.172C111.361 84.4824 122.308 72.8818 132.024 65.5232C143.472 56.8567 153.239 54.0498 153.239 54.0498C158.454 60.4946 159.642 80.1894 159.892 90.7979Z" stroke="#CCDDE2" stroke-width="0.84164" stroke-miterlimit="10"/>
<path d="M160.585 166.944C159.064 166.639 157.575 166.274 156.116 165.85C150.133 164.101 143.184 161.116 140.801 154.841C140.205 153.22 140.017 151.476 140.254 149.765C140.491 148.054 141.146 146.428 142.16 145.029C143.235 143.538 144.746 142.418 146.485 141.822C150.269 140.599 154.456 142.505 157.263 145.324C160.07 148.144 161.876 151.773 164.075 155.089C162.086 150.637 160.068 146.056 159.794 141.188C159.582 137.393 160.613 133.278 163.229 130.427C165.637 127.802 171.268 125.748 174.583 127.671C176.771 128.943 177.645 131.648 178.02 134.15C179.05 140.995 177.727 147.951 176.411 154.748C177.295 151.114 178.245 147.446 180.047 144.169C181.849 140.891 184.611 137.995 188.149 136.781C190.628 135.933 193.57 136.024 195.646 137.629C197.581 139.113 198.446 141.642 198.713 144.071C199.158 148.146 198.2 152.278 196.551 156.028C190.396 170.026 173.328 169.488 160.585 166.944Z" fill="white"/>
<path d="M174.471 160.013C174.471 160.013 183.958 162.648 187.308 149.462L174.471 160.013Z" fill="white"/>
<path d="M170.25 137.506C167.613 143.484 170.25 161.422 170.25 161.422V137.506Z" fill="white"/>
<path d="M161.458 159.606C161.062 159.539 157.257 159.006 154.013 157.516C151.501 156.363 149.324 154.633 149.324 152.102" fill="white"/>
<path d="M154.774 152.104C154.774 152.104 151.066 156.426 154.013 157.518L154.774 152.104Z" fill="white"/>
<path d="M152.313 161.451C152.841 160.717 155.586 162.189 157.38 158.727L152.313 161.451Z" fill="white"/>
<path d="M169.078 145.42C168.141 144.716 165.686 145.42 165.325 139.791L169.078 145.42Z" fill="white"/>
<path d="M169.487 150.694C169.487 150.694 173.591 149.21 173.591 145.998L169.487 150.694Z" fill="white"/>
<path d="M178.308 160.09C178.308 160.09 180.45 154.563 181.329 152.102L178.308 160.09Z" fill="white"/>
<path d="M184.957 154.809C184.957 154.809 187.308 156.673 190.121 153.684L184.957 154.809Z" fill="white"/>
<path d="M184.957 152.103C184.957 152.103 183.439 151.444 184.143 147.651L184.957 152.103Z" fill="white"/>
<path d="M160.585 166.944C159.05 166.732 157.573 166.276 156.116 165.85C150.133 164.101 143.184 161.116 140.801 154.841C140.205 153.22 140.017 151.476 140.254 149.765C140.491 148.054 141.146 146.428 142.16 145.029C143.235 143.538 144.746 142.418 146.485 141.822C150.269 140.599 154.456 142.505 157.263 145.324C160.07 148.144 161.876 151.773 164.075 155.089C162.086 150.637 160.068 146.056 159.794 141.188C159.582 137.393 160.613 133.278 163.229 130.427C165.637 127.802 171.268 125.748 174.583 127.671C176.771 128.943 177.645 131.648 178.02 134.15C179.05 140.995 177.727 147.951 176.411 154.748C177.295 151.114 178.245 147.446 180.047 144.169C181.849 140.891 184.611 137.995 188.149 136.781C190.628 135.933 193.57 136.024 195.646 137.629C197.581 139.113 198.446 141.642 198.713 144.071C199.158 148.146 198.257 152.305 196.551 156.028C190.297 169.658 173.097 168.627 160.585 166.944Z" stroke="#CCDDE2" stroke-width="0.84164" stroke-miterlimit="10"/>
<path d="M174.471 160.013C174.471 160.013 183.958 162.648 187.308 149.462" stroke="#CCDDE2" stroke-width="0.84164" stroke-miterlimit="10"/>
<path d="M170.25 137.506C167.613 143.484 170.25 161.422 170.25 161.422" stroke="#CCDDE2" stroke-width="0.84164" stroke-miterlimit="10"/>
<path d="M161.458 159.606C161.062 159.539 157.257 159.006 154.013 157.516C151.501 156.363 149.324 154.633 149.324 152.102" stroke="#CCDDE2" stroke-width="0.84164" stroke-miterlimit="10"/>
<path d="M154.774 152.104C154.774 152.104 151.066 156.426 154.013 157.518" stroke="#CCDDE2" stroke-width="0.84164" stroke-miterlimit="10"/>
<path d="M152.313 161.451C152.841 160.717 155.586 162.189 157.38 158.727" stroke="#CCDDE2" stroke-width="0.84164" stroke-miterlimit="10"/>
<path d="M169.078 145.42C168.141 144.716 165.686 145.42 165.325 139.791" stroke="#CCDDE2" stroke-width="0.84164" stroke-miterlimit="10"/>
<path d="M169.487 150.694C169.487 150.694 173.591 149.21 173.591 145.998" stroke="#CCDDE2" stroke-width="0.84164" stroke-miterlimit="10"/>
<path d="M178.308 160.09C178.308 160.09 180.45 154.563 181.329 152.102" stroke="#CCDDE2" stroke-width="0.84164" stroke-miterlimit="10"/>
<path d="M184.957 154.809C184.957 154.809 187.308 156.673 190.121 153.684" stroke="#CCDDE2" stroke-width="0.84164" stroke-miterlimit="10"/>
<path d="M184.957 152.103C184.957 152.103 183.439 151.444 184.143 147.651" stroke="#CCDDE2" stroke-width="0.84164" stroke-miterlimit="10"/>
<path d="M185.603 119.123C187.499 120.756 189.191 122.612 190.643 124.65C193.311 128.299 194.821 132.665 194.976 137.183" stroke="#CCDDE2" stroke-width="0.84164" stroke-miterlimit="10"/>
<path d="M119.487 44.3821C123.303 42.084 127.282 40.0425 131.514 38.6009C142.065 34.9969 153.829 35.7961 162.188 43.7058C169.434 50.5556 172.86 60.7316 173.56 70.4836C173.56 70.6256 173.583 70.7761 173.589 70.9266C173.909 75.951 173.646 81.4991 173.61 87.0514" stroke="#CCDDE2" stroke-width="0.84164" stroke-miterlimit="10"/>
<path d="M36.3086 86.7443C37.2647 80.6408 36.0966 74.8999 35.4606 68.6183C33.824 52.2519 39.0286 32.6695 57.8817 30.2209C68.1256 28.8853 76.4402 32.7119 83.3662 40.0513C84.9223 41.6985 86.4784 43.6341 88.1256 45.5039" stroke="#CCDDE2" stroke-width="0.84164" stroke-miterlimit="10"/>
<path d="M28.9564 140.795C28.9564 140.795 14.6782 134.507 16.1071 122.693C16.5057 119.358 18.0766 116.375 20.0609 113.634" stroke="#CCDDE2" stroke-width="0.84164" stroke-miterlimit="10"/>
<path d="M157.916 148.673C157.373 148.282 156.808 147.91 156.22 147.558C150.356 144.088 142.366 142.741 135.667 142.339C135.257 142.309 134.855 142.288 134.456 142.271C133.928 142.248 133.411 142.109 132.942 141.866C132.456 141.621 132.034 141.266 131.709 140.829C131.38 139.538 130.985 138.264 130.526 137.013L129.584 132.773C129.233 131.547 128.958 130.3 128.76 129.04C127.784 122.665 127.064 114.743 126.809 111.777C126.84 111.79 126.872 111.799 126.905 111.804L129.815 112.737C129.826 112.736 129.837 112.736 129.847 112.737L130.88 113.04C134.882 114.177 139.082 115.029 143.252 115.12C147.182 115.203 151.495 114.558 154.853 112.383C155.135 112.205 155.409 112.014 155.675 111.811C158.266 109.86 160.066 106.867 161.085 103.829C162.962 98.2097 163.367 92.2036 162.262 86.3834C161.949 84.7808 161.508 83.2056 160.945 81.6727C159.461 77.5917 157.318 73.7673 155.478 69.8007C155.054 68.8764 154.448 67.9076 154.373 66.8815C154.284 65.6583 154.912 64.4817 155.109 63.2923C155.339 61.8632 155.445 60.417 155.427 58.9697C155.424 57.2528 155.096 55.5521 154.458 53.958C153.909 52.6181 152.934 50.3709 151.202 50.4536C150.647 48.6771 149.718 46.6207 148.083 46.3896C147.659 46.3246 147.226 46.4297 146.879 46.6822C146.759 46.5103 146.63 46.3454 146.491 46.1882C145.809 45.4207 144.518 44.7296 143.481 45.1282C141.425 45.9423 142.366 48.7725 143.386 50.92C142.861 50.807 142.322 50.7713 141.787 50.814C140.589 50.92 139.203 51.4034 138.738 52.5567C138.486 53.1927 138.575 54.3396 139.22 54.7C140.038 55.1473 141.043 54.8505 141.861 55.2703C142.775 55.7409 143.133 57.0023 143 57.9563C142.974 58.3303 142.825 58.6852 142.576 58.9654C141.13 60.4113 140.138 56.4214 139.589 55.7642C138.842 54.8675 137.748 55.0307 136.97 55.7875C135.433 57.2715 136.101 60.2607 136.746 62.0543C137.445 64.0174 138.355 66.0823 139.807 67.6108C142.222 70.1442 142.487 74.1828 143.125 77.4497C143.388 78.8001 143.64 80.1633 143.843 81.5243C144.246 84.1659 144.479 86.8243 144.267 89.4913C144.214 90.2234 144.009 90.9365 143.667 91.5858C143.325 92.2351 142.852 92.8066 142.278 93.2645C141.704 93.7224 141.042 94.0567 140.333 94.2465C139.624 94.4362 138.883 94.4774 138.158 94.3673C136.43 94.1044 134.407 93.7907 132.253 93.4536C132.253 93.4536 132.27 93.4366 132.281 93.4324C129.345 92.4339 126.748 92.3109 124.163 92.1752C116.873 91.0474 110.326 89.9874 110.326 89.9874C110.177 89.9598 110.042 89.8813 109.945 89.7653C109.847 89.6492 109.793 89.5029 109.792 89.3514L109.703 81.2572C110.201 81.8678 111.282 81.9526 111.944 81.5985C112.207 81.4645 112.423 81.2541 112.564 80.9949C112.705 80.7357 112.765 80.4399 112.735 80.1463C113.163 80.1428 113.585 80.0344 113.962 79.8305C114.074 79.768 114.181 79.6971 114.282 79.6185C114.491 79.4309 114.66 79.2025 114.778 78.9473C114.896 78.692 114.96 78.4154 114.967 78.1345C114.976 77.9793 114.968 77.8236 114.944 77.6702C114.944 77.6129 114.927 77.5578 114.916 77.4963C114.893 77.3776 114.865 77.261 114.831 77.1359C114.814 77.0639 114.793 76.9918 114.77 76.9239C114.715 76.7119 114.653 76.4999 114.607 76.2879C114.631 76.2911 114.656 76.2911 114.681 76.2879C114.89 76.2761 115.098 76.2463 115.302 76.1989C115.496 76.1526 115.685 76.0887 115.868 76.0081C115.97 75.9628 116.07 75.9118 116.167 75.8555C116.184 75.8496 116.199 75.8402 116.211 75.8279C116.375 75.7273 116.531 75.6131 116.676 75.4866C116.725 75.4462 116.771 75.4031 116.816 75.3573C116.898 75.2796 116.977 75.1975 117.051 75.1113C117.146 75.0004 117.234 74.8843 117.316 74.7637C117.356 74.7124 117.391 74.6578 117.422 74.6004C117.716 74.1284 117.931 73.6113 118.058 73.0698C118.068 73.0189 118.081 72.968 118.092 72.9193C118.516 70.901 117.88 68.5966 116.107 67.844C115.753 67.6935 114.498 67.5472 114.498 67.0151C114.499 66.977 114.505 66.9392 114.515 66.9027C114.513 66.8951 114.513 66.887 114.515 66.8794C114.549 66.8003 114.597 66.7284 114.657 66.6674C114.685 66.6335 114.723 66.5995 114.757 66.5656C114.831 66.4999 114.914 66.4384 114.992 66.3748C115.073 66.3217 115.15 66.2636 115.223 66.201C115.255 66.175 115.284 66.1474 115.312 66.1183C115.368 66.0568 115.425 65.9953 115.476 65.9339C115.526 65.8732 115.573 65.8095 115.616 65.7431C115.66 65.6752 115.705 65.6074 115.745 65.5311C115.789 65.4642 115.827 65.3932 115.857 65.3191C115.921 65.1933 115.974 65.062 116.014 64.9269C116.086 64.7047 116.131 64.4748 116.148 64.2421C116.148 64.1594 116.148 64.0746 116.148 63.9898C116.148 62.1285 114.63 60.2014 112.711 59.9979C112.401 59.9639 112.087 60.0009 111.793 60.106C111.649 60.156 111.507 60.214 111.369 60.2798L111.157 60.3795C111.013 60.4473 110.867 60.5194 110.716 60.5915C110.589 60.6519 110.452 60.6865 110.311 60.6932C110.279 60.6921 110.247 60.6879 110.216 60.6805L110.155 60.6635C110.11 60.6537 110.069 60.6309 110.038 60.5978C110.001 60.5707 109.97 60.536 109.947 60.4961C109.928 60.4572 109.914 60.4158 109.906 60.3731C109.905 60.3705 109.904 60.3676 109.904 60.3646C109.904 60.3616 109.905 60.3587 109.906 60.3561C109.896 60.3067 109.891 60.2562 109.892 60.2056C109.891 60.1008 109.906 59.9966 109.936 59.8961C109.996 59.6771 110.026 59.4511 110.025 59.2241C110.025 59.1418 110.019 59.0597 110.008 58.9781C109.998 58.8649 109.981 58.7524 109.957 58.6411C109.75 57.8209 109.257 57.1016 108.567 56.6122C106.623 55.2385 102.978 55.2321 101.973 57.7782C101.952 57.8164 101.942 57.8567 101.925 57.8948C101.795 57.7443 101.666 57.5874 101.537 57.4305C101.447 57.373 101.354 57.322 101.257 57.2779C99.9107 56.6907 97.9836 56.9429 97.002 58.092C96.188 59.046 95.9208 60.5194 96.6438 61.6006C96.2384 61.0769 95.6886 60.6834 95.0622 60.4685C95.137 60.6782 95.2367 60.8782 95.359 61.0642C95.3016 60.9861 95.24 60.9111 95.1746 60.8395C95.1237 60.7823 95.0728 60.7314 95.022 60.6826C94.9711 60.6339 94.899 60.5639 94.8375 60.513C94.776 60.4621 94.7082 60.407 94.6425 60.3561C93.3811 59.4318 91.524 59.3364 90.3474 60.4918C89.4273 61.3949 89.2365 62.6436 89.563 63.8541C89.8894 65.0647 90.6717 65.9063 91.259 66.9493C89.2683 67.4497 87.6762 69.6566 88.3037 71.7257C88.4347 72.1537 88.6643 72.545 88.9739 72.8683C89.2836 73.1915 89.6646 73.4377 90.0866 73.5871C90.2377 73.625 90.3915 73.6512 90.5466 73.6655C90.5985 73.6708 90.6487 73.6868 90.6941 73.7124C90.7395 73.7379 90.7791 73.7726 90.8105 73.8141C90.842 73.8557 90.8645 73.9033 90.8767 73.954C90.8889 74.0046 90.8906 74.0573 90.8816 74.1086C90.85 74.2477 90.8336 74.3899 90.8328 74.5326C90.8341 74.8741 90.9233 75.2096 91.0919 75.5067C91.2605 75.8037 91.5027 76.0523 91.7953 76.2286C91.8388 76.2528 91.8768 76.2857 91.9071 76.3252C91.9373 76.3647 91.9592 76.41 91.9713 76.4582C91.9834 76.5065 91.9855 76.5567 91.9775 76.6058C91.9695 76.6549 91.9515 76.7019 91.9246 76.7437C91.6299 77.1629 91.4567 77.6554 91.4242 78.1668C91.3917 78.6782 91.501 79.1886 91.7402 79.6418C92.3953 80.9541 94.0001 82.0925 95.5138 81.6431C96.0008 81.4954 96.4222 81.1848 96.7074 80.7633C96.7379 80.7314 96.7642 80.6957 96.7858 80.6573C96.7913 80.6446 96.7992 80.6331 96.8091 80.6233C97.0271 80.2979 97.1718 79.929 97.2331 79.5421C97.6061 80.1334 98.0235 80.6954 98.4818 81.2233L98.7574 81.5307L97.92 86.695L97.797 87.6257C97.7516 87.9477 97.5915 88.2425 97.3461 88.4559C97.1008 88.6694 96.7866 88.7871 96.4614 88.7875C96.277 88.7875 96.0862 88.7875 95.9018 88.7875C95.5265 88.7875 95.1555 88.7981 94.7866 88.8087C93.6652 88.8362 92.5479 88.8871 91.4328 88.9549C90.5848 89.0101 89.7559 89.0715 88.9227 89.1457C88.4987 89.1797 88.0917 89.2178 87.6719 89.2623C87.2522 89.3069 86.8366 89.3471 86.4211 89.3917C85.6092 89.4828 84.7908 89.5761 83.9768 89.6842C82.9952 89.8135 82.02 89.9471 81.0384 90.087C79.5036 90.3117 77.9729 90.5577 76.4359 90.8227C74.9392 91.0813 73.4488 91.3505 71.9521 91.624C69.8491 92.012 67.7248 92.3363 65.5921 92.684C65.0321 92.7745 64.4592 92.7444 63.9118 92.5958C63.3643 92.4472 62.8549 92.1835 62.4174 91.8223C61.98 91.4611 61.6247 91.0107 61.3752 90.5013C61.1256 89.9919 60.9877 89.435 60.9705 88.868C60.731 81.872 64.6932 69.1117 64.6932 69.1117C64.7844 68.1196 65.9652 67.4157 66.6564 66.8518C68.6343 65.2894 69.8024 62.491 70.4851 60.1357C70.9684 58.4545 71.4264 56.0547 70.0038 54.6767C69.2237 53.9198 68.1298 53.7566 67.3856 54.6533C66.8366 55.3148 65.8444 59.3004 64.3964 57.8545C64.1475 57.5743 63.9984 57.2194 63.9724 56.8454C63.8474 55.8936 64.1844 54.6321 65.1088 54.1594C65.9271 53.7354 66.932 54.0364 67.7503 53.5891C68.3863 53.2287 68.4838 52.0754 68.2315 51.4458C67.7672 50.2925 66.3829 49.8092 65.183 49.7032C64.6478 49.6605 64.1093 49.6962 63.5845 49.8092C64.6042 47.6616 65.5476 44.8314 63.4891 44.0194C62.4524 43.6103 61.1571 44.2993 60.4787 45.0667C60.3408 45.2239 60.212 45.3888 60.0928 45.5607C59.7446 45.309 59.3114 45.2039 58.8866 45.2681C57.2436 45.4992 56.3256 47.5556 55.7702 49.3343C54.0551 49.2495 53.0841 51.4543 52.5287 52.792C51.8992 54.3328 51.5648 55.9782 51.5429 57.6425C51.4899 59.413 51.6149 61.1843 51.916 62.9298C52.0559 63.6824 52.3082 64.399 52.4884 65.1346C52.6856 65.936 52.4714 66.731 52.181 67.4836C51.0426 70.3647 49.4377 73.0613 48.2336 75.9212C46.9279 78.9478 45.8811 82.0797 45.1044 85.2831C43.6077 91.6071 43.3003 98.3126 45.0493 104.62C48.3565 116.538 65.113 112.625 74.7124 109.284C78.7255 107.889 81.4964 106.587 81.4964 106.587C81.4964 106.587 81.5176 107.511 81.5176 109.076V109.288C81.507 111.408 81.3225 128.321 78.4732 140.74L78.3778 140.903C78.4012 140.886 78.4457 140.886 78.4732 141.037C78.3168 141.376 78.0661 141.663 77.7512 141.864C77.4362 142.065 77.0702 142.171 76.6967 142.169C69.8745 142.142 41.1464 143.11 46.5927 161.673C47.6124 165.16 50.2751 167.397 54.0127 168.72C56.9807 169.78 60.6292 170.24 64.6699 170.274H64.6975C56.7984 171.771 54.9603 183.522 63.7732 185.298C67.1652 185.981 69.8512 183.785 72.8998 182.848C74.6421 182.333 76.4561 182.102 78.2718 182.165C79.4568 182.193 80.6383 182.304 81.808 182.496C94.615 184.593 107.611 185.299 120.57 184.603C129.332 184.122 138.264 183.021 146.578 180.09C152.845 177.876 159.722 174.003 162.809 168.006C163.903 165.895 164.468 163.55 164.456 161.173C164.448 155.523 161.836 151.503 157.916 148.673Z" fill="white"/>
<path d="M25.7171 168.403L25.397 168.1" stroke="#CCDDE2" stroke-width="0.84164" stroke-miterlimit="10"/>
<path d="M130.532 136.704L129.589 132.454C129.238 131.227 128.963 129.981 128.766 128.72C127.791 122.346 127.07 114.425 126.814 111.459L129.854 112.428L128.794 110.069C128.794 110.069 125.302 98.3174 132.287 93.1425C127.235 91.4232 123.188 92.3072 118.461 91.2197C116.64 90.7957 114.717 90.4247 112.593 90.077L111.056 89.8078C110.994 93.9842 108.088 94.9318 105.696 95.3855C99.809 96.5133 95.7322 92.2182 95.9018 88.4785C89.3658 88.5527 82.9062 89.4156 76.4381 90.5137C77.2734 92.9644 79.033 100.308 74.0828 108.992L74.7188 108.97C78.7319 107.573 81.5028 106.274 81.5028 106.274C81.5028 106.274 81.5261 107.198 81.5261 108.763V108.975C81.5155 111.082 81.331 128.008 78.4818 140.425C78.2698 140.83 78.4351 140.332 78.4818 140.781C78.3088 141.126 78.1901 141.496 78.1298 141.877L78.2676 141.328C77.5002 142.428 79.4209 143.762 82.196 144.434C89.4506 146.206 129.44 149.31 131.698 141.877C131.831 141.434 131.835 140.962 131.711 140.516C131.383 139.226 130.989 137.954 130.532 136.704Z" fill="#353642"/>
<path d="M78.2698 181.845C76.4561 181.784 74.6444 182.016 72.9041 182.53C69.8534 183.465 67.1631 185.663 63.7753 184.979C54.9625 183.202 56.8027 171.451 64.7018 169.954C65.4586 169.937 66.2155 169.933 66.9659 169.933H67.0168C70.6547 169.933 74.1994 170.028 77.108 169.023C76.8345 169.276 69.7474 175.562 78.2698 181.845Z" fill="#31AAB7"/>
<path d="M111.049 89.7991V89.8097C110.988 93.9861 108.081 94.9337 105.69 95.3874C99.8026 96.5153 95.7258 92.2201 95.8954 88.4805" stroke="black" stroke-width="0.84164" stroke-miterlimit="10"/>
<path d="M64.7081 169.954C56.809 171.451 54.9688 183.202 63.7817 184.978C67.1737 185.663 69.8597 183.465 72.9104 182.53C74.6521 182.015 76.4652 181.784 78.2804 181.845C79.4627 181.878 80.6414 181.992 81.808 182.186C94.6146 184.288 107.611 184.998 120.57 184.306C129.332 183.823 138.262 182.725 146.576 179.793C152.845 177.578 159.72 173.704 162.807 167.709C163.901 165.598 164.467 163.252 164.454 160.874C164.454 155.218 161.836 151.198 157.925 148.366C157.38 147.974 156.814 147.605 156.229 147.251C150.365 143.78 142.376 142.434 135.677 142.031C135.268 142.004 134.863 141.981 134.467 141.964C133.939 141.942 133.422 141.804 132.953 141.561C132.466 141.317 132.044 140.962 131.719 140.524C131.404 140.11 131.181 139.632 131.068 139.123L130.536 136.706L129.593 132.455L128.766 128.72C127.791 122.345 127.07 114.425 126.814 111.459" stroke="black" stroke-width="0.84164" stroke-miterlimit="10"/>
<path d="M138.448 164.253C135.834 170.23 129.37 168.184 122.268 163.882C117.861 161.213 114.1 160.834 111.88 160.914C115.009 160.634 117.744 159.67 118.514 156.132C119.135 153.257 117.515 150.62 114.713 149.772C121.45 149.475 128.363 149.984 133.846 154.224C133.85 154.224 141.066 158.271 138.448 164.253Z" fill="#31AAB7"/>
<path d="M114.668 75.9537C114.644 75.9568 114.62 75.9568 114.596 75.9537C114.662 76.2844 114.787 76.6384 114.869 76.9904C114.936 77.2564 114.964 77.5304 114.954 77.8044C114.865 79.087 113.956 79.7824 112.722 79.8163C112.753 80.1106 112.695 80.4076 112.554 80.6679C112.413 80.9283 112.197 81.1399 111.933 81.2749C111.272 81.6226 110.188 81.5441 109.69 80.9314C109.101 80.2212 109.393 79.3393 109.752 78.5613C109.881 78.2878 110.01 78.0292 110.116 77.7938C110.246 77.5013 110.358 77.2108 110.458 76.914C110.811 75.8157 111.084 74.6935 111.276 73.556C111.511 72.4069 111.666 71.2431 111.74 70.0728C111.662 69.7887 111.713 69.3774 111.6 69.0806C111.437 68.6225 111.142 68.2228 110.752 67.9316C109.947 67.338 108.874 67.3762 108.018 66.8504C107.242 66.3675 106.63 65.6619 106.262 64.8258C106.19 64.652 106.122 64.4272 106.021 64.2322C105.975 64.1263 105.906 64.032 105.819 63.9566C105.433 63.6322 105.209 64.2046 104.971 64.4272C104.728 64.652 104.439 64.8223 104.125 64.9269C103.811 65.0314 103.477 65.0678 103.148 65.0336C102.899 65.0007 102.656 64.9292 102.429 64.8216C102.262 64.7309 102.107 64.6214 101.965 64.4951C101.797 64.3313 101.601 64.1985 101.386 64.1029C100.983 63.9524 100.962 64.618 100.905 64.8491C100.867 65.0488 100.784 65.2373 100.662 65.4003C100.541 65.5633 100.384 65.6967 100.203 65.7904C99.9854 65.8975 99.7464 65.9547 99.5037 65.9579C99.2208 65.9693 98.9382 65.9313 98.6684 65.8455C98.4079 65.7682 98.16 65.6532 97.9328 65.5042C97.892 65.4767 97.8443 65.4613 97.7952 65.4595C97.7461 65.4578 97.6975 65.4699 97.6548 65.4944C97.6122 65.5189 97.5774 65.5548 97.5542 65.5982C97.531 65.6415 97.5204 65.6905 97.5236 65.7395C97.602 67.9316 95.552 68.6948 94.7104 68.9195C94.4275 72.5374 95.3117 76.1506 97.2332 79.2291C97.1622 79.6745 96.9807 80.0951 96.7053 80.4523C95.3209 80.8 93.7224 80.4226 93.1225 79.2291C92.4865 77.9571 92.5734 76.1954 93.5613 75.288C92.8766 75.182 92.6858 74.1708 93.078 73.5772C93.1119 73.5199 93.1267 73.486 93.1055 73.4309C93.0207 73.1998 92.0137 73.0069 91.7381 72.9221C91.3449 72.7817 90.9898 72.5515 90.7013 72.2497C90.4127 71.9478 90.1986 71.5828 90.076 71.1837C89.493 69.2608 90.9728 67.2087 92.8214 66.7444C92.2724 65.7734 91.5494 64.989 91.242 63.8676C90.9346 62.7461 91.1085 61.5801 91.965 60.7321C92.3134 60.4007 92.739 60.1617 93.2033 60.0365C93.6675 59.9114 94.1557 59.9042 94.6234 60.0155C94.8962 60.2137 95.1377 60.4517 95.34 60.7215C95.2156 60.5374 95.1158 60.3379 95.0432 60.1279C95.6706 60.3409 96.2209 60.7348 96.6247 61.26C95.9018 60.1788 96.171 58.7032 96.983 57.7492C97.9646 56.6002 99.8938 56.3479 101.238 56.9373C101.335 56.9811 101.429 57.0314 101.52 57.0878C101.647 57.2468 101.776 57.4037 101.906 57.5542C101.92 57.5135 101.937 57.4739 101.957 57.4355C102.229 57.716 102.488 58.0103 102.73 58.3174C103.604 55.8328 107.074 55.8264 108.908 57.1217C109.34 57.4299 109.694 57.835 109.94 58.3047C110.033 58.7174 110.025 59.1465 109.917 59.5555C109.805 59.9477 109.894 60.2445 110.146 60.3293C110.336 60.3754 110.536 60.3498 110.708 60.2572C111.38 59.954 111.935 59.583 112.716 59.6678C115.26 59.9371 117.115 63.2443 115.607 65.4024C115.518 65.5365 115.416 65.6621 115.304 65.7777C115.092 65.9897 114.615 66.2377 114.509 66.5409C114.506 66.5484 114.506 66.5567 114.509 66.5642C114.318 67.2002 115.726 67.3422 116.101 67.5055C119.425 68.9068 118.724 75.7417 114.668 75.9537Z" fill="#31AAB7"/>
<path d="M56.8768 58.7155C56.086 57.0322 56.6648 54.6727 57.5658 52.8898C58.2548 51.5054 57.7057 49.2858 55.9461 49.0377C54.1187 48.7918 53.0969 51.0962 52.5266 52.487C51.8959 54.0283 51.5608 55.6745 51.5386 57.3396C51.4919 59.1106 51.6218 60.8818 51.9266 62.6269C52.0665 63.3774 52.3188 64.0961 52.4969 64.8296C52.6941 65.631 52.4799 66.4281 52.1895 67.1786C51.051 70.0596 49.4483 72.7563 48.242 75.6162C46.9383 78.6433 45.8923 81.7751 45.115 84.9781C43.6183 91.302 43.3088 98.0076 45.0578 104.315C48.365 116.233 65.1236 112.32 74.7208 108.979C78.734 107.582 81.5048 106.282 81.5048 106.282C81.5048 106.282 81.5282 107.206 81.5282 108.771C81.5282 108.843 81.5282 108.917 81.5282 108.983C81.5409 115.273 81.2886 131.077 78.5792 140.467C78.462 140.872 78.2157 141.228 77.8778 141.48C77.5399 141.732 77.1289 141.867 76.7073 141.864C69.8851 141.836 41.1591 142.805 46.6033 161.357C48.4434 167.624 55.5688 169.878 64.6721 169.956H64.7123C65.4522 169.956 66.2091 169.956 66.9765 169.935H67.0274C70.409 169.818 73.7814 169.513 77.1292 169.021C88.9884 167.351 101.607 163.785 109.758 161.215C110.228 161.092 110.709 161.011 111.193 160.976C111.395 160.953 111.617 160.936 111.867 160.925H111.889C114.104 160.836 117.865 161.215 122.277 163.893C129.379 168.194 135.845 170.24 138.457 164.264C141.068 158.288 133.85 154.224 133.85 154.224C128.367 149.984 121.454 149.481 114.717 149.772C112.637 149.863 110.568 150.037 108.569 150.196C100.568 150.833 92.5656 151.469 84.5619 152.104L74.0764 152.952" stroke="black" stroke-width="0.84164" stroke-miterlimit="10"/>
<path d="M59.7282 57.5925C59.7282 57.5925 58.5855 55.2838 59.9996 51.6735C60.5826 50.1895 61.2546 48.3938 60.979 46.7678C60.8928 46.1658 60.5729 45.622 60.0886 45.2541C59.7405 45.0021 59.307 44.8977 58.8823 44.9637C57.2414 45.1926 56.3214 47.2511 55.7659 49.0277" stroke="black" stroke-width="0.84164" stroke-miterlimit="10"/>
<path d="M62.1153 56.2522C62.1153 56.2522 61.0299 54.4142 62.5096 51.5882C62.7577 51.1176 63.1774 50.365 63.5696 49.5085C64.5915 47.361 65.5328 44.5308 63.4742 43.7167C62.4376 43.3075 61.1422 43.9965 60.4638 44.7661C60.326 44.9225 60.1971 45.0868 60.078 45.2579" stroke="black" stroke-width="0.84164" stroke-miterlimit="10"/>
<path d="M63.576 49.4962C64.1007 49.3821 64.6394 49.3464 65.1745 49.3902C66.3745 49.4962 67.7588 49.9774 68.2252 51.1328C68.4775 51.7688 68.3863 52.9157 67.7418 53.274C66.9235 53.7234 65.9208 53.4266 65.1025 53.8464C64.1887 54.317 63.8304 55.5784 63.964 56.5324C63.9899 56.9064 64.139 57.2613 64.388 57.5416C65.8338 58.9874 66.826 54.9976 67.3751 54.3404C68.1213 53.4436 69.2131 53.6047 69.9933 54.3616C71.4179 55.7396 70.9579 58.1373 70.4724 59.8206C69.7919 62.1759 68.6238 64.9743 66.6564 66.5346C65.9526 67.09 64.7823 67.8066 64.6933 68.7988C64.6933 68.7988 60.731 81.5506 60.9685 88.5529C60.9857 89.1197 61.1236 89.6763 61.373 90.1856C61.6223 90.6949 61.9775 91.1451 62.4147 91.5063C62.8518 91.8674 63.361 92.1312 63.9082 92.2799C64.4554 92.4287 65.0281 92.459 65.5879 92.3689C67.7079 92.0234 69.8406 91.699 71.9479 91.3089C73.4446 91.0354 74.935 90.7662 76.4317 90.5076C83.0864 89.3755 89.7305 88.4957 96.4572 88.466C96.7824 88.4666 97.0967 88.3495 97.3422 88.1363C97.5877 87.9232 97.7478 87.6283 97.7928 87.3064L97.92 86.3842L98.7574 81.2092" stroke="black" stroke-width="0.84164" stroke-miterlimit="10"/>
<path d="M150.091 59.8372C150.882 58.1539 150.303 55.7944 149.402 54.0115C148.707 52.6271 149.262 50.4075 151.022 50.1594C151.083 50.1594 151.145 50.1488 151.202 50.1488C152.934 50.064 153.909 52.3133 154.458 53.6532C155.097 55.2471 155.426 56.9479 155.429 58.6649C155.446 60.1122 155.338 61.5584 155.109 62.9875C154.914 64.1747 154.284 65.3535 154.376 66.5746C154.448 67.6007 155.054 68.5716 155.48 69.4959C157.318 73.454 159.47 77.2763 160.945 81.3679C161.508 82.9002 161.948 84.4746 162.262 86.0765C163.37 91.895 162.968 97.9005 161.096 103.52C160.074 106.56 158.276 109.553 155.686 111.504C155.417 111.706 155.142 111.897 154.861 112.076C151.503 114.251 147.191 114.896 143.263 114.811C139.09 114.722 134.893 113.87 130.888 112.731C130.189 112.531 129.492 112.319 128.798 112.095C128.069 111.864 127.346 111.629 126.623 111.383C125.866 111.12 125.109 110.855 124.359 110.575" stroke="black" stroke-width="0.84164" stroke-miterlimit="10"/>
<path d="M151.202 50.1488C150.647 48.3722 149.718 46.3137 148.086 46.0848C147.661 46.0188 147.227 46.1232 146.879 46.3752C146.395 46.7431 146.075 47.2869 145.989 47.8889C145.713 49.5149 146.385 51.3084 146.968 52.7946C148.382 56.3986 147.238 58.7157 147.238 58.7157" stroke="black" stroke-width="0.84164" stroke-miterlimit="10"/>
<path d="M146.879 46.3751C146.761 46.2013 146.627 46.0402 146.493 45.8812C145.809 45.1137 144.52 44.4247 143.481 44.8339C141.425 45.6458 142.366 48.4782 143.388 50.6257C143.79 51.4737 144.21 52.2348 144.448 52.7054C145.932 55.5356 144.84 57.3694 144.84 57.3694" stroke="black" stroke-width="0.84164" stroke-miterlimit="10"/>
<path d="M143.388 50.626C142.863 50.5123 142.324 50.4759 141.789 50.5179C140.589 50.626 139.205 51.1072 138.738 52.2626C138.486 52.8986 138.577 54.0455 139.222 54.4038C140.04 54.8533 141.043 54.5544 141.861 54.9762C142.775 55.4469 143.133 56.7083 143 57.6623C142.974 58.0363 142.825 58.3911 142.576 58.6714C141.13 60.1172 140.138 56.1274 139.589 55.4702C138.842 54.5713 137.751 54.7345 136.97 55.4914C135.433 56.9754 136.101 59.9646 136.746 61.7602C137.447 63.7212 138.355 65.7882 139.807 67.3146C142.224 69.8586 142.487 73.8866 143.127 77.1535C143.39 78.5061 143.642 79.8671 143.843 81.2303C144.246 83.8697 144.479 86.5303 144.267 89.1973C144.214 89.9294 144.009 90.6426 143.666 91.2919C143.324 91.9412 142.851 92.5127 142.277 92.9706C141.703 93.4284 141.041 93.7627 140.331 93.9525C139.622 94.1422 138.881 94.1833 138.155 94.0733C128.675 92.6211 110.326 89.6721 110.326 89.6721C110.176 89.6463 110.04 89.5683 109.941 89.452C109.843 89.3358 109.789 89.1885 109.788 89.0361L109.699 80.9399" stroke="black" stroke-width="0.84164" stroke-miterlimit="10"/>
<path d="M94.7019 68.9131C94.3139 73.0831 95.7619 77.798 98.4755 80.9059C103.538 86.6956 107.803 80.9059 107.803 80.9059" stroke="black" stroke-width="0.84164" stroke-miterlimit="10"/>
<path d="M111.795 70.2055C111.647 69.9299 111.734 69.4317 111.607 69.0819C111.442 68.6237 111.148 68.2235 110.759 67.9307C109.949 67.3392 108.878 67.3753 108.024 66.8538C107.248 66.3683 106.635 65.6617 106.264 64.8249C106.146 64.5578 106.052 64.1508 105.826 63.9578C105.438 63.6335 105.213 64.2038 104.978 64.4285C104.642 64.7414 104.22 64.9463 103.766 65.0166C103.313 65.0869 102.848 65.0194 102.434 64.8228C102.052 64.6341 101.787 64.2546 101.388 64.1041C100.99 63.9536 100.964 64.6172 100.905 64.8504C100.867 65.0499 100.785 65.2383 100.664 65.4016C100.543 65.5649 100.387 65.699 100.208 65.7938C99.5058 66.1393 98.5476 65.9125 97.937 65.5033C97.8961 65.4751 97.848 65.459 97.7983 65.4571C97.7486 65.4551 97.6994 65.4672 97.6563 65.4921C97.6133 65.5169 97.5781 65.5535 97.555 65.5975C97.5319 65.6415 97.5217 65.6912 97.5257 65.7408C97.6211 68.4968 94.3563 68.9907 94.3563 68.9907" stroke="black" stroke-width="0.84164" stroke-miterlimit="10"/>
<path d="M99.3086 74.9779C100.941 74.9779 102.264 73.6548 102.264 72.0227C102.264 70.3905 100.941 69.0674 99.3086 69.0674C97.6765 69.0674 96.3533 70.3905 96.3533 72.0227C96.3533 73.6548 97.6765 74.9779 99.3086 74.9779Z" stroke="black" stroke-width="0.84164" stroke-miterlimit="10"/>
<path d="M106.968 74.7152C108.6 74.7152 109.923 73.3921 109.923 71.76C109.923 70.1278 108.6 68.8047 106.968 68.8047C105.336 68.8047 104.013 70.1278 104.013 71.76C104.013 73.3921 105.336 74.7152 106.968 74.7152Z" stroke="black" stroke-width="0.84164" stroke-miterlimit="10"/>
<path d="M98.0726 72.3193C98.0726 72.3193 99.2641 73.6867 100.489 72.3193" stroke="black" stroke-width="0.84164" stroke-miterlimit="10"/>
<path d="M105.764 72.3193C105.764 72.3193 106.955 73.6867 108.183 72.3193" stroke="black" stroke-width="0.84164" stroke-miterlimit="10"/>
<path d="M103.493 78.8387C104.068 78.8387 104.534 78.3726 104.534 77.7978C104.534 77.2229 104.068 76.7568 103.493 76.7568C102.919 76.7568 102.453 77.2229 102.453 77.7978C102.453 78.3726 102.919 78.8387 103.493 78.8387Z" stroke="black" stroke-width="0.84164" stroke-miterlimit="10"/>
<path d="M102.264 72.0228C102.264 72.0228 102.934 70.931 104.013 71.76" stroke="black" stroke-width="0.84164" stroke-miterlimit="10"/>
<path d="M100.905 67.6365C100.905 67.6365 97.8374 65.2918 95.2658 67.503" stroke="black" stroke-width="0.84164" stroke-miterlimit="10"/>
<path d="M109.881 66.4073C109.881 66.4073 106.237 65.1353 104.477 68.0291" stroke="black" stroke-width="0.84164" stroke-miterlimit="10"/>
<path d="M97.1356 79.1267C97.1285 79.618 96.967 80.0947 96.6741 80.4892C96.3811 80.8838 95.9715 81.1762 95.5032 81.3251C93.9895 81.7724 92.3868 80.6361 91.7296 79.3238C91.4901 78.8703 91.3807 78.3593 91.4136 77.8474C91.4466 77.3356 91.6205 76.8428 91.9162 76.4237C91.9426 76.3817 91.9602 76.3348 91.9678 76.2859C91.9755 76.2369 91.9731 76.1869 91.9608 76.1389C91.9485 76.0909 91.9266 76.0458 91.8963 76.0066C91.866 75.9674 91.8281 75.9347 91.7847 75.9106C91.4905 75.7336 91.2471 75.4834 91.0784 75.1842C90.9098 74.8851 90.8215 74.5474 90.8222 74.204C90.823 74.0615 90.8386 73.9193 90.8689 73.78C90.8785 73.7285 90.8774 73.6755 90.8654 73.6245C90.8535 73.5735 90.8311 73.5255 90.7995 73.4836C90.768 73.4417 90.7281 73.4069 90.6824 73.3812C90.6367 73.3556 90.5861 73.3398 90.5339 73.3348C90.3796 73.3208 90.2265 73.2953 90.076 73.2585C89.6542 73.1089 89.2733 72.8626 88.9637 72.5394C88.6541 72.2162 88.4245 71.825 88.2931 71.3972C87.6571 69.328 89.2577 67.119 91.2484 66.6208C90.6548 65.5778 89.8682 64.7361 89.5524 63.5256C89.2365 62.3151 89.4188 61.0643 90.3368 60.1611C91.7678 58.7598 94.1952 59.1966 95.3484 60.7336C94.5704 59.5676 94.8609 57.9776 95.7364 56.9557C96.7964 55.7219 98.8634 55.4526 100.311 56.0801C101 56.3833 101.443 57.0108 101.914 57.5641C102.855 54.9014 106.578 54.8845 108.558 56.2794C109.588 57.0151 110.254 58.3486 109.926 59.5654C109.752 60.1824 110.072 60.5512 110.716 60.2671C111.361 59.9831 111.944 59.593 112.724 59.6778C115.425 59.964 117.343 63.6634 115.312 65.7876C115.1 66.0124 114.623 66.2477 114.517 66.5508C114.286 67.1868 115.722 67.3522 116.103 67.5154C119.457 68.9231 118.721 75.8301 114.619 75.97C114.742 76.5572 115.022 77.2081 114.978 77.8144C114.888 79.097 113.979 79.7924 112.745 79.8326C112.775 80.126 112.716 80.4216 112.576 80.6808C112.435 80.9399 112.219 81.1505 111.957 81.2848C111.295 81.6368 110.212 81.5541 109.714 80.9414C108.916 79.9789 109.735 78.7175 110.138 77.7974C110.731 76.4512 111.024 74.999 111.293 73.5574C111.539 72.3629 111.698 71.152 111.768 69.9344V69.8835" stroke="black" stroke-width="0.84164" stroke-miterlimit="10"/>
<path d="M11 168.402H54.0848" stroke="black" stroke-width="0.84164" stroke-miterlimit="10"/>
<path d="M162.5 168.402H201.8" stroke="black" stroke-width="0.84164" stroke-miterlimit="10"/>
</svg>
